<?xml version="1.0" encoding="UTF-8" standalone="no"?>
<!DOCTYPE svg PUBLIC "-//W3C//DTD SVG 1.1//EN" "http://www.w3.org/Graphics/SVG/1.1/DTD/svg11.dtd">
<svg version="1.1" xmlns="http://www.w3.org/2000/svg" xmlns:xlink="http://www.w3.org/1999/xlink" preserveAspectRatio="xMidYMid meet" viewBox="0 0 640 640" width="640" height="640"><defs><path d="M34.1 45.29L37.83 54.62L45.29 65.82L52.76 75.14L59.29 84.47L69.55 95.67L88.2 112.46L99.4 122.72L113.39 134.84L125.51 146.04L137.64 155.36L146.97 164.69L160.03 174.95L176.82 190.81L188.01 202L201.07 217.86L210.4 229.05L218.79 238.38L228.12 248.64L253.31 274.76L263.57 284.09L271.03 293.42L285.95 306.47L297.15 317.67L309.27 329.79L324.2 344.72L337.26 358.71L346.58 368.04L354.05 375.5L368.04 394.16L373.64 402.55L382.03 414.68L392.29 426.8L416.54 455.72L425.87 466.91L439.86 481.84L449.19 489.3L456.65 496.76L468.78 505.16L478.11 512.62L487.43 521.02L494.9 529.41L510.75 543.4L520.08 550.86L528.48 559.26L539.67 568.59L549 573.25L560.19 578.85L569.52 582.58L575.12 592.84" id="anY1EByXK"></path><path d="M570.45 54.62L558.33 54.62L548.07 55.56L534.07 56.49L517.28 61.15L499.56 65.82L488.37 69.55L474.38 75.14L461.32 80.74L436.13 93.8L424.01 101.26L409.08 112.46L394.16 123.65L376.43 138.57L357.78 153.5L345.65 165.62L332.59 174.95L320.47 186.15L301.81 201.07L292.48 209.47L279.42 223.46L271.96 230.92L263.57 244.91L251.44 260.77L244.91 269.16L228.12 289.68L221.59 299.01L214.13 310.21L202.94 325.13L193.61 340.05L185.21 352.18L177.75 364.31L171.22 376.43L164.69 387.63L157.23 400.69L149.77 413.74L146.04 424.01L142.3 435.2L138.57 445.46L131.11 458.52L124.58 470.64L118.05 482.77L113.39 493.96L110.59 507.02L106.86 520.08L103.13 529.41L98.46 542.47L92.87 550.86L85.4 560.19L77.94 568.59L69.55 577.91L61.15 585.38L52.76 594.71L41.56 605.9L29.44 618.02" id="e13B0N79Pt"></path></defs><g visibility="inherit"><g visibility="inherit"><g visibility="inherit"><g><use xlink:href="#anY1EByXK" opacity="1" fill-opacity="0" stroke="#000000" stroke-width="60" stroke-opacity="1"></use></g></g><g visibility="inherit"><g><use xlink:href="#e13B0N79Pt" opacity="1" fill-opacity="0" stroke="#000000" stroke-width="60" stroke-opacity="1"></use></g></g></g></g></svg>