<?xml version="1.0" encoding="UTF-8" standalone="no"?>
<!DOCTYPE svg PUBLIC "-//W3C//DTD SVG 1.1//EN" "http://www.w3.org/Graphics/SVG/1.1/DTD/svg11.dtd">
<svg version="1.1" xmlns="http://www.w3.org/2000/svg" xmlns:xlink="http://www.w3.org/1999/xlink" preserveAspectRatio="xMidYMid meet" viewBox="0 0 800 800" width="800" height="800"><defs><path d="M31.76 191.21L31.76 201.47L31.76 215.47L32.69 226.66L32.69 237.85L32.69 249.98L33.63 262.11L33.63 275.16L33.63 285.42L33.63 298.48L33.63 309.68L33.63 320.87L33.63 333.93L34.56 345.12L35.49 357.25L36.43 369.38L37.36 381.5L38.29 391.76L39.22 403.89L41.09 416.95L43.89 430.94L44.82 441.2L45.75 452.39L45.75 465.45L45.75 477.58L47.62 489.7L48.55 502.76L48.55 513.02L48.55 526.08L48.55 536.34L49.48 549.4L50.42 561.53L51.35 575.52L51.35 588.58L51.35 598.84L51.35 610.03L51.35 620.29L50.42 631.49L49.48 643.61L50.42 655.74L51.35 666L51.35 679.06L50.42 689.32L48.55 699.58L47.62 711.71L44.82 721.97L45.75 735.03L49.48 745.29L55.08 753.68L56.95 764.88L67.21 768.61L78.4 769.54L89.59 767.67L99.86 766.74L110.12 764.88L121.31 763.01L131.57 763.01L142.76 762.08L153.02 762.08L164.22 762.08L174.48 763.01L184.74 764.88L195 764.88L207.13 764.88L219.25 767.67L230.45 771.41L243.5 773.27L256.56 777.93L266.82 779.8L277.08 778.87L287.35 777L299.47 774.2L309.73 773.27L320.93 770.47L331.19 770.47L342.38 769.54L354.51 766.74L364.77 764.88L376.89 763.01L388.09 761.14L400.21 760.21L413.27 759.28L426.33 759.28L444.05 758.35L456.18 756.48L470.17 754.62L487.89 754.62L501.89 754.62L512.15 752.75L523.34 753.68L539.2 757.41L553.19 760.21L569.05 763.01L582.11 764.88L592.37 765.81L603.56 764.88L615.69 764.88L626.88 763.01L629.68 751.82L630.61 739.69L630.61 726.63L631.54 714.51L634.34 703.31L634.34 691.19L636.21 678.13L639 667.87L639.94 655.74L639.94 645.48L639.94 633.35L639.94 622.16L638.07 610.03L635.27 590.45L629.68 557.8L629.68 547.54L629.68 536.34L629.68 523.28L629.68 511.16L629.68 499.97L629.68 487.84L629.68 477.58L628.74 462.65L628.74 452.39L628.74 441.2L628.74 428.14L627.81 416.95L627.81 404.82L627.81 393.63L627.81 381.5L627.81 371.24L627.81 360.98L627.81 346.06L627.81 335.79L627.81 324.6L626.88 314.34L626.88 297.55L626.88 287.29L625.95 276.1L625.01 264.9L625.01 251.84L625.01 236.92L625.01 224.79L625.01 214.53L626.88 203.34L628.74 193.08L631.54 182.82L631.54 172.56L626.88 163.23L616.62 162.3L606.36 162.3L595.16 163.23L584.9 166.03L574.64 166.03L563.45 166.96L552.26 166.96L540.13 165.1L528.94 164.16L518.68 163.23L507.48 163.23L494.42 163.23L484.16 163.23L472.97 165.1L460.84 166.03L448.72 166.96L438.46 166.96L422.6 166.96L411.41 166.96L400.21 168.83L387.15 170.69L373.16 171.62L362.9 172.56L352.64 173.49L339.58 175.36L326.52 176.29L316.26 178.15L305.07 178.15L291.08 180.02L279.88 180.95L266.82 180.95L256.56 180.95L244.44 180.95L234.18 180.02L223.92 179.09L208.99 179.09L196.86 178.15L179.14 177.22L167.95 177.22L157.69 177.22L141.83 175.36L110.12 168.83L97.06 166.96L86.8 165.1L74.67 165.1L56.01 165.1L45.75 166.96L37.36 173.49L31.76 182.82L28.96 193.08" id="fweA1AhJF"></path></defs><g visibility="inherit"><g visibility="inherit"><g visibility="inherit"><g><use xlink:href="#fweA1AhJF" opacity="1" fill-opacity="0" stroke="#000000" stroke-width="36" stroke-opacity="1"></use></g></g></g></g></svg>