<?xml version="1.0" encoding="UTF-8" standalone="no"?>
<!DOCTYPE svg PUBLIC "-//W3C//DTD SVG 1.1//EN" "http://www.w3.org/Graphics/SVG/1.1/DTD/svg11.dtd">
<svg version="1.1" xmlns="http://www.w3.org/2000/svg" xmlns:xlink="http://www.w3.org/1999/xlink" preserveAspectRatio="xMidYMid meet" viewBox="0 0 800 800" width="800" height="800"><defs><path d="M126.82 380.83L134.36 392.17L138.67 405.78L139.75 418.26L144.06 437.55L147.3 451.16L151.61 470.45L155.92 490.87L160.23 507.89L165.62 526.04L169.93 539.65L175.32 552.13L180.71 566.88L185.02 580.49L189.33 592.97L193.64 604.32L199.03 619.06L205.5 633.81L211.97 644.02L216.28 656.5L222.74 666.71L229.21 676.92L241.07 688.27L252.92 683.73L259.39 670.11L269.09 651.96L280.95 636.08L293.88 620.2L324.06 580.49L332.68 568.01L345.61 552.13L358.55 533.98L368.25 515.83L383.34 497.68L394.12 479.52L402.74 463.64L413.52 444.36L422.14 423.94L432.92 397.84L442.62 375.15L454.47 352.47L465.25 335.45L476.03 313.89L496.51 270.78L507.29 245.83L516.99 228.81L525.61 210.66L538.54 174.35L545.01 158.47L549.32 142.59L554.71 123.3L564.41 92.67L569.8 79.06L579.5 55.24L588.12 37.09L595.67 23.47" id="a7T7cLe9I"></path><path d="M31.65 264.87L31.65 273.84L31.65 286.09L32.55 295.88L32.55 305.67L32.55 316.28L33.44 326.89L33.44 338.31L33.44 347.29L33.44 358.71L33.44 368.51L33.44 378.3L33.44 389.72L34.34 399.52L35.23 410.13L36.13 420.73L37.03 431.34L37.92 440.32L38.82 450.93L40.61 462.35L43.3 474.59L44.19 483.57L45.09 493.36L45.09 504.79L45.09 515.4L46.88 526.01L47.77 537.43L47.77 546.41L47.77 557.83L47.77 566.81L48.67 578.23L49.57 588.84L50.46 601.08L50.46 612.51L50.46 621.49L50.46 631.28L50.46 640.25L49.57 650.05L48.67 660.66L49.57 671.26L50.46 680.24L50.46 691.67L49.57 700.64L47.77 709.62L46.88 720.23L44.19 729.2L45.09 740.63L48.67 749.61L54.05 756.95L55.84 766.74L65.69 770.01L76.44 770.82L87.19 769.19L97.04 768.38L106.9 766.74L117.65 765.11L127.5 765.11L138.25 764.3L148.1 764.3L158.85 764.3L168.7 765.11L178.56 766.74L188.41 766.74L200.06 766.74L211.7 769.19L222.45 772.46L234.99 774.09L247.53 778.17L257.39 779.8L267.24 778.98L277.09 777.35L288.74 774.9L298.59 774.09L309.34 771.64L319.19 771.64L329.94 770.82L341.59 768.38L351.44 766.74L363.09 765.11L373.84 763.48L385.48 762.66L398.02 761.85L410.56 761.85L427.58 761.03L439.23 759.4L452.66 757.77L469.68 757.77L483.12 757.77L492.97 756.13L503.72 756.95L518.95 760.22L532.39 762.66L547.62 765.11L560.16 766.74L570.01 767.56L580.76 766.74L592.41 766.74L603.15 765.11L605.84 755.32L606.74 744.71L606.74 733.29L607.63 722.68L610.32 712.88L610.32 702.27L612.11 690.85L614.8 681.87L615.7 671.26L615.7 662.29L615.7 651.68L615.7 641.89L613.9 631.28L611.22 614.14L605.84 585.58L605.84 576.6L605.84 566.81L605.84 555.38L605.84 544.78L605.84 534.98L605.84 524.37L605.84 515.4L604.95 502.34L604.95 493.36L604.95 483.57L604.95 472.15L604.05 462.35L604.05 451.74L604.05 441.95L604.05 431.34L604.05 422.37L604.05 413.39L604.05 400.33L604.05 391.36L604.05 381.56L603.15 372.59L603.15 357.9L603.15 348.92L602.26 339.13L601.36 329.34L601.36 317.91L601.36 304.85L601.36 294.25L601.36 285.27L603.15 275.48L604.95 266.5L607.63 257.52L607.63 248.55L603.15 240.39L593.3 239.57L583.45 239.57L572.7 240.39L562.84 242.83L552.99 242.83L542.24 243.65L531.49 243.65L519.85 242.02L509.1 241.2L499.24 240.39L488.5 240.39L475.95 240.39L466.1 240.39L455.35 242.02L443.71 242.83L432.06 243.65L422.21 243.65L406.98 243.65L396.23 243.65L385.48 245.28L372.94 246.91L359.5 247.73L349.65 248.55L339.8 249.36L327.26 250.99L314.72 251.81L304.86 253.44L294.11 253.44L280.68 255.07L269.93 255.89L257.39 255.89L247.53 255.89L235.89 255.89L226.03 255.07L216.18 254.26L201.85 254.26L190.2 253.44L173.18 252.63L162.43 252.63L152.58 252.63L137.35 250.99L106.9 245.28L94.36 243.65L84.5 242.02L72.86 242.02L54.94 242.02L45.09 243.65L37.03 249.36L31.65 257.52L28.96 266.5" id="eHztO5jym"></path><path d="M154.09 382.07C154.09 396.53 141.87 408.26 126.82 408.26C111.77 408.26 99.55 396.53 99.55 382.07C99.55 367.61 111.77 355.87 126.82 355.87C141.87 355.87 154.09 367.61 154.09 382.07Z" id="blpDdAu6a"></path><path d="M569.95 12.44L584.24 -0.88L619.71 37.19L605.41 50.5L569.95 12.44Z" id="a6GTI4jqms"></path></defs><g visibility="inherit"><g visibility="inherit"><g visibility="inherit"><g><use xlink:href="#a7T7cLe9I" opacity="1" fill-opacity="0" stroke="#000000" stroke-width="54" stroke-opacity="1"></use></g></g><g visibility="inherit"><g><use xlink:href="#eHztO5jym" opacity="1" fill-opacity="0" stroke="#000000" stroke-width="60" stroke-opacity="1"></use></g></g><g visibility="inherit"><use xlink:href="#blpDdAu6a" opacity="1" fill="#000000" fill-opacity="1"></use></g><g visibility="inherit"><use xlink:href="#a6GTI4jqms" opacity="1" fill="#000000" fill-opacity="1"></use></g></g></g></svg>