<?xml version="1.0" encoding="UTF-8" standalone="no"?>
<!DOCTYPE svg PUBLIC "-//W3C//DTD SVG 1.1//EN" "http://www.w3.org/Graphics/SVG/1.1/DTD/svg11.dtd">
<svg version="1.1" xmlns="http://www.w3.org/2000/svg" xmlns:xlink="http://www.w3.org/1999/xlink" preserveAspectRatio="xMidYMid meet" viewBox="0 0 800 800" width="800" height="800"><defs><path d="M126.82 380.83L134.36 392.17L138.67 405.78L139.75 418.26L144.06 437.55L147.3 451.16L151.61 470.45L155.92 490.87L160.23 507.89L165.62 526.04L169.93 539.65L175.32 552.13L180.71 566.88L185.02 580.49L189.33 592.97L193.64 604.32L199.03 619.06L205.5 633.81L211.97 644.02L216.28 656.5L222.74 666.71L229.21 676.92L241.07 688.27L252.92 683.73L259.39 670.11L269.09 651.96L280.95 636.08L293.88 620.2L324.06 580.49L332.68 568.01L345.61 552.13L358.55 533.98L368.25 515.83L383.34 497.68L394.12 479.52L402.74 463.64L413.52 444.36L422.14 423.94L432.92 397.84L442.62 375.15L454.47 352.47L465.25 335.45L476.03 313.89L496.51 270.78L507.29 245.83L516.99 228.81L525.61 210.66L538.54 174.35L545.01 158.47L549.32 142.59L554.71 123.3L564.41 92.67L569.8 79.06L579.5 55.24L588.12 37.09L595.67 23.47" id="a3SXwQetOB"></path><path d="M154.09 382.07C154.09 396.53 141.87 408.26 126.82 408.26C111.77 408.26 99.55 396.53 99.55 382.07C99.55 367.61 111.77 355.87 126.82 355.87C141.87 355.87 154.09 367.61 154.09 382.07Z" id="a5lQP6qX2r"></path><path d="M569.95 12.44L584.24 -0.88L619.71 37.19L605.41 50.5L569.95 12.44Z" id="d2ztXhNEg"></path></defs><g visibility="inherit"><g visibility="inherit"><g visibility="inherit"><g><use xlink:href="#a3SXwQetOB" opacity="1" fill-opacity="0" stroke="#000000" stroke-width="54" stroke-opacity="1"></use></g></g><g visibility="inherit"><use xlink:href="#a5lQP6qX2r" opacity="1" fill="#000000" fill-opacity="1"></use></g><g visibility="inherit"><use xlink:href="#d2ztXhNEg" opacity="1" fill="#000000" fill-opacity="1"></use></g></g></g></svg>