<?xml version="1.0" encoding="UTF-8" standalone="no"?>
<!DOCTYPE svg PUBLIC "-//W3C//DTD SVG 1.1//EN" "http://www.w3.org/Graphics/SVG/1.1/DTD/svg11.dtd">
<svg version="1.1" xmlns="http://www.w3.org/2000/svg" xmlns:xlink="http://www.w3.org/1999/xlink" preserveAspectRatio="xMidYMid meet" viewBox="0 0 800 800" width="800" height="800"><defs><path d="M31.65 266.02L31.65 275L31.65 287.24L32.55 297.03L32.55 306.82L32.55 317.43L33.44 328.04L33.44 339.47L33.44 348.44L33.44 359.87L33.44 369.66L33.44 379.45L33.44 390.88L34.34 400.67L35.23 411.28L36.13 421.89L37.03 432.5L37.92 441.47L38.82 452.08L40.61 463.51L43.3 475.75L44.19 484.72L45.09 494.52L45.09 505.94L45.09 516.55L46.88 527.16L47.77 538.58L47.77 547.56L47.77 558.98L47.77 567.96L48.67 579.39L49.57 590L50.46 602.24L50.46 613.66L50.46 622.64L50.46 632.43L50.46 641.41L49.57 651.2L48.67 661.81L49.57 672.42L50.46 681.39L50.46 692.82L49.57 701.8L47.77 710.77L46.88 721.38L44.19 730.36L45.09 741.78L48.67 750.76L54.05 758.1L55.84 767.9L65.69 771.16L76.44 771.98L87.19 770.34L97.04 769.53L106.9 767.9L117.65 766.26L127.5 766.26L138.25 765.45L148.1 765.45L158.85 765.45L168.7 766.26L178.56 767.9L188.41 767.9L200.06 767.9L211.7 770.34L222.45 773.61L234.99 775.24L247.53 779.32L257.39 780.95L267.24 780.14L277.09 778.5L288.74 776.06L298.59 775.24L309.34 772.79L319.19 772.79L329.94 771.98L341.59 769.53L351.44 767.9L363.09 766.26L373.84 764.63L385.48 763.82L398.02 763L410.56 763L427.58 762.18L439.23 760.55L452.66 758.92L469.68 758.92L483.12 758.92L492.97 757.29L503.72 758.1L518.95 761.37L532.39 763.82L547.62 766.26L560.16 767.9L570.01 768.71L580.76 767.9L592.41 767.9L603.15 766.26L605.84 756.47L606.74 745.86L606.74 734.44L607.63 723.83L610.32 714.04L610.32 703.43L612.11 692L614.8 683.03L615.7 672.42L615.7 663.44L615.7 652.83L615.7 643.04L613.9 632.43L611.22 615.29L605.84 586.73L605.84 577.75L605.84 567.96L605.84 556.54L605.84 545.93L605.84 536.14L605.84 525.53L605.84 516.55L604.95 503.49L604.95 494.52L604.95 484.72L604.95 473.3L604.05 463.51L604.05 452.9L604.05 443.1L604.05 432.5L604.05 423.52L604.05 414.54L604.05 401.49L604.05 392.51L604.05 382.72L603.15 373.74L603.15 359.05L603.15 350.07L602.26 340.28L601.36 330.49L601.36 319.06L601.36 306.01L601.36 295.4L601.36 286.42L603.15 276.63L604.95 267.65L607.63 258.68L607.63 249.7L603.15 241.54L593.3 240.72L583.45 240.72L572.7 241.54L562.84 243.99L552.99 243.99L542.24 244.8L531.49 244.8L519.85 243.17L509.1 242.35L499.24 241.54L488.5 241.54L475.95 241.54L466.1 241.54L455.35 243.17L443.71 243.99L432.06 244.8L422.21 244.8L406.98 244.8L396.23 244.8L385.48 246.43L372.94 248.07L359.5 248.88L349.65 249.7L339.8 250.51L327.26 252.15L314.72 252.96L304.86 254.6L294.11 254.6L280.68 256.23L269.93 257.04L257.39 257.04L247.53 257.04L235.89 257.04L226.03 256.23L216.18 255.41L201.85 255.41L190.2 254.6L173.18 253.78L162.43 253.78L152.58 253.78L137.35 252.15L106.9 246.43L94.36 244.8L84.5 243.17L72.86 243.17L54.94 243.17L45.09 244.8L37.03 250.51L31.65 258.68L28.96 267.65" id="a1qU7Y2FyX"></path><path d="M249.63 519.26L262.3 512.35L274.98 504.28L293.42 491.6L302.63 482.39L316.46 473.17L333.74 458.19L348.72 443.21L359.09 430.53L370.62 419.01L391.36 399.42L402.88 387.9L415.56 376.38L425.93 364.86L436.3 354.49L445.51 342.96L455.88 330.29L466.26 318.77L476.63 307.24L487 294.57L495.06 283.05L504.28 269.22L516.95 247.33L527.33 228.89L537.7 216.21L544.61 204.69L554.98 194.32L571.11 182.8L595.31 168.97L606.83 163.21L618.35 155.14L628.72 145.93L641.4 135.56L652.92 126.34L662.14 115.97L673.66 103.29L682.88 92.92L694.4 82.55L705.93 74.49L715.14 65.27L723.21 54.9L731.28 43.37" id="f2KuYfE5j"></path><path d="M768.15 49.14L755.47 50.29L739.34 51.44L725.51 51.44L709.38 51.44L689.79 51.44L672.51 51.44L658.68 51.44L646.01 51.44L631.03 51.44L616.05 51.44L591.85 51.44L576.87 52.59L558.44 54.9L543.46 57.2L528.48 60.66L515.8 65.27" id="c4jPFhJzU"></path><path d="M733.58 23.21L734.73 37.04L735.88 49.71L737.04 63.54L740.49 77.37L741.65 90.04L741.65 102.72L743.95 115.39L748.56 129.22L750.86 145.35L753.17 158.02L753.17 170.7L753.17 184.53L753.17 200.66L753.17 213.33L753.17 230.62L754.32 243.29L754.32 255.97L756.63 268.64L756.63 281.32" id="apMBQ9lW"></path></defs><g visibility="inherit"><g visibility="inherit"><g visibility="inherit"><g><use xlink:href="#a1qU7Y2FyX" opacity="1" fill-opacity="0" stroke="#000000" stroke-width="60" stroke-opacity="1"></use></g></g><g visibility="inherit"><g><use xlink:href="#f2KuYfE5j" opacity="1" fill-opacity="0" stroke="#000000" stroke-width="60" stroke-opacity="1"></use></g></g><g visibility="inherit"><g><use xlink:href="#c4jPFhJzU" opacity="1" fill-opacity="0" stroke="#000000" stroke-width="60" stroke-opacity="1"></use></g></g><g visibility="inherit"><g><use xlink:href="#apMBQ9lW" opacity="1" fill-opacity="0" stroke="#000000" stroke-width="60" stroke-opacity="1"></use></g></g></g></g></svg>