<?xml version="1.0" encoding="UTF-8" standalone="no"?>
<!DOCTYPE svg PUBLIC "-//W3C//DTD SVG 1.1//EN" "http://www.w3.org/Graphics/SVG/1.1/DTD/svg11.dtd">
<svg version="1.1" xmlns="http://www.w3.org/2000/svg" xmlns:xlink="http://www.w3.org/1999/xlink" preserveAspectRatio="xMidYMid meet" viewBox="178.22355065648335 610.5895006982614 22.455150637953494 26.19193888199777" width="22.46" height="26.19"><defs><path d="M180.08 627.31L179.87 627.77L179.77 628.35L179.67 628.81L179.67 629.27L179.56 629.77L179.46 630.23L179.41 630.73L179.25 631.35L179.2 631.89L179.05 632.47L178.94 632.93L178.89 633.39L178.84 633.85L178.69 634.47L178.58 634.97L178.43 635.59L178.33 636.09L178.22 636.67L178.79 636.78L179.36 636.51L180.03 636.01L180.44 635.63L180.95 635.24L181.67 634.86L182.29 634.51L182.76 634.16L183.37 633.85L183.84 633.58L184.35 633.16L184.87 632.78L185.49 632.31L185.9 631.97L186.36 631.7L186.88 631.35L187.39 631.08L187.85 630.73L188.27 630.39L188.58 629.93L188.83 629.42L189.09 629L189.35 628.58L189.61 628.15L189.91 627.77L190.43 627.23L190.79 626.81L191.15 626.34L191.46 625.92L191.82 625.5L192.18 625.03L192.54 624.61L192.85 624.22L193.26 623.88L193.62 623.45L193.98 623.03L194.34 622.57L194.76 622.14L195.12 621.72L195.43 621.3L195.73 620.87L195.99 620.41L196.51 619.83L196.71 619.37L196.97 618.95L197.28 618.52L196.71 618.22L196.09 618.18L195.48 618.1L194.86 618.02L194.09 617.83L193.47 617.68L192.75 617.56L191.97 617.41L191.36 617.25L190.79 617.14L190.22 617.02L189.55 616.83L188.99 616.71L188.37 616.56L187.75 616.41L187.19 616.56L186.88 617.02L186.62 617.45L186.26 617.83L185.9 618.25L185.59 618.64L185.28 619.06L184.97 619.53L184.56 620.22L184.3 620.64L183.99 621.03L183.79 621.49L183.58 622.03L183.27 622.49L182.91 623.11L182.65 623.53L182.29 624.03L181.98 624.49L181.73 625L181.52 625.42L181.21 625.84L180.75 626.34L180.49 626.77L180.23 627.23" id="a3TP5D8C5R"></path><path d="M179 634.39L179.56 634.05L179.97 633.7L180.49 633.31L181.21 633.05L181.37 633.47L181.42 633.97L181.26 634.43L181.21 634.89" id="bP4klui7F"></path><path d="M180.9 626.77L181.37 627.04L181.98 627.23L182.55 627.38L183.17 627.54L183.73 627.81L184.3 628.08L184.97 628.35L185.69 628.58L186.31 628.73L186.88 628.96L187.44 629.12L188.01 629.27L188.58 629.39L188.83 628.96L189.14 628.58L189.4 628.15L189.71 627.73L190.07 627.34L190.48 627L190.94 626.65L191.31 626.3L191.72 625.96L192.13 625.61L192.49 625.26L192.8 624.88L193.16 624.49L193.37 624.07L193.67 623.65L193.98 623.18L194.19 622.72L194.45 622.3L194.65 621.84L194.96 621.45L195.27 621.07L195.58 620.68L195.89 620.3L196.2 619.91L196.56 619.56L196.76 619.14L196.97 618.72L196.61 618.29L196.04 618.18L195.48 618.06L194.91 617.91L194.29 617.79L193.73 617.64L193.11 617.56L192.54 617.45L191.97 617.29L191.36 617.21L190.79 617.06L190.17 616.98L189.55 616.94L188.88 616.87L188.27 616.91L187.91 617.29L187.65 617.72L187.39 618.14L187.19 618.56L186.88 619.18L186.52 619.64L186.31 620.06L186.05 620.49L185.85 620.95L185.54 621.37L185.28 621.84L184.87 622.26L184.51 622.61L184.15 623.03L183.84 623.42L183.48 623.8L183.22 624.22L182.91 624.69L182.7 625.15L182.45 625.57L182.09 625.96L181.73 626.34L181.42 626.73L180.85 626.57" id="duScFjEep"></path><path d="M187.75 615.44L188.37 615.52L188.99 615.6L189.61 615.75L190.17 615.9L190.84 616.02L191.41 616.14L191.97 616.29L192.59 616.44L193.26 616.64L194.09 616.87L194.7 616.98L195.43 617.1L195.99 617.25L196.56 617.41L197.13 617.56L197.69 617.68L197.95 617.25L198.31 616.79L198.72 616.41L199.03 616.02L199.39 615.48L199.75 615.13L200.11 614.71L200.37 614.29L200.68 613.86L200.68 613.4L200.68 612.94L200.32 612.55L199.8 612.32L199.24 612.09L198.67 611.94L198.05 611.82L197.49 611.71L196.92 611.55L196.35 611.44L195.79 611.32L195.17 611.13L194.4 610.9L193.62 610.78L193 610.74L192.34 610.67L191.72 610.63L191.05 610.59L190.43 610.74L190.07 611.09L189.91 611.51L189.81 612.01L189.61 612.48L189.25 612.9L188.83 613.29L188.52 613.67L188.47 614.13L188.42 614.6L188.16 615.02" id="c6FDgDlFLx"></path></defs><g visibility="inherit"><g visibility="inherit"><g visibility="inherit"><g><use xlink:href="#a3TP5D8C5R" opacity="1" fill-opacity="0" stroke="#000000" stroke-width="1" stroke-opacity="1"></use></g></g><g visibility="inherit"><g><use xlink:href="#bP4klui7F" opacity="1" fill-opacity="0" stroke="#000000" stroke-width="1" stroke-opacity="1"></use></g></g><g visibility="inherit"><use xlink:href="#duScFjEep" opacity="1" fill="#000000" fill-opacity="0"></use><g><use xlink:href="#duScFjEep" opacity="1" fill-opacity="0" stroke="#000000" stroke-width="1" stroke-opacity="1"></use></g></g><g visibility="inherit"><g><use xlink:href="#c6FDgDlFLx" opacity="1" fill-opacity="0" stroke="#000000" stroke-width="1" stroke-opacity="1"></use></g></g></g></g></svg>