<?xml version="1.0" encoding="UTF-8" standalone="no"?>
<!DOCTYPE svg PUBLIC "-//W3C//DTD SVG 1.1//EN" "http://www.w3.org/Graphics/SVG/1.1/DTD/svg11.dtd">
<svg version="1.1" xmlns="http://www.w3.org/2000/svg" xmlns:xlink="http://www.w3.org/1999/xlink" preserveAspectRatio="xMidYMid meet" viewBox="0 0 640 640" width="640" height="640"><defs><path d="M530.79 420.99L534.3 431.52L536.06 444.68L537.81 455.2L537.81 465.73L539.57 477.13L541.32 487.66L542.2 499.06L544.83 513.1L545.71 525.38L548.34 538.54L550.09 549.06L550.97 559.59L551.85 570.11L554.48 584.15L556.23 595.55L558.86 609.59L560.62 620.99L562.37 634.15L552.72 636.78L543.07 630.64L531.67 619.24L524.65 610.47L515.88 601.69L503.6 592.92L493.07 585.03L485.18 577.13L474.65 570.11L466.76 563.97L457.99 554.33L449.21 545.55L438.69 535.03L431.67 527.13L423.78 520.99L415 513.1L406.23 506.96L398.34 499.06L391.32 491.17L386.06 480.64L381.67 469.24L377.29 459.59L372.9 449.94L368.51 440.29L363.25 431.52L354.48 419.24L348.34 409.59L342.2 399.06L336.93 389.41L330.79 379.76L324.65 369.24L318.51 359.59L313.25 350.82L306.23 342.92L300.09 333.27L293.95 323.62L287.81 313.1L280.79 303.45L274.65 293.8L269.39 284.15L264.13 274.5L259.74 263.97L250.97 250.82L247.46 240.29L243.07 230.64L237.81 220.99L247.46 213.97L257.99 213.1L268.51 211.34L279.04 209.59L292.2 205.2L302.72 201.69L315 199.06L328.16 195.55L338.69 192.04L348.34 189.41L357.99 186.78L369.39 182.4L379.04 179.76L389.57 176.26L400.09 172.75L409.74 176.26L415 186.78L419.39 196.43L425.53 205.2L431.67 214.85L436.93 223.62L442.2 233.27L447.46 243.8L454.48 259.59L458.86 269.24L464.13 278.01L467.64 288.54L471.14 300.82L476.41 311.34L482.55 325.38L486.93 335.03L493.07 346.43L498.34 356.96L502.72 368.36L506.23 378.01L511.5 387.66L519.39 399.06L523.78 408.71L528.16 419.24" id="a19Pz0dW8B"></path><path d="M549.21 582.4L539.57 574.5L532.55 566.61L523.78 557.83L511.5 551.69L508.86 561.34L507.99 572.75L510.62 583.27L511.5 593.8" id="cqHn9tqbs"></path><path d="M516.76 408.71L508.86 414.85L498.34 419.24L488.69 422.75L478.16 426.26L468.51 432.4L458.86 438.54L447.46 444.68L435.18 449.94L424.65 453.45L415 458.71L405.36 462.22L395.71 465.73L386.06 468.36L381.67 458.71L376.41 449.94L372.02 440.29L366.76 430.64L360.62 421.87L353.6 413.97L345.71 406.08L339.57 398.18L332.55 390.29L325.53 382.4L319.39 374.5L314.13 365.73L307.99 356.96L304.48 347.31L299.21 337.66L293.95 327.13L290.44 316.61L286.06 306.96L282.55 296.43L277.29 287.66L272.02 278.89L266.76 270.11L261.5 261.34L256.23 252.57L250.09 244.68L246.58 235.03L243.07 225.38L249.21 215.73L258.86 213.1L268.51 210.47L278.16 206.96L288.69 204.33L298.34 200.82L308.86 199.06L318.51 196.43L328.16 192.92L338.69 191.17L348.34 187.66L358.86 185.9L369.39 185.03L380.79 183.27L391.32 184.15L397.46 192.92L401.85 202.57L406.23 212.22L409.74 221.87L415 235.9L421.14 246.43L424.65 256.08L429.04 265.73L432.55 276.26L437.81 285.9L442.2 296.43L449.21 306.08L455.36 313.97L461.5 323.62L466.76 332.4L472.9 341.17L477.29 350.82L482.55 361.34L486.06 371.87L490.44 381.52L496.58 390.29L502.72 399.06L507.99 407.83L517.64 404.33" id="a1a375tMgc"></path><path d="M400.09 150.82L389.57 152.57L379.04 154.33L368.51 157.83L358.86 161.34L347.46 163.97L337.81 166.61L328.16 170.11L317.64 173.62L306.23 178.01L292.2 183.27L281.67 185.9L269.39 188.54L259.74 192.04L250.09 195.55L240.44 199.06L230.79 201.69L226.41 192.04L220.27 181.52L213.25 172.75L207.99 163.97L201.85 151.69L195.71 143.8L189.57 134.15L185.18 124.5L179.92 114.85L179.92 104.33L179.92 93.8L186.06 85.03L194.83 79.76L204.48 74.5L214.13 70.99L224.65 68.36L234.3 65.73L243.95 62.22L253.6 59.59L263.25 56.96L273.78 52.57L286.93 47.31L300.09 44.68L310.62 43.8L322.02 42.04L332.55 41.17L343.95 40.29L354.48 43.8L360.62 51.69L363.25 61.34L365 72.75L368.51 83.27L374.65 92.92L381.67 101.69L386.93 110.47L387.81 120.99L388.69 131.52L393.07 141.17" id="bf4DlCriG"></path><path d="M381.67 191.17L393.07 192.92L386.93 183.27L377.29 180.64L384.3 189.41L373.78 192.92L363.25 196.43L373.78 197.31L384.3 200.82L373.78 199.06L361.5 199.06L375.53 203.45L387.81 206.08L399.21 207.83L389.57 200.82L379.92 195.55L392.2 198.18L379.92 197.31L388.69 203.45L377.29 201.69L388.69 207.83L397.46 213.97L391.32 202.57L385.18 193.8L395.71 197.31L402.72 207.83L404.48 219.24L393.95 216.61L402.72 225.38L408.86 234.15L417.64 248.18L424.65 258.71L414.13 251.69L405.36 239.41L398.34 230.64L392.2 220.99L386.06 210.47L393.07 221.87L399.21 230.64L402.72 240.29L393.95 230.64L388.69 220.11L381.67 206.96L392.2 213.97L400.97 223.62L408.86 235.9L416.76 246.43L424.65 256.96L430.79 264.85L420.27 255.2L409.74 243.8L395.71 228.01L380.79 209.59L372.9 197.31L378.16 206.08L386.93 217.48L393.07 228.01L400.09 241.17L407.99 253.45L413.25 264.85L419.39 279.76L409.74 269.24L400.09 257.83L392.2 246.43L384.3 235.03L380.79 224.5L389.57 231.52L394.83 241.17L402.72 251.69L410.62 263.97L418.51 276.26L426.41 288.54L432.55 297.31L437.81 307.83L432.55 296.43L422.9 282.4L414.13 270.99L405.36 259.59L398.34 249.94L408.86 258.71L416.76 269.24L422.02 278.01L427.29 286.78L422.02 278.01L414.13 267.48L407.99 258.71L403.6 247.31L413.25 253.45L419.39 261.34L425.53 269.24L416.76 261.34L420.27 270.99L426.41 278.89L432.55 288.54L433.43 299.94L438.69 309.59L447.46 319.24L455.36 327.13L445.71 318.36L437.81 310.47L447.46 319.24L455.36 327.13L447.46 313.97L440.44 304.33L437.81 293.8L445.71 300.82L448.34 310.47L453.6 319.24L443.07 317.48L448.34 329.76L456.23 336.78L448.34 329.76L440.44 323.62L447.46 335.03L459.74 345.55L467.64 353.45L457.11 346.43L468.51 356.08L485.18 368.36L475.53 357.83L450.97 326.26L458.86 332.4L469.39 341.17L461.5 332.4L453.6 326.26L458.86 338.54L464.13 347.31L470.27 356.08L479.04 366.61L465.88 369.24L468.51 381.52L479.04 394.68L467.64 389.41L458.86 384.15L468.51 390.29L478.16 395.55L475.53 385.03L467.64 378.89L459.74 370.11L471.14 376.26L482.55 381.52L476.41 369.24L486.93 377.13L476.41 378.89L480.79 390.29L490.44 399.06L498.34 406.08L485.18 399.94L493.95 407.83L491.32 398.18L500.97 403.45L489.57 397.31L490.44 408.71L475.53 400.82L479.04 410.47L468.51 405.2L476.41 414.85L465 413.1L472.02 424.5L456.23 423.62L460.62 433.27L450.09 426.26L453.6 435.9L441.32 430.64L429.92 427.13L435.18 437.66L443.07 445.55L432.55 442.04L422.02 438.54L422.9 449.06L411.5 443.8L401.85 440.29L407.11 450.82L393.95 449.06L382.55 442.92L388.69 453.45L380.79 446.43L391.32 456.96L388.69 447.31L396.58 441.17L407.11 446.43L393.07 435.9L384.3 430.64L392.2 437.66L401.85 443.8L388.69 436.78L379.92 431.52L387.81 440.29L374.65 433.27L387.81 441.17L379.92 433.27L366.76 425.38L361.5 416.61L352.72 408.71L343.07 401.69L351.85 407.83L344.83 397.31L360.62 406.96L369.39 412.22L360.62 404.33L349.21 395.55L338.69 386.78L332.55 378.01L327.29 368.36L335.18 374.5L348.34 385.9L356.23 392.92L350.09 384.15L340.44 373.62L332.55 365.73L327.29 356.96L338.69 368.36L326.41 353.45L317.64 338.54L325.53 346.43L314.13 329.76L303.6 316.61L295.71 306.96L306.23 320.11L312.37 329.76L302.72 320.99L286.93 304.33L314.13 329.76L302.72 315.73L292.2 304.33L283.43 293.8L279.04 282.4L287.81 288.54L279.92 274.5L272.9 265.73L281.67 271.87L286.93 280.64L276.41 266.61L268.51 259.59L277.29 267.48L269.39 255.2L264.13 246.43L259.74 236.78L251.85 229.76L259.74 237.66L254.48 228.01L265.88 228.89L259.74 216.61L270.27 223.62L284.3 220.99L280.79 210.47L291.32 213.97L305.36 212.22L317.64 209.59L326.41 204.33L340.44 205.2L350.97 204.33L361.5 202.57L355.36 192.04L346.58 198.18L333.43 202.57L327.29 210.47L309.74 212.22L296.58 213.97L286.06 213.97L295.71 206.96L319.39 203.45L330.79 202.57L342.2 199.06L352.72 197.31L364.13 195.55L374.65 193.8L365.88 201.69L349.21 201.69L360.62 205.2L370.27 208.71L386.06 215.73L376.41 207.83L366.76 203.45L356.23 199.06L365.88 210.47L375.53 217.48L361.5 207.83L351.85 204.33L367.64 213.97L376.41 219.24L384.3 227.13L373.78 222.75L354.48 216.61L367.64 219.24L382.55 224.5L391.32 229.76L378.16 221.87L359.74 213.97L349.21 209.59L362.37 213.1L379.04 220.11L395.71 228.89L409.74 239.41L391.32 235.9L380.79 230.64L367.64 225.38L355.36 220.11L343.95 213.1L334.3 206.96L324.65 203.45L331.67 213.1L341.32 218.36L352.72 223.62L361.5 228.89L371.14 233.27L379.92 239.41L388.69 246.43L397.46 252.57L406.23 257.83L391.32 253.45L365.88 241.17L353.6 233.27L335.18 219.24L325.53 214.85L315 209.59L318.51 219.24L330.79 227.13L340.44 231.52L350.97 234.15L361.5 238.54L371.14 242.92L381.67 247.31L391.32 252.57L379.04 254.33L366.76 249.94L353.6 242.04L342.2 232.4L333.43 223.62L322.9 217.48L313.25 213.97L302.72 213.1L304.48 224.5L315.88 228.89L330.79 233.27L343.95 237.66L356.23 242.92L368.51 247.31L385.18 252.57L394.83 255.2L403.6 260.47L389.57 263.1L373.78 256.08L364.13 249.94L355.36 243.8L343.95 236.78L335.18 231.52L324.65 227.13L315 220.99L304.48 217.48L309.74 229.76L321.14 233.27L338.69 240.29L349.21 242.92L360.62 246.43L372.9 251.69L388.69 258.71L400.97 264.85L415.88 272.75L404.48 271.87L393.95 268.36L378.16 261.34L366.76 255.2L357.11 247.31L346.58 240.29L336.93 233.27L328.16 228.01L318.51 224.5L307.11 220.99L294.83 220.11L284.3 219.24L288.69 229.76L301.85 234.15L311.5 237.66L322.9 240.29L338.69 245.55L351.85 250.82L363.25 256.08L375.53 261.34L386.06 264.85L400.09 270.11L413.25 275.38L423.78 279.76L407.99 286.78L397.46 285.9L384.3 281.52L367.64 272.75L350.97 263.1L342.2 257.83L332.55 251.69L323.78 246.43L312.37 242.04L299.21 237.66L287.81 231.52L277.29 227.13L265.88 223.62L280.79 239.41L291.32 245.55L304.48 252.57L315.88 257.83L329.92 264.85L343.95 266.61L354.48 267.48L371.14 270.11L390.44 273.62L401.85 276.26L411.5 280.64L419.39 287.66L415.88 298.18L404.48 296.43L386.06 292.04L371.14 286.78L362.37 280.64L352.72 274.5L343.07 269.24L333.43 263.97L321.14 257.83L307.99 249.94L294.83 243.8L286.06 238.54L276.41 235.9L258.86 228.01L265 238.54L279.04 244.68L296.58 249.94L307.99 253.45L318.51 259.59L336.06 270.11L347.46 275.38L356.23 280.64L343.07 275.38L322.9 259.59L308.86 249.06L295.71 238.54L287.81 232.4L300.97 233.27L310.62 235.9L322.02 239.41L347.46 251.69L356.23 256.96L370.27 264.85L352.72 259.59L340.44 255.2L322.02 246.43L312.37 241.17L299.21 235.9L310.62 252.57L319.39 260.47L331.67 271.87L339.57 282.4L329.92 279.76L311.5 270.99L293.07 259.59L280.79 252.57L273.78 243.8L289.57 253.45L304.48 268.36L293.95 271.87L283.43 267.48L272.9 262.22L265 256.08L274.65 250.82L287.81 256.08L298.34 262.22L307.99 271.87L272.9 256.96L274.65 244.68L286.06 242.92L297.46 247.31L307.99 261.34L291.32 263.97L282.55 257.83L278.16 246.43L285.18 237.66L295.71 236.78L303.6 246.43L293.95 249.94L280.79 245.55L273.78 235.9L286.93 225.38L298.34 226.26L312.37 236.78L321.14 249.06L323.78 258.71L319.39 275.38L304.48 278.01L293.07 270.99L287.81 262.22L296.58 251.69L312.37 251.69L323.78 255.2L337.81 263.97L358.86 279.76L364.13 289.41L353.6 295.55L342.2 291.17L331.67 284.15L324.65 275.38L327.29 265.73L336.93 262.22L350.09 265.73L359.74 270.11L367.64 278.89L368.51 289.41L350.97 286.78L341.32 278.01L346.58 265.73L363.25 262.22L375.53 269.24L400.09 288.54L409.74 300.82L393.95 305.2L377.29 290.29L377.29 276.26L392.2 270.99L414.13 282.4L422.02 295.55L409.74 299.94L396.58 291.17L395.71 278.89L408.86 282.4L415.88 290.29L422.9 304.33L413.25 311.34L399.21 299.06L398.34 285.9L411.5 279.76L428.16 284.15L436.93 294.68L433.43 306.08L415.88 302.57L406.23 296.43L417.64 295.55L428.16 305.2L433.43 313.97L416.76 314.85L405.36 305.2L417.64 298.18L429.92 306.96L437.81 317.48L431.67 328.01L424.65 320.11L447.46 353.45L435.18 349.06L427.29 342.92L421.14 335.03L417.64 324.5L427.29 316.61L436.06 321.87L444.83 328.01L435.18 339.41L422.9 332.4L414.13 322.75L412.37 310.47L428.16 313.1L438.69 327.13L428.16 329.76L413.25 318.36L407.99 306.96L408.86 292.92L425.53 299.94L438.69 321.87L436.06 332.4L417.64 325.38L407.99 317.48L410.62 306.08L427.29 311.34L445.71 335.03L448.34 347.31L434.3 342.04L440.44 333.27L450.97 342.92L460.62 359.59L448.34 359.59L438.69 351.69L436.06 341.17L450.97 344.68L463.25 357.83L450.97 362.22L439.57 355.2L457.99 360.47L464.13 375.38L450.09 374.5L443.95 358.71L461.5 359.59L472.02 372.75L464.13 379.76L450.09 371.87L444.83 363.1L461.5 366.61L473.78 382.4L460.62 385.03L447.46 372.75L446.58 362.22L458.86 352.57L470.27 356.96L475.53 366.61L478.16 380.64L473.78 391.17L451.85 386.78L443.95 379.76L456.23 380.64L462.37 388.54L469.39 399.94L465 409.59L447.46 401.69L446.58 389.41L457.11 385.9L469.39 389.41L479.04 398.18L481.67 407.83L457.99 393.8L473.78 389.41L483.43 399.06L487.81 410.47L475.53 406.96L469.39 399.06L471.14 388.54L482.55 393.8L488.69 402.57L476.41 402.57L469.39 391.17L480.79 381.52L491.32 393.8L482.55 399.06L472.02 389.41L474.65 377.13L487.81 378.01L495.71 385.9L498.34 396.43L486.93 397.31L476.41 391.17L484.3 399.06L491.32 408.71L486.93 399.06L496.58 406.08L487.81 400.82L499.21 404.33L488.69 401.69L499.21 407.83L498.34 397.31L507.99 404.33L502.72 413.97L492.2 412.22L484.3 418.36L473.78 413.97L479.04 422.75L454.48 427.13L462.37 433.27L451.85 434.15L445.71 443.8L432.55 439.41L426.41 448.18L412.37 443.8L400.09 444.68L409.74 451.69L399.21 454.33L387.81 457.83L391.32 448.18L402.72 450.82L411.5 457.83L417.64 449.94L412.37 459.59L400.09 465.73L388.69 466.61L380.79 456.08L386.06 447.31L401.85 446.43L389.57 444.68L381.67 432.4L388.69 424.5L396.58 437.66L382.55 432.4L372.02 416.61L383.43 418.36L385.18 432.4L370.27 424.5L365 410.47L365.88 398.18L377.29 400.82L381.67 410.47L375.53 418.36L360.62 411.34L354.48 398.18L361.5 389.41L367.64 399.06L351.85 395.55L338.69 380.64L332.55 368.36L339.57 377.13L329.04 378.01L329.04 365.73L340.44 365.73L349.21 370.99L336.06 373.62L328.16 365.73L323.78 352.57L315.88 346.43L313.25 336.78L325.53 345.55L307.99 341.17L302.72 328.89L315 328.89L301.85 328.89L296.58 320.11L289.57 307.83L301.85 305.2L286.93 299.06L274.65 280.64L291.32 281.52L281.67 278.89L295.71 276.26L303.6 282.4L307.11 292.92L296.58 292.92L290.44 285.03L307.11 283.27L315 290.29L305.36 298.18L296.58 292.92L298.34 281.52L312.37 285.9L317.64 299.06L299.21 300.82L306.23 292.92L314.13 302.57L300.97 308.71L290.44 298.18L299.21 286.78L313.25 291.17L318.51 301.69L300.97 293.8L295.71 283.27L305.36 280.64L317.64 282.4L327.29 289.41L332.55 300.82L321.14 298.18L310.62 292.04L314.13 278.01L326.41 279.76L339.57 289.41L344.83 299.06L325.53 294.68L321.14 284.15L334.3 282.4L365 299.06L350.97 299.06L339.57 286.78L373.78 309.59L360.62 306.08L350.09 296.43L359.74 291.17L381.67 297.31L392.2 302.57L401.85 312.22L383.43 306.08L370.27 296.43L365.88 285.9L382.55 290.29L391.32 296.43L401.85 306.08L389.57 306.96L399.21 312.22L407.11 329.76L391.32 330.64L379.04 322.75L374.65 311.34L393.07 315.73L403.6 325.38L416.76 339.41L424.65 348.18L406.23 335.03L394.83 322.75L392.2 312.22L409.74 320.11L419.39 332.4L424.65 342.04L406.23 339.41L392.2 323.62L385.18 310.47L392.2 301.69L405.36 307.83L413.25 316.61L422.02 327.13L434.3 354.33L411.5 344.68L418.51 336.78L431.67 349.06L438.69 363.1L424.65 364.85L413.25 351.69L431.67 356.96L441.32 370.11L453.6 397.31L439.57 392.04L432.55 383.27L426.41 372.75L437.81 370.11L455.36 396.43L451.85 406.08L442.2 399.94L435.18 392.04L447.46 392.04L455.36 399.94L454.48 410.47L444.83 406.08L460.62 410.47L441.32 391.17L450.97 387.66L459.74 402.57L452.72 412.22L436.93 400.82L450.09 405.2L454.48 415.73L439.57 413.97L450.97 416.61L443.95 425.38L431.67 413.97L433.43 402.57L451.85 406.08L456.23 419.24L439.57 414.85L439.57 398.18L454.48 400.82L457.11 410.47L441.32 415.73L431.67 406.96L446.58 406.96L453.6 415.73L450.09 425.38L429.04 427.13L419.39 413.1L434.3 416.61L439.57 425.38L432.55 434.15L419.39 430.64L410.62 421.87L426.41 423.62L434.3 434.15L423.78 442.04L413.25 437.66L406.23 429.76L413.25 419.24L426.41 427.13L417.64 433.27L408.86 426.26L422.9 432.4L415 438.54L402.72 429.76L394.83 414.85L407.11 420.11L402.72 431.52L392.2 426.26L383.43 418.36L378.16 409.59L397.46 418.36L393.95 429.76L383.43 424.5L374.65 412.22L370.27 399.94L380.79 393.8L390.44 398.18L398.34 407.83L386.06 406.96L375.53 399.94L372.9 389.41L390.44 385.03L400.09 393.8L401.85 406.08L385.18 406.08L373.78 395.55L386.06 387.66L396.58 392.04L411.5 406.08L392.2 405.2L386.93 392.04L398.34 388.54L417.64 397.31L422.02 408.71L399.21 400.82L392.2 388.54L411.5 388.54L423.78 400.82L421.14 416.61L394.83 400.82L387.81 390.29L427.29 400.82L407.11 398.18L393.07 389.41L387.81 379.76L409.74 383.27L427.29 398.18L432.55 410.47L422.02 406.08L399.21 390.29L390.44 378.89L413.25 381.52L428.16 396.43L399.21 380.64L387.81 366.61L404.48 365.73L418.51 375.38L429.92 390.29L417.64 383.27L404.48 371.87L393.07 357.83L403.6 351.69L421.14 360.47L434.3 373.62L434.3 385.9L423.78 382.4L393.95 360.47L390.44 349.06L406.23 354.33L428.16 371.87L438.69 387.66L409.74 374.5L394.83 360.47L388.69 348.18L407.11 353.45L427.29 373.62L432.55 384.15L414.13 374.5L389.57 350.82L377.29 335.03L369.39 320.11L393.07 328.01L409.74 342.04L415.88 350.82L400.09 340.29L379.04 327.13L372.9 318.36L385.18 319.24L399.21 334.15L408.86 349.94L394.83 349.94L379.04 338.54L369.39 328.01L365.88 317.48L386.06 321.87L398.34 335.03L405.36 350.82L380.79 339.41L358.86 320.11L350.09 308.71L341.32 294.68L365 308.71L380.79 327.13L389.57 340.29L370.27 329.76L345.71 309.59L338.69 294.68L351.85 300.82L368.51 317.48L383.43 336.78L386.93 349.94L359.74 334.15L341.32 319.24L336.06 305.2L346.58 301.69L359.74 310.47L383.43 340.29L389.57 358.71L378.16 355.2L351.85 335.03L335.18 318.36L327.29 307.83L343.07 310.47L363.25 334.15L373.78 351.69L374.65 363.1L348.34 344.68L329.04 323.62L334.3 313.1L351.85 326.26L367.64 343.8L377.29 356.08L379.92 372.75L350.97 353.45L333.43 332.4L340.44 323.62L350.97 330.64L365 347.31L378.16 365.73L390.44 384.15L396.58 395.55L385.18 386.78L367.64 370.11L358.86 360.47L353.6 349.94L364.13 349.94L374.65 361.34L383.43 377.13L379.92 387.66L369.39 382.4L350.97 363.1L345.71 352.57L342.2 340.29L357.11 347.31L364.13 356.08L372.9 370.11L372.02 382.4L346.58 362.22L337.81 349.94L357.99 369.24L364.13 380.64L343.95 373.62L334.3 357.83L347.46 354.33L361.5 367.48L368.51 383.27L357.99 385.03L342.2 370.11L335.18 362.22L344.83 359.59L353.6 370.99L359.74 382.4L343.95 373.62L327.29 356.08L322.02 344.68L344.83 357.83L322.9 343.8L316.76 335.03L313.25 325.38L327.29 334.15L339.57 350.82L315.88 335.03L307.11 319.24L326.41 325.38L322.9 335.03L308.86 323.62L298.34 307.83L312.37 304.33L325.53 315.73L308.86 307.83L332.55 315.73L313.25 300.82L340.44 304.33L313.25 302.57L326.41 306.08L322.02 326.26L308.86 311.34L305.36 301.69L329.04 297.31L342.2 305.2L353.6 319.24L325.53 311.34L310.62 306.08L325.53 316.61L330.79 330.64L320.27 327.13L309.74 318.36L301.85 299.06L307.99 284.15L329.92 283.27L345.71 289.41L361.5 313.97L323.78 299.94L307.99 284.15L336.93 300.82L355.36 323.62L360.62 339.41L358.86 349.94L333.43 341.17L317.64 327.13L332.55 326.26L348.34 340.29L356.23 352.57L344.83 341.17L332.55 323.62L328.16 311.34L346.58 316.61L357.99 330.64L350.09 323.62L368.51 331.52L376.41 347.31L389.57 366.61L415.88 389.41L459.74 421.87L479.04 436.78L453.6 413.97L435.18 393.8L422.9 378.89L413.25 364.85L387.81 335.9L373.78 320.99L365 312.22L373.78 324.5L390.44 344.68L414.13 372.75L401.85 364.85L384.3 342.04L366.76 316.61L360.62 300.82L376.41 307.83L393.07 325.38L408.86 345.55L394.83 334.15L371.14 306.08L357.99 286.78L350.09 269.24L372.9 274.5L390.44 289.41L377.29 285.9L361.5 269.24L355.36 253.45L372.02 249.06L388.69 255.2L401.85 264.85L386.06 256.08L371.14 243.8L370.27 233.27L361.5 226.26L352.72 217.48L362.37 222.75L370.27 241.17L358.86 241.17L342.2 234.15L357.11 248.18L346.58 240.29L343.95 228.01L355.36 228.01L368.51 234.15L360.62 225.38L372.9 228.89" id="c3XheIN1w8"></path><path d="M525.53 585.03L531.67 592.92L521.14 588.54L519.39 578.01L529.92 576.26L539.57 579.76L543.95 589.41L551.85 595.55L542.2 592.04L548.34 599.94L546.58 588.54L554.48 594.68L550.97 604.33L550.09 614.85L551.85 625.38L554.48 635.03L555.36 624.5L554.48 613.97L555.36 624.5L551.85 610.47L550.97 599.06L547.46 588.54L546.58 599.06L548.34 609.59L550.97 619.24L542.2 612.22L539.57 602.57L543.07 614.85L532.55 612.22L526.41 604.33L536.06 612.22L545.71 624.5L536.06 620.11L528.16 613.1L522.9 603.45L518.51 593.8L528.16 599.06L536.93 604.33L529.92 595.55L522.02 589.41L528.16 598.18L518.51 595.55L514.13 585.9L517.64 595.55L509.74 589.41L509.74 578.89L512.37 569.24L513.25 556.96L516.76 568.36L518.51 579.76L511.5 571.87L522.9 575.38L515 568.36L524.65 570.99L529.04 580.64L522.02 572.75L516.76 563.97L528.16 569.24L534.3 579.76L523.78 570.99L534.3 573.62L540.44 582.4L529.04 576.26L536.93 584.15L541.32 594.68L530.79 588.54L540.44 591.17L530.79 593.8L523.78 585.9L529.92 594.68L536.06 603.45L542.2 614.85L530.79 614.85L523.78 605.2L532.55 613.1L540.44 620.99L541.32 606.96L536.93 596.43L532.55 586.78L528.16 576.26L523.78 585.9L527.29 596.43L519.39 589.41L515.88 579.76L522.02 587.66L515.88 578.01L514.13 566.61L515.88 555.2L525.53 559.59L530.79 569.24L534.3 579.76L540.44 588.54L550.09 592.04L552.72 581.52L553.6 592.92L550.97 603.45L549.21 614.85L550.09 625.38L541.32 618.36L544.83 628.01L555.36 632.4L565 628.01L560.62 618.36L555.36 608.71L552.72 597.31L546.58 605.2L536.93 602.57L546.58 606.96L539.57 595.55L534.3 584.15L541.32 595.55L544.83 605.2L549.21 615.73L539.57 608.71L531.67 599.94L523.78 592.04L522.9 579.76L521.14 568.36L518.51 558.71" id="d5OTvcNsVK"></path><path d="M402.72 175.38L407.11 185.03L411.5 195.55L416.76 204.33L422.9 212.22L428.16 220.99L433.43 229.76L439.57 237.66L443.07 247.31L450.09 256.08L454.48 266.61L460.62 275.38L463.25 285.03L466.76 295.55L471.14 305.2L474.65 314.85L479.92 323.62L485.18 332.4L490.44 342.04L493.95 351.69L500.09 363.1L504.48 372.75L510.62 380.64L514.13 390.29L514.13 401.69L507.11 393.8L505.36 383.27L502.72 373.62L499.21 363.97L493.95 353.45L489.57 343.8L486.06 334.15L479.92 325.38L474.65 315.73L469.39 306.08L465 296.43L458.86 287.66L455.36 278.01L450.97 268.36L445.71 259.59L441.32 249.06L433.43 240.29L428.16 230.64L422.02 220.99L419.39 211.34L415.88 201.69L410.62 192.92L407.11 183.27L400.09 175.38L391.32 182.4L401.85 185.03L393.07 190.29L403.6 191.17L395.71 198.18L406.23 201.69L415 195.55L407.11 189.41L407.11 199.94" id="hIdTL7El"></path><path d="M326.41 73.62L337.81 79.76L327.29 79.76L320.27 71.87L327.29 62.22L337.81 61.34L327.29 62.22L333.43 54.33L344.83 57.83L335.18 55.2L343.95 49.06L354.48 49.94L344.83 53.45L349.21 64.85L347.46 75.38L343.95 85.9L336.06 92.92L325.53 92.92L315 84.15L315 73.62L327.29 64.85L337.81 61.34L350.09 62.22L360.62 70.11L368.51 83.27L372.02 93.8L369.39 105.2L356.23 106.08L345.71 98.18L336.93 87.66L336.93 74.5L343.95 65.73L353.6 62.22L364.13 66.61L353.6 63.97L361.5 70.11L355.36 61.34L353.6 50.82L358.86 61.34L360.62 71.87L363.25 81.52L365.88 92.04L368.51 103.45L372.9 113.97L378.16 123.62L379.92 111.34L378.16 100.82L380.79 112.22L383.43 123.62L385.18 135.03L386.93 145.55L381.67 136.78L379.04 127.13L384.3 136.78L387.81 147.31L375.53 148.18L367.64 141.17L377.29 137.66L382.55 146.43L372.9 149.94L358.86 145.55L368.51 148.18L363.25 157.83L351.85 156.96L344.83 148.18L350.97 156.08L340.44 158.71L336.93 149.06L346.58 146.43L355.36 152.57L350.97 162.22L340.44 163.1L341.32 149.94L349.21 142.92L358.86 139.41L369.39 138.54L365.88 148.18L356.23 152.57L345.71 156.08L335.18 158.71L325.53 163.1L314.13 168.36L304.48 171.87L294.83 177.13L283.43 178.89L272.9 180.64L262.37 180.64L252.72 184.15L243.07 186.78L232.55 185.03L229.04 175.38L225.53 165.73L220.27 156.08L215 146.43L207.11 138.54L198.34 132.4L190.44 126.26L184.3 117.48L183.43 106.96L188.69 97.31L195.71 89.41L204.48 84.15L214.13 80.64L225.53 78.01L236.06 75.38L246.58 73.62L257.11 72.75L266.76 70.11L277.29 68.36L287.81 63.97L297.46 59.59L306.23 54.33L315.88 49.94L326.41 48.18L336.93 50.82L342.2 59.59L346.58 70.11L347.46 81.52L351.85 91.17L357.11 99.94L364.13 108.71L353.6 102.57L350.09 85.03L345.71 75.38L340.44 66.61L315.88 63.97L305.36 67.48L295.71 70.99L285.18 73.62L275.53 76.26L263.25 78.89L252.72 81.52L241.32 84.15L231.67 86.78L222.02 90.29L210.62 94.68L200.97 99.06L202.72 86.78L210.62 79.76L221.14 78.01L231.67 78.01L242.2 78.01L251.85 75.38L265 74.5L277.29 71.87L287.81 70.11L300.97 67.48L311.5 64.85L321.14 59.59L329.92 54.33L340.44 49.94L331.67 43.8L316.76 47.31L304.48 49.06L293.07 50.82L281.67 50.82L272.02 54.33L262.37 57.83L252.72 61.34L243.07 66.61L234.3 71.87L222.9 73.62L213.25 76.26L202.72 78.01L193.07 82.4L186.93 90.29L178.16 98.18L187.81 103.45L194.83 95.55L201.85 86.78L213.25 81.52L223.78 78.01L233.43 75.38L247.46 71.87L257.11 68.36L266.76 61.34L276.41 54.33L286.06 49.94L297.46 50.82L288.69 57.83L278.16 60.47L265.88 61.34L255.36 61.34L245.71 63.97L254.48 70.11L265.88 71.87L276.41 67.48L286.06 63.1L298.34 57.83L309.74 56.96L321.14 55.2L330.79 51.69L341.32 47.31L349.21 53.45L352.72 63.1L354.48 74.5L356.23 85.9L360.62 95.55L365.88 105.2L365 94.68L362.37 83.27L368.51 92.92L371.14 103.45L372.9 113.97L377.29 123.62L383.43 131.52L388.69 141.17L388.69 151.69L378.16 155.2L367.64 152.57L357.99 146.43L356.23 135.9L361.5 126.26L368.51 117.48L367.64 106.08L373.78 117.48L374.65 128.01L372.02 137.66L360.62 144.68L350.97 149.94L341.32 152.57L339.57 163.1L329.92 166.61L319.39 167.48L310.62 172.75L300.09 174.5L289.57 176.26L279.04 178.89L271.14 186.78L260.62 190.29L250.97 186.78L243.07 192.92L232.55 192.04L226.41 183.27L221.14 174.5L216.76 164.85L212.37 154.33L207.99 144.68L199.21 138.54L203.6 148.18L209.74 156.08L217.64 162.22L215 143.8L203.6 124.5L199.21 114.85L194.83 105.2L188.69 113.97L194.83 122.75L192.2 112.22L190.44 101.69L194.83 92.04L205.36 90.29L211.5 99.06L210.62 109.59L209.74 120.99L202.72 112.22L200.97 100.82L206.23 92.04L215.88 88.54L226.41 86.78L236.93 86.78L250.09 85.9L261.5 84.15L272.02 82.4L283.43 78.89L296.58 72.75L306.23 70.11L318.51 70.11L329.04 78.01L331.67 87.66L320.27 87.66L309.74 84.15L300.09 78.01L302.72 68.36L314.13 66.61L323.78 69.24L333.43 72.75L341.32 82.4L341.32 92.92L330.79 95.55L314.13 92.92L300.97 85.03L294.83 74.5L308.86 60.47L320.27 57.83L332.55 57.83L343.95 62.22L343.07 99.94L329.04 97.31L315 91.17L305.36 85.03L298.34 76.26L307.11 67.48L319.39 67.48L334.3 74.5L343.07 84.15L346.58 93.8L343.95 104.33L336.06 111.34L325.53 112.22L318.51 103.45L321.14 93.8L331.67 91.17L341.32 94.68L350.09 101.69L356.23 110.47L356.23 120.99L346.58 127.13L328.16 122.75L321.14 113.97L319.39 103.45L329.04 96.43L340.44 95.55L353.6 99.06L360.62 107.83L362.37 118.36L361.5 128.89L351.85 134.15L340.44 134.15L332.55 128.01L329.92 118.36L337.81 111.34L354.48 110.47L369.39 115.73L374.65 124.5L373.78 135.03L364.13 141.17L350.97 139.41L340.44 135.03L334.3 127.13L335.18 116.61L348.34 113.1L360.62 115.73L365 126.26L356.23 134.15L344.83 134.15L335.18 129.76L332.55 119.24L343.07 114.85L354.48 116.61L362.37 125.38L364.13 136.78L358.86 145.55L345.71 146.43L335.18 142.92L328.16 135.03L328.16 124.5L336.93 115.73L354.48 115.73L364.13 125.38L358.86 137.66L345.71 138.54L336.93 130.64L336.06 120.11L348.34 113.1L360.62 113.1L372.02 113.1L378.16 120.99L373.78 134.15L361.5 141.17L349.21 142.04L336.06 134.15L339.57 123.62L350.09 123.62L359.74 128.89L365 140.29L357.99 152.57L346.58 155.2L333.43 153.45L321.14 142.92L315 131.52L324.65 128.89L336.06 135.03L334.3 145.55L322.9 146.43L312.37 143.8L321.14 135.9L327.29 144.68L316.76 152.57L301.85 150.82L295.71 142.04L305.36 138.54L315.88 139.41L325.53 146.43L327.29 156.96L310.62 167.48L293.07 157.83L321.14 155.2L313.25 163.1L300.97 163.97L288.69 156.08L292.2 145.55L303.6 146.43L308.86 156.08L305.36 167.48L293.95 171.87L283.43 170.11L269.39 167.48L268.51 156.96L279.92 158.71L285.18 168.36L279.04 178.89L266.76 178.89L259.74 170.11L265 158.71L279.04 152.57L290.44 151.69L300.97 157.83L298.34 168.36L286.93 174.5L272.9 175.38L263.25 169.24L265 158.71L276.41 153.45L286.93 156.08L286.93 167.48L273.78 172.75L261.5 170.11L254.48 160.47L265 155.2L274.65 161.34L278.16 170.99L267.64 177.13L257.11 178.01L250.09 170.11L261.5 169.24L264.13 181.52L253.6 185.03L241.32 181.52L234.3 173.62L243.07 168.36L236.93 178.01L224.65 170.99L222.02 160.47L224.65 149.94L238.69 150.82L246.58 159.59L246.58 170.11L237.81 178.01L228.16 171.87L229.04 161.34L240.44 156.08L250.09 158.71L257.11 170.11L251.85 180.64L237.81 184.15L224.65 174.5L221.14 164.85L226.41 154.33L241.32 154.33L250.97 158.71L255.36 168.36L240.44 169.24L228.16 161.34L223.78 149.06L225.53 138.54L239.57 135.9L247.46 147.31L239.57 154.33L227.29 152.57L220.27 143.8L219.39 131.52L227.29 121.87L242.2 125.38L246.58 135.03L236.93 140.29L225.53 138.54L219.39 130.64L215 119.24L231.67 115.73L242.2 124.5L240.44 135.9L225.53 140.29L216.76 135.03L211.5 123.62L222.9 117.48L233.43 126.26L232.55 136.78L222.02 137.66L209.74 132.4L205.36 120.99L215.88 112.22L232.55 117.48L238.69 126.26L235.18 136.78L225.53 139.41L214.13 136.78L226.41 136.78L235.18 145.55L245.71 158.71L251.85 167.48L255.36 178.01L241.32 170.99L231.67 163.1L224.65 152.57L217.64 138.54L215.88 127.13L229.92 130.64L239.57 142.92L244.83 156.08L231.67 158.71L223.78 151.69L215 139.41L224.65 135.03L239.57 154.33L231.67 145.55L221.14 133.27L215 111.34L226.41 114.85L215.88 114.85L213.25 101.69L224.65 99.06L229.92 112.22L220.27 116.61L212.37 106.96L212.37 94.68L222.02 92.04L232.55 96.43L241.32 106.08L234.3 113.97L222.02 107.83L217.64 98.18L222.02 88.54L239.57 91.17L247.46 101.69L244.83 112.22L233.43 116.61L222.9 113.1L221.14 99.94L235.18 91.17L248.34 91.17L259.74 98.18L249.21 104.33L239.57 98.18L241.32 87.66L253.6 89.41L243.95 92.92L254.48 85.9L268.51 88.54L273.78 97.31L261.5 99.94L252.72 93.8L260.62 85.9L273.78 89.41L266.76 98.18L258.86 92.04L264.13 83.27L275.53 81.52L286.06 85.9L293.07 94.68L280.79 93.8L278.16 82.4L288.69 77.13L302.72 78.01L308.86 86.78L296.58 86.78L288.69 78.01L295.71 70.11L306.23 69.24L316.76 77.13L314.13 90.29L300.97 88.54L303.6 78.89L316.76 85.03L324.65 99.06L322.9 109.59L300.97 105.2L293.07 94.68L293.07 83.27L303.6 79.76L314.13 79.76L325.53 83.27L333.43 91.17L334.3 101.69L311.5 96.43L303.6 87.66L306.23 78.01L321.14 82.4L331.67 99.06L321.14 106.96L309.74 99.06L304.48 87.66L319.39 96.43L329.04 109.59L333.43 121.87L329.92 131.52L310.62 115.73L303.6 106.08L315 104.33L326.41 113.1L311.5 113.97L304.48 104.33L314.13 112.22L322.02 122.75L305.36 120.11L317.64 120.99L320.27 130.64L305.36 135.9L290.44 130.64L283.43 120.99L294.83 120.11L303.6 128.89L307.11 141.17L294.83 146.43L284.3 141.17L276.41 132.4L279.04 121.87L290.44 114.85L311.5 120.11L319.39 129.76L314.13 139.41L297.46 139.41L286.93 134.15L283.43 123.62L289.57 113.1L301.85 109.59L313.25 110.47L325.53 123.62L326.41 135.9L313.25 142.04L302.72 140.29L292.2 136.78L281.67 128.89L280.79 117.48L292.2 117.48L306.23 127.13L307.11 138.54L286.93 139.41L279.92 131.52L282.55 120.99L292.2 117.48L304.48 128.89L301.85 142.04L266.76 142.04L281.67 150.82L265 149.06L255.36 140.29L266.76 133.27L274.65 140.29L265 149.06L257.11 142.04L264.13 133.27L274.65 132.4L286.06 142.04L282.55 153.45L268.51 157.83L257.99 157.83L246.58 151.69L244.83 141.17L253.6 135.03L264.13 145.55L256.23 154.33L245.71 153.45L237.81 141.17L244.83 131.52L259.74 138.54L257.11 149.94L240.44 147.31L233.43 133.27L236.93 123.62L250.97 118.36L257.11 128.89L244.83 132.4L235.18 126.26L235.18 113.1L247.46 108.71L257.99 113.97L261.5 125.38L251.85 133.27L240.44 129.76L232.55 123.62L231.67 111.34L243.95 107.83L257.99 116.61L263.25 129.76L249.21 130.64L236.93 120.11L236.93 108.71L246.58 103.45L258.86 109.59L268.51 125.38L254.48 128.01L243.95 120.99L245.71 110.47L256.23 105.2L266.76 106.08L279.92 113.1L286.06 120.99L272.9 123.62L260.62 120.11L257.11 110.47L271.14 101.69L289.57 111.34L293.95 121.87L276.41 122.75L264.13 117.48L260.62 105.2L276.41 99.94L286.06 106.96L293.07 118.36L281.67 125.38L269.39 121.87L261.5 113.1L263.25 102.57L276.41 93.8L286.93 93.8L297.46 100.82L299.21 111.34L279.92 112.22L270.27 106.08L273.78 95.55L290.44 94.68L304.48 103.45L307.11 113.97L292.2 113.97L277.29 107.83L275.53 96.43L286.06 94.68L299.21 99.94L308.86 113.97L299.21 120.99L276.41 118.36L266.76 113.97L272.9 105.2L286.93 107.83L280.79 99.94L298.34 99.06L289.57 108.71L300.09 119.24L315 130.64L322.9 137.66L311.5 132.4L292.2 123.62L283.43 117.48L302.72 108.71L317.64 107.83L329.92 97.31L334.3 82.4L348.34 78.01L356.23 89.41L363.25 99.94L366.76 112.22L369.39 128.01L374.65 138.54L385.18 136.78L392.2 144.68L401.85 142.04L390.44 139.41L380.79 145.55L391.32 144.68L376.41 144.68L362.37 144.68L350.97 145.55L337.81 144.68L322.9 140.29L311.5 133.27L300.09 122.75L290.44 125.38L280.79 128.89" id="bnpi1iNoz"></path></defs><g visibility="inherit"><g visibility="inherit"><g visibility="inherit"><g visibility="inherit"><g visibility="inherit"><g><use xlink:href="#a19Pz0dW8B" opacity="1" fill-opacity="0" stroke="#000000" stroke-width="6" stroke-opacity="1"></use></g></g><g visibility="inherit"><g><use xlink:href="#cqHn9tqbs" opacity="1" fill-opacity="0" stroke="#000000" stroke-width="6" stroke-opacity="1"></use></g></g><g visibility="inherit"><use xlink:href="#a1a375tMgc" opacity="1" fill="#000000" fill-opacity="0"></use><g><use xlink:href="#a1a375tMgc" opacity="1" fill-opacity="0" stroke="#000000" stroke-width="6" stroke-opacity="1"></use></g></g><g visibility="inherit"><g><use xlink:href="#bf4DlCriG" opacity="1" fill-opacity="0" stroke="#000000" stroke-width="6" stroke-opacity="1"></use></g></g></g><g visibility="inherit"><g><use xlink:href="#c3XheIN1w8" opacity="1" fill-opacity="0" stroke="#000000" stroke-width="6" stroke-opacity="1"></use></g></g><g visibility="inherit"><g><use xlink:href="#d5OTvcNsVK" opacity="1" fill-opacity="0" stroke="#000000" stroke-width="6" stroke-opacity="1"></use></g></g><g visibility="inherit"><g><use xlink:href="#hIdTL7El" opacity="1" fill-opacity="0" stroke="#000000" stroke-width="6" stroke-opacity="1"></use></g></g><g visibility="inherit"><g><use xlink:href="#bnpi1iNoz" opacity="1" fill-opacity="0" stroke="#000000" stroke-width="6" stroke-opacity="1"></use></g></g></g></g></g></svg>