<?xml version="1.0" encoding="UTF-8" standalone="no"?>
<!DOCTYPE svg PUBLIC "-//W3C//DTD SVG 1.1//EN" "http://www.w3.org/Graphics/SVG/1.1/DTD/svg11.dtd">
<svg version="1.1" xmlns="http://www.w3.org/2000/svg" xmlns:xlink="http://www.w3.org/1999/xlink" preserveAspectRatio="xMidYMid meet" viewBox="158.16186556927275 63.950617283950464 416.9547325102884 554.0740740740744" width="416.95" height="554.07"><defs><path d="M161.73 63.95L164.58 72.97L170.28 83.8L175.98 92.83L180.97 101.85L188.81 112.68L203.06 128.92L211.62 138.85L222.31 150.58L231.57 161.41L240.84 170.43L247.97 179.46L257.95 189.38L270.78 204.73L279.33 215.55L289.31 230.89L296.43 241.72L302.85 250.75L309.98 260.67L329.22 285.94L337.06 294.97L342.76 303.99L354.17 316.62L362.72 327.45L371.98 339.18L383.39 353.62L393.37 367.16L400.49 376.18L406.2 383.4L416.89 401.45L421.16 409.57L427.58 421.3L435.42 433.03L453.95 461.01L461.08 471.84L471.77 486.27L478.9 493.49L484.6 500.71L493.86 508.83L500.99 516.05L508.12 524.18L513.82 532.3L525.94 545.83L533.06 553.05L539.48 561.17L548.03 570.2L555.16 574.71L563.71 580.12L570.84 583.73L575.12 593.66" id="a1JHtjA7GA"></path><path d="M571.55 72.97L562.29 72.97L554.45 73.88L543.76 74.78L530.93 79.29L517.38 83.8L508.83 87.41L498.14 92.83L488.16 98.24L468.92 110.88L459.65 118.09L448.25 128.92L436.84 139.75L423.3 154.19L409.05 168.63L399.78 180.36L389.8 189.38L380.54 200.21L366.28 214.65L359.16 222.77L349.18 236.31L343.48 243.53L337.06 257.06L327.79 272.41L322.81 280.53L309.98 300.38L304.99 309.4L299.29 320.23L290.73 334.67L283.6 349.11L277.19 360.84L271.49 372.57L266.5 384.3L261.51 395.13L255.81 407.77L250.11 420.4L247.25 430.33L244.4 441.15L241.55 451.08L235.85 463.71L230.86 475.45L225.87 487.18L222.31 498.01L220.17 510.64L217.32 523.27L214.47 532.3L210.9 544.93L206.63 553.05L200.93 562.08L195.22 570.2L188.81 579.22L182.4 586.44L175.98 595.46L167.43 606.29L158.16 618.02" id="a4Wkjt2aQ"></path></defs><g visibility="inherit"><g visibility="inherit"><g visibility="inherit"><g><use xlink:href="#a1JHtjA7GA" opacity="1" fill-opacity="0" stroke="#9f2222" stroke-width="60" stroke-opacity="1"></use></g></g><g visibility="inherit"><g><use xlink:href="#a4Wkjt2aQ" opacity="1" fill-opacity="0" stroke="#9f2222" stroke-width="60" stroke-opacity="1"></use></g></g></g></g></svg>