<?xml version="1.0" encoding="UTF-8" standalone="no"?>
<!DOCTYPE svg PUBLIC "-//W3C//DTD SVG 1.1//EN" "http://www.w3.org/Graphics/SVG/1.1/DTD/svg11.dtd">
<svg version="1.1" xmlns="http://www.w3.org/2000/svg" xmlns:xlink="http://www.w3.org/1999/xlink" preserveAspectRatio="xMidYMid meet" viewBox="0 0 800 800" width="800" height="800"><defs><path d="M188.1 84.69L188.1 96.25L188.1 112.02L188.75 124.63L188.75 137.24L188.75 150.9L189.41 164.57L189.41 179.28L189.41 190.84L189.41 205.56L189.41 218.17L189.41 230.78L189.41 245.5L190.06 258.11L190.71 271.77L191.36 285.44L192.02 299.1L192.67 310.66L193.32 324.33L194.63 339.04L196.59 354.81L197.24 366.37L197.89 378.98L197.89 393.69L197.89 407.36L199.2 421.02L199.85 435.74L199.85 447.3L199.85 462.01L199.85 473.57L200.51 488.29L201.16 501.95L201.81 517.72L201.81 532.43L201.81 543.99L201.81 556.6L201.81 568.17L201.16 580.78L200.51 594.44L201.16 608.11L201.81 619.67L201.81 634.38L201.16 645.94L199.85 657.5L199.2 671.17L197.24 682.73L197.89 697.44L200.51 709L204.42 718.46L205.73 731.08L212.91 735.28L220.75 736.33L228.59 734.23L235.77 733.18L242.95 731.08L250.79 728.97L257.97 728.97L265.81 727.92L272.99 727.92L280.83 727.92L288.01 728.97L295.19 731.08L302.38 731.08L310.86 731.08L319.35 734.23L327.19 738.43L336.33 740.54L345.47 745.79L352.66 747.89L359.84 746.84L367.02 744.74L375.51 741.59L382.7 740.54L390.53 737.38L397.71 737.38L405.55 736.33L414.04 733.18L421.22 731.08L429.71 728.97L437.55 726.87L446.04 725.82L455.18 724.77L464.32 724.77L476.73 723.72L485.22 721.62L495.01 719.52L507.42 719.52L517.21 719.52L524.4 717.41L532.23 718.46L543.33 722.67L553.13 725.82L564.23 728.97L573.37 731.08L580.56 732.13L588.39 731.08L596.88 731.08L604.72 728.97L606.68 716.36L607.33 702.7L607.33 687.98L607.98 674.32L609.94 661.71L609.94 648.04L611.25 633.33L613.21 621.77L613.86 608.11L613.86 596.54L613.86 582.88L613.86 570.27L612.55 556.6L610.59 534.53L606.68 497.75L606.68 486.19L606.68 473.57L606.68 458.86L606.68 445.19L606.68 432.58L606.68 418.92L606.68 407.36L606.02 390.54L606.02 378.98L606.02 366.37L606.02 351.65L605.37 339.04L605.37 325.38L605.37 312.76L605.37 299.1L605.37 287.54L605.37 275.98L605.37 259.16L605.37 247.6L605.37 234.99L604.72 223.43L604.72 204.51L604.72 192.95L604.06 180.33L603.41 167.72L603.41 153.01L603.41 136.19L603.41 122.53L603.41 110.96L604.72 98.35L606.02 86.79L607.98 75.23L607.98 63.67L604.72 53.16L597.53 52.11L590.35 52.11L582.52 53.16L575.33 56.31L568.15 56.31L560.31 57.36L552.48 57.36L543.99 55.26L536.15 54.21L528.97 53.16L521.13 53.16L511.99 53.16L504.81 53.16L496.97 55.26L488.48 56.31L479.99 57.36L472.81 57.36L461.71 57.36L453.87 57.36L446.04 59.46L436.89 61.57L427.1 62.62L419.92 63.67L412.73 64.72L403.59 66.82L394.45 67.87L387.27 69.97L379.43 69.97L369.64 72.08L361.8 73.13L352.66 73.13L345.47 73.13L336.98 73.13L329.8 72.08L322.62 71.03L312.17 71.03L303.68 69.97L291.27 68.92L283.44 68.92L276.26 68.92L265.15 66.82L242.95 59.46L233.81 57.36L226.63 55.26L218.14 55.26L205.08 55.26L197.89 57.36L192.02 64.72L188.1 75.23L186.14 86.79" id="bChwOUYXi"></path><path d="M253.88 303.37L264.97 293.45L278.26 279.26L286.3 267.8L294.64 254.09L302.83 241.5L310.87 230.03L318.92 218.57L326.96 207.1L336.6 195.84L347.69 185.92L358.77 176.01L369.86 166.09L382.55 156.38L396.83 146.89L409.67 136.06" id="jidwudjE"></path><path d="M376.04 144.67L389.41 152.48L399.93 159.85L409.12 166.44L419.81 172.68L426.07 179.41L433.66 186.92L444.19 194.29L451.87 201.24L460.71 210.09L469.82 217.25L477.41 224.76L485.09 231.7L491.26 239L500.19 247.29L509.21 255.01L519.73 262.38L528.75 270.11L536.43 277.05L547.04 283.86" id="a2lb2dkGof"></path><path d="M263.79 498.85L274.88 508.77L288.17 522.96L296.21 534.42L304.55 548.13L312.74 560.72L320.78 572.19L328.83 583.65L336.87 595.12L346.51 606.38L357.6 616.29L368.68 626.21L379.77 636.13L392.46 645.84L406.74 655.33L419.58 666.16" id="b1fdWb6wEk"></path><path d="M385.95 657.55L399.32 649.74L409.84 642.37L419.03 635.78L429.72 629.54L435.98 622.81L443.57 615.3L454.1 607.93L461.78 600.98L470.62 592.13L479.73 584.97L487.32 577.46L495 570.52L501.17 563.22L510.1 554.93L519.12 547.21L529.64 539.84L538.66 532.11L546.34 525.17L556.95 518.36" id="fCls43GDT"></path></defs><g visibility="inherit"><g visibility="inherit"><g visibility="inherit"><g><use xlink:href="#bChwOUYXi" opacity="1" fill-opacity="0" stroke="#000000" stroke-width="60" stroke-opacity="1"></use></g></g><g visibility="inherit"><g visibility="inherit"><g><use xlink:href="#jidwudjE" opacity="1" fill-opacity="0" stroke="#000000" stroke-width="60" stroke-opacity="1"></use></g></g><g visibility="inherit"><g><use xlink:href="#a2lb2dkGof" opacity="1" fill-opacity="0" stroke="#000000" stroke-width="60" stroke-opacity="1"></use></g></g></g><g visibility="inherit"><g visibility="inherit"><g><use xlink:href="#b1fdWb6wEk" opacity="1" fill-opacity="0" stroke="#000000" stroke-width="60" stroke-opacity="1"></use></g></g><g visibility="inherit"><g><use xlink:href="#fCls43GDT" opacity="1" fill-opacity="0" stroke="#000000" stroke-width="60" stroke-opacity="1"></use></g></g></g></g></g></svg>