<?xml version="1.0" encoding="UTF-8" standalone="no"?>
<!DOCTYPE svg PUBLIC "-//W3C//DTD SVG 1.1//EN" "http://www.w3.org/Graphics/SVG/1.1/DTD/svg11.dtd">
<svg version="1.1" xmlns="http://www.w3.org/2000/svg" xmlns:xlink="http://www.w3.org/1999/xlink" preserveAspectRatio="xMidYMid meet" viewBox="0 0 640 640" width="640" height="640"><defs><path d="M82.72 419.12L79.21 429.65L77.46 442.81L75.7 453.33L75.7 463.86L73.95 475.26L72.19 485.79L71.32 497.19L68.68 511.23L67.81 523.51L65.18 536.67L63.42 547.19L62.54 557.72L61.67 568.25L59.04 582.28L57.28 593.68L54.65 607.72L52.89 619.12L51.14 632.28L60.79 634.91L70.44 628.77L81.84 617.37L88.86 608.6L97.63 599.82L109.91 591.05L120.44 583.16L128.33 575.26L138.86 568.25L146.75 562.11L155.53 552.46L164.3 543.68L174.82 533.16L181.84 525.26L189.74 519.12L198.51 511.23L207.28 505.09L215.18 497.19L222.19 489.3L227.46 478.77L231.84 467.37L236.23 457.72L240.61 448.07L245 438.42L250.26 429.65L259.04 417.37L265.18 407.72L271.32 397.19L276.58 387.54L282.72 377.89L288.86 367.37L295 357.72L300.26 348.95L307.28 341.05L313.42 331.4L319.56 321.75L325.7 311.23L332.72 301.58L338.86 291.93L344.12 282.28L349.39 272.63L353.77 262.11L362.54 248.95L366.05 238.42L370.44 228.77L375.7 219.12L366.05 212.11L355.53 211.23L345 209.47L334.47 207.72L321.32 203.33L310.79 199.82L298.51 197.19L285.35 193.68L274.82 190.18L265.18 187.54L255.53 184.91L244.12 180.53L234.47 177.89L223.95 174.39L213.42 170.88L203.77 174.39L198.51 184.91L194.12 194.56L187.98 203.33L181.84 212.98L176.58 221.75L171.32 231.4L166.05 241.93L159.04 257.72L154.65 267.37L149.39 276.14L145.88 286.67L142.37 298.95L137.11 309.47L130.96 323.51L126.58 333.16L120.44 344.56L115.18 355.09L110.79 366.49L107.28 376.14L102.02 385.79L94.12 397.19L89.74 406.84L85.35 417.37" id="cJk14Zj1I"></path><path d="M64.3 580.53L73.95 572.63L80.96 564.74L89.74 555.96L102.02 549.82L104.65 559.47L105.53 570.88L102.89 581.4L102.02 591.93" id="b2okAAhU2"></path><path d="M96.75 406.84L104.65 412.98L115.18 417.37L124.82 420.88L135.35 424.39L145 430.53L154.65 436.67L166.05 442.81L178.33 448.07L188.86 451.58L198.51 456.84L208.16 460.35L217.81 463.86L227.46 466.49L231.84 456.84L237.11 448.07L241.49 438.42L246.75 428.77L252.89 420L259.91 412.11L267.81 404.21L273.95 396.32L280.96 388.42L287.98 380.53L294.12 372.63L299.39 363.86L305.53 355.09L309.04 345.44L314.3 335.79L319.56 325.26L323.07 314.74L327.46 305.09L330.96 294.56L336.23 285.79L341.49 277.02L346.75 268.25L352.02 259.47L357.28 250.7L363.42 242.81L366.93 233.16L370.44 223.51L364.3 213.86L354.65 211.23L345 208.6L335.35 205.09L324.82 202.46L315.18 198.95L304.65 197.19L295 194.56L285.35 191.05L274.82 189.3L265.18 185.79L254.65 184.04L244.12 183.16L232.72 181.4L222.19 182.28L216.05 191.05L211.67 200.7L207.28 210.35L203.77 220L198.51 234.04L192.37 244.56L188.86 254.21L184.47 263.86L180.96 274.39L175.7 284.04L171.32 294.56L164.3 304.21L158.16 312.11L152.02 321.75L146.75 330.53L140.61 339.3L136.23 348.95L130.96 359.47L127.46 370L123.07 379.65L116.93 388.42L110.79 397.19L105.53 405.96L95.88 402.46" id="b5Avv1fF9"></path><path d="M213.42 148.95L223.95 150.7L234.47 152.46L245 155.96L254.65 159.47L266.05 162.11L275.7 164.74L285.35 168.25L295.88 171.75L307.28 176.14L321.32 181.4L331.84 184.04L344.12 186.67L353.77 190.18L363.42 193.68L373.07 197.19L382.72 199.82L387.11 190.18L393.25 179.65L400.26 170.88L405.53 162.11L411.67 149.82L417.81 141.93L423.95 132.28L428.33 122.63L433.6 112.98L433.6 102.46L433.6 91.93L427.46 83.16L418.68 77.89L409.04 72.63L399.39 69.12L388.86 66.49L379.21 63.86L369.56 60.35L359.91 57.72L350.26 55.09L339.74 50.7L326.58 45.44L313.42 42.81L302.89 41.93L291.49 40.18L280.96 39.3L269.56 38.42L259.04 41.93L252.89 49.82L250.26 59.47L248.51 70.88L245 81.4L238.86 91.05L231.84 99.82L226.58 108.6L225.7 119.12L224.82 129.65L220.44 139.3" id="f1O2lkbukx"></path><path d="M231.84 189.3L220.44 191.05L226.58 181.4L236.23 178.77L229.21 187.54L239.74 191.05L250.26 194.56L239.74 195.44L229.21 198.95L239.74 197.19L252.02 197.19L237.98 201.58L225.7 204.21L214.3 205.96L223.95 198.95L233.6 193.68L221.32 196.32L233.6 195.44L224.82 201.58L236.23 199.82L224.82 205.96L216.05 212.11L222.19 200.7L228.33 191.93L217.81 195.44L210.79 205.96L209.04 217.37L219.56 214.74L210.79 223.51L204.65 232.28L195.88 246.32L188.86 256.84L199.39 249.82L208.16 237.54L215.18 228.77L221.32 219.12L227.46 208.6L220.44 220L214.3 228.77L210.79 238.42L219.56 228.77L224.82 218.25L231.84 205.09L221.32 212.11L212.54 221.75L204.65 234.04L196.75 244.56L188.86 255.09L182.72 262.98L193.25 253.33L203.77 241.93L217.81 226.14L232.72 207.72L240.61 195.44L235.35 204.21L226.58 215.61L220.44 226.14L213.42 239.3L205.53 251.58L200.26 262.98L194.12 277.89L203.77 267.37L213.42 255.96L221.32 244.56L229.21 233.16L232.72 222.63L223.95 229.65L218.68 239.3L210.79 249.82L202.89 262.11L195 274.39L187.11 286.67L180.96 295.44L175.7 305.96L180.96 294.56L190.61 280.53L199.39 269.12L208.16 257.72L215.18 248.07L204.65 256.84L196.75 267.37L191.49 276.14L186.23 284.91L191.49 276.14L199.39 265.61L205.53 256.84L209.91 245.44L200.26 251.58L194.12 259.47L187.98 267.37L196.75 259.47L193.25 269.12L187.11 277.02L180.96 286.67L180.09 298.07L174.82 307.72L166.05 317.37L158.16 325.26L167.81 316.49L175.7 308.6L166.05 317.37L158.16 325.26L166.05 312.11L173.07 302.46L175.7 291.93L167.81 298.95L165.18 308.6L159.91 317.37L170.44 315.61L165.18 327.89L157.28 334.91L165.18 327.89L173.07 321.75L166.05 333.16L153.77 343.68L145.88 351.58L156.4 344.56L145 354.21L128.33 366.49L137.98 355.96L162.54 324.39L154.65 330.53L144.12 339.3L152.02 330.53L159.91 324.39L154.65 336.67L149.39 345.44L143.25 354.21L134.47 364.74L147.63 367.37L145 379.65L134.47 392.81L145.88 387.54L154.65 382.28L145 388.42L135.35 393.68L137.98 383.16L145.88 377.02L153.77 368.25L142.37 374.39L130.96 379.65L137.11 367.37L126.58 375.26L137.11 377.02L132.72 388.42L123.07 397.19L115.18 404.21L128.33 398.07L119.56 405.96L122.19 396.32L112.54 401.58L123.95 395.44L123.07 406.84L137.98 398.95L134.47 408.6L145 403.33L137.11 412.98L148.51 411.23L141.49 422.63L157.28 421.75L152.89 431.4L163.42 424.39L159.91 434.04L172.19 428.77L183.6 425.26L178.33 435.79L170.44 443.68L180.96 440.18L191.49 436.67L190.61 447.19L202.02 441.93L211.67 438.42L206.4 448.95L219.56 447.19L230.96 441.05L224.82 451.58L232.72 444.56L222.19 455.09L224.82 445.44L216.93 439.3L206.4 444.56L220.44 434.04L229.21 428.77L221.32 435.79L211.67 441.93L224.82 434.91L233.6 429.65L225.7 438.42L238.86 431.4L225.7 439.3L233.6 431.4L246.75 423.51L252.02 414.74L260.79 406.84L270.44 399.82L261.67 405.96L268.68 395.44L252.89 405.09L244.12 410.35L252.89 402.46L264.3 393.68L274.82 384.91L280.96 376.14L286.23 366.49L278.33 372.63L265.18 384.04L257.28 391.05L263.42 382.28L273.07 371.75L280.96 363.86L286.23 355.09L274.82 366.49L287.11 351.58L295.88 336.67L287.98 344.56L299.39 327.89L309.91 314.74L317.81 305.09L307.28 318.25L301.14 327.89L310.79 319.12L326.58 302.46L299.39 327.89L310.79 313.86L321.32 302.46L330.09 291.93L334.47 280.53L325.7 286.67L333.6 272.63L340.61 263.86L331.84 270L326.58 278.77L337.11 264.74L345 257.72L336.23 265.61L344.12 253.33L349.39 244.56L353.77 234.91L361.67 227.89L353.77 235.79L359.04 226.14L347.63 227.02L353.77 214.74L343.25 221.75L329.21 219.12L332.72 208.6L322.19 212.11L308.16 210.35L295.88 207.72L287.11 202.46L273.07 203.33L262.54 202.46L252.02 200.7L258.16 190.18L266.93 196.32L280.09 200.7L286.23 208.6L303.77 210.35L316.93 212.11L327.46 212.11L317.81 205.09L294.12 201.58L282.72 200.7L271.32 197.19L260.79 195.44L249.39 193.68L238.86 191.93L247.63 199.82L264.3 199.82L252.89 203.33L243.25 206.84L227.46 213.86L237.11 205.96L246.75 201.58L257.28 197.19L247.63 208.6L237.98 215.61L252.02 205.96L261.67 202.46L245.88 212.11L237.11 217.37L229.21 225.26L239.74 220.88L259.04 214.74L245.88 217.37L230.96 222.63L222.19 227.89L235.35 220L253.77 212.11L264.3 207.72L251.14 211.23L234.47 218.25L217.81 227.02L203.77 237.54L222.19 234.04L232.72 228.77L245.88 223.51L258.16 218.25L269.56 211.23L279.21 205.09L288.86 201.58L281.84 211.23L272.19 216.49L260.79 221.75L252.02 227.02L242.37 231.4L233.6 237.54L224.82 244.56L216.05 250.7L207.28 255.96L222.19 251.58L247.63 239.3L259.91 231.4L278.33 217.37L287.98 212.98L298.51 207.72L295 217.37L282.72 225.26L273.07 229.65L262.54 232.28L252.02 236.67L242.37 241.05L231.84 245.44L222.19 250.7L234.47 252.46L246.75 248.07L259.91 240.18L271.32 230.53L280.09 221.75L290.61 215.61L300.26 212.11L310.79 211.23L309.04 222.63L297.63 227.02L282.72 231.4L269.56 235.79L257.28 241.05L245 245.44L228.33 250.7L218.68 253.33L209.91 258.6L223.95 261.23L239.74 254.21L249.39 248.07L258.16 241.93L269.56 234.91L278.33 229.65L288.86 225.26L298.51 219.12L309.04 215.61L303.77 227.89L292.37 231.4L274.82 238.42L264.3 241.05L252.89 244.56L240.61 249.82L224.82 256.84L212.54 262.98L197.63 270.88L209.04 270L219.56 266.49L235.35 259.47L246.75 253.33L256.4 245.44L266.93 238.42L276.58 231.4L285.35 226.14L295 222.63L306.4 219.12L318.68 218.25L329.21 217.37L324.82 227.89L311.67 232.28L302.02 235.79L290.61 238.42L274.82 243.68L261.67 248.95L250.26 254.21L237.98 259.47L227.46 262.98L213.42 268.25L200.26 273.51L189.74 277.89L205.53 284.91L216.05 284.04L229.21 279.65L245.88 270.88L262.54 261.23L271.32 255.96L280.96 249.82L289.74 244.56L301.14 240.18L314.3 235.79L325.7 229.65L336.23 225.26L347.63 221.75L332.72 237.54L322.19 243.68L309.04 250.7L297.63 255.96L283.6 262.98L269.56 264.74L259.04 265.61L242.37 268.25L223.07 271.75L211.67 274.39L202.02 278.77L194.12 285.79L197.63 296.32L209.04 294.56L227.46 290.18L242.37 284.91L251.14 278.77L260.79 272.63L270.44 267.37L280.09 262.11L292.37 255.96L305.53 248.07L318.68 241.93L327.46 236.67L337.11 234.04L354.65 226.14L348.51 236.67L334.47 242.81L316.93 248.07L305.53 251.58L295 257.72L277.46 268.25L266.05 273.51L257.28 278.77L270.44 273.51L290.61 257.72L304.65 247.19L317.81 236.67L325.7 230.53L312.54 231.4L302.89 234.04L291.49 237.54L266.05 249.82L257.28 255.09L243.25 262.98L260.79 257.72L273.07 253.33L291.49 244.56L301.14 239.3L314.3 234.04L302.89 250.7L294.12 258.6L281.84 270L273.95 280.53L283.6 277.89L302.02 269.12L320.44 257.72L332.72 250.7L339.74 241.93L323.95 251.58L309.04 266.49L319.56 270L330.09 265.61L340.61 260.35L348.51 254.21L338.86 248.95L325.7 254.21L315.18 260.35L305.53 270L340.61 255.09L338.86 242.81L327.46 241.05L316.05 245.44L305.53 259.47L322.19 262.11L330.96 255.96L335.35 244.56L328.33 235.79L317.81 234.91L309.91 244.56L319.56 248.07L332.72 243.68L339.74 234.04L326.58 223.51L315.18 224.39L301.14 234.91L292.37 247.19L289.74 256.84L294.12 273.51L309.04 276.14L320.44 269.12L325.7 260.35L316.93 249.82L301.14 249.82L289.74 253.33L275.7 262.11L254.65 277.89L249.39 287.54L259.91 293.68L271.32 289.3L281.84 282.28L288.86 273.51L286.23 263.86L276.58 260.35L263.42 263.86L253.77 268.25L245.88 277.02L245 287.54L262.54 284.91L272.19 276.14L266.93 263.86L250.26 260.35L237.98 267.37L213.42 286.67L203.77 298.95L219.56 303.33L236.23 288.42L236.23 274.39L221.32 269.12L199.39 280.53L191.49 293.68L203.77 298.07L216.93 289.3L217.81 277.02L204.65 280.53L197.63 288.42L190.61 302.46L200.26 309.47L214.3 297.19L215.18 284.04L202.02 277.89L185.35 282.28L176.58 292.81L180.09 304.21L197.63 300.7L207.28 294.56L195.88 293.68L185.35 303.33L180.09 312.11L196.75 312.98L208.16 303.33L195.88 296.32L183.6 305.09L175.7 315.61L181.84 326.14L188.86 318.25L166.05 351.58L178.33 347.19L186.23 341.05L192.37 333.16L195.88 322.63L186.23 314.74L177.46 320L168.68 326.14L178.33 337.54L190.61 330.53L199.39 320.88L201.14 308.6L185.35 311.23L174.82 325.26L185.35 327.89L200.26 316.49L205.53 305.09L204.65 291.05L187.98 298.07L174.82 320L177.46 330.53L195.88 323.51L205.53 315.61L202.89 304.21L186.23 309.47L167.81 333.16L165.18 345.44L179.21 340.18L173.07 331.4L162.54 341.05L152.89 357.72L165.18 357.72L174.82 349.82L177.46 339.3L162.54 342.81L150.26 355.96L162.54 360.35L173.95 353.33L155.53 358.6L149.39 373.51L163.42 372.63L169.56 356.84L152.02 357.72L141.49 370.88L149.39 377.89L163.42 370L168.68 361.23L152.02 364.74L139.74 380.53L152.89 383.16L166.05 370.88L166.93 360.35L154.65 350.7L143.25 355.09L137.98 364.74L135.35 378.77L139.74 389.3L161.67 384.91L169.56 377.89L157.28 378.77L151.14 386.67L144.12 398.07L148.51 407.72L166.05 399.82L166.93 387.54L156.4 384.04L144.12 387.54L134.47 396.32L131.84 405.96L155.53 391.93L139.74 387.54L130.09 397.19L125.7 408.6L137.98 405.09L144.12 397.19L142.37 386.67L130.96 391.93L124.82 400.7L137.11 400.7L144.12 389.3L132.72 379.65L122.19 391.93L130.96 397.19L141.49 387.54L138.86 375.26L125.7 376.14L117.81 384.04L115.18 394.56L126.58 395.44L137.11 389.3L129.21 397.19L122.19 406.84L126.58 397.19L116.93 404.21L125.7 398.95L114.3 402.46L124.82 399.82L114.3 405.96L115.18 395.44L105.53 402.46L110.79 412.11L121.32 410.35L129.21 416.49L139.74 412.11L134.47 420.88L159.04 425.26L151.14 431.4L161.67 432.28L167.81 441.93L180.96 437.54L187.11 446.32L201.14 441.93L213.42 442.81L203.77 449.82L214.3 452.46L225.7 455.96L222.19 446.32L210.79 448.95L202.02 455.96L195.88 448.07L201.14 457.72L213.42 463.86L224.82 464.74L232.72 454.21L227.46 445.44L211.67 444.56L223.95 442.81L231.84 430.53L224.82 422.63L216.93 435.79L230.96 430.53L241.49 414.74L230.09 416.49L228.33 430.53L243.25 422.63L248.51 408.6L247.63 396.32L236.23 398.95L231.84 408.6L237.98 416.49L252.89 409.47L259.04 396.32L252.02 387.54L245.88 397.19L261.67 393.68L274.82 378.77L280.96 366.49L273.95 375.26L284.47 376.14L284.47 363.86L273.07 363.86L264.3 369.12L277.46 371.75L285.35 363.86L289.74 350.7L297.63 344.56L300.26 334.91L287.98 343.68L305.53 339.3L310.79 327.02L298.51 327.02L311.67 327.02L316.93 318.25L323.95 305.96L311.67 303.33L326.58 297.19L338.86 278.77L322.19 279.65L331.84 277.02L317.81 274.39L309.91 280.53L306.4 291.05L316.93 291.05L323.07 283.16L306.4 281.4L298.51 288.42L308.16 296.32L316.93 291.05L315.18 279.65L301.14 284.04L295.88 297.19L314.3 298.95L307.28 291.05L299.39 300.7L312.54 306.84L323.07 296.32L314.3 284.91L300.26 289.3L295 299.82L312.54 291.93L317.81 281.4L308.16 278.77L295.88 280.53L286.23 287.54L280.96 298.95L292.37 296.32L302.89 290.18L299.39 276.14L287.11 277.89L273.95 287.54L268.68 297.19L287.98 292.81L292.37 282.28L279.21 280.53L248.51 297.19L262.54 297.19L273.95 284.91L239.74 307.72L252.89 304.21L263.42 294.56L253.77 289.3L231.84 295.44L221.32 300.7L211.67 310.35L230.09 304.21L243.25 294.56L247.63 284.04L230.96 288.42L222.19 294.56L211.67 304.21L223.95 305.09L214.3 310.35L206.4 327.89L222.19 328.77L234.47 320.88L238.86 309.47L220.44 313.86L209.91 323.51L196.75 337.54L188.86 346.32L207.28 333.16L218.68 320.88L221.32 310.35L203.77 318.25L194.12 330.53L188.86 340.18L207.28 337.54L221.32 321.75L228.33 308.6L221.32 299.82L208.16 305.96L200.26 314.74L191.49 325.26L179.21 352.46L202.02 342.81L195 334.91L181.84 347.19L174.82 361.23L188.86 362.98L200.26 349.82L181.84 355.09L172.19 368.25L159.91 395.44L173.95 390.18L180.96 381.4L187.11 370.88L175.7 368.25L158.16 394.56L161.67 404.21L171.32 398.07L178.33 390.18L166.05 390.18L158.16 398.07L159.04 408.6L168.68 404.21L152.89 408.6L172.19 389.3L162.54 385.79L153.77 400.7L160.79 410.35L176.58 398.95L163.42 403.33L159.04 413.86L173.95 412.11L162.54 414.74L169.56 423.51L181.84 412.11L180.09 400.7L161.67 404.21L157.28 417.37L173.95 412.98L173.95 396.32L159.04 398.95L156.4 408.6L172.19 413.86L181.84 405.09L166.93 405.09L159.91 413.86L163.42 423.51L184.47 425.26L194.12 411.23L179.21 414.74L173.95 423.51L180.96 432.28L194.12 428.77L202.89 420L187.11 421.75L179.21 432.28L189.74 440.18L200.26 435.79L207.28 427.89L200.26 417.37L187.11 425.26L195.88 431.4L204.65 424.39L190.61 430.53L198.51 436.67L210.79 427.89L218.68 412.98L206.4 418.25L210.79 429.65L221.32 424.39L230.09 416.49L235.35 407.72L216.05 416.49L219.56 427.89L230.09 422.63L238.86 410.35L243.25 398.07L232.72 391.93L223.07 396.32L215.18 405.96L227.46 405.09L237.98 398.07L240.61 387.54L223.07 383.16L213.42 391.93L211.67 404.21L228.33 404.21L239.74 393.68L227.46 385.79L216.93 390.18L202.02 404.21L221.32 403.33L226.58 390.18L215.18 386.67L195.88 395.44L191.49 406.84L214.3 398.95L221.32 386.67L202.02 386.67L189.74 398.95L192.37 414.74L218.68 398.95L225.7 388.42L186.23 398.95L206.4 396.32L220.44 387.54L225.7 377.89L203.77 381.4L186.23 396.32L180.96 408.6L191.49 404.21L214.3 388.42L223.07 377.02L200.26 379.65L185.35 394.56L214.3 378.77L225.7 364.74L209.04 363.86L195 373.51L183.6 388.42L195.88 381.4L209.04 370L220.44 355.96L209.91 349.82L192.37 358.6L179.21 371.75L179.21 384.04L189.74 380.53L219.56 358.6L223.07 347.19L207.28 352.46L185.35 370L174.82 385.79L203.77 372.63L218.68 358.6L224.82 346.32L206.4 351.58L186.23 371.75L180.96 382.28L199.39 372.63L223.95 348.95L236.23 333.16L244.12 318.25L220.44 326.14L203.77 340.18L197.63 348.95L213.42 338.42L234.47 325.26L240.61 316.49L228.33 317.37L214.3 332.28L204.65 348.07L218.68 348.07L234.47 336.67L244.12 326.14L247.63 315.61L227.46 320L215.18 333.16L208.16 348.95L232.72 337.54L254.65 318.25L263.42 306.84L272.19 292.81L248.51 306.84L232.72 325.26L223.95 338.42L243.25 327.89L267.81 307.72L274.82 292.81L261.67 298.95L245 315.61L230.09 334.91L226.58 348.07L253.77 332.28L272.19 317.37L277.46 303.33L266.93 299.82L253.77 308.6L230.09 338.42L223.95 356.84L235.35 353.33L261.67 333.16L278.33 316.49L286.23 305.96L270.44 308.6L250.26 332.28L239.74 349.82L238.86 361.23L265.18 342.81L284.47 321.75L279.21 311.23L261.67 324.39L245.88 341.93L236.23 354.21L233.6 370.88L262.54 351.58L280.09 330.53L273.07 321.75L262.54 328.77L248.51 345.44L235.35 363.86L223.07 382.28L216.93 393.68L228.33 384.91L245.88 368.25L254.65 358.6L259.91 348.07L249.39 348.07L238.86 359.47L230.09 375.26L233.6 385.79L244.12 380.53L262.54 361.23L267.81 350.7L271.32 338.42L256.4 345.44L249.39 354.21L240.61 368.25L241.49 380.53L266.93 360.35L275.7 348.07L255.53 367.37L249.39 378.77L269.56 371.75L279.21 355.96L266.05 352.46L252.02 365.61L245 381.4L255.53 383.16L271.32 368.25L278.33 360.35L268.68 357.72L259.91 369.12L253.77 380.53L269.56 371.75L286.23 354.21L291.49 342.81L268.68 355.96L290.61 341.93L296.75 333.16L300.26 323.51L286.23 332.28L273.95 348.95L297.63 333.16L306.4 317.37L287.11 323.51L290.61 333.16L304.65 321.75L315.18 305.96L301.14 302.46L287.98 313.86L304.65 305.96L280.96 313.86L300.26 298.95L273.07 302.46L300.26 300.7L287.11 304.21L291.49 324.39L304.65 309.47L308.16 299.82L284.47 295.44L271.32 303.33L259.91 317.37L287.98 309.47L302.89 304.21L287.98 314.74L282.72 328.77L293.25 325.26L303.77 316.49L311.67 297.19L305.53 282.28L283.6 281.4L267.81 287.54L252.02 312.11L289.74 298.07L305.53 282.28L276.58 298.95L258.16 321.75L252.89 337.54L254.65 348.07L280.09 339.3L295.88 325.26L280.96 324.39L265.18 338.42L257.28 350.7L268.68 339.3L280.96 321.75L285.35 309.47L266.93 314.74L255.53 328.77L263.42 321.75L245 329.65L237.11 345.44L223.95 364.74L197.63 387.54L153.77 420L134.47 434.91L159.91 412.11L178.33 391.93L190.61 377.02L200.26 362.98L225.7 334.04L239.74 319.12L248.51 310.35L239.74 322.63L223.07 342.81L199.39 370.88L211.67 362.98L229.21 340.18L246.75 314.74L252.89 298.95L237.11 305.96L220.44 323.51L204.65 343.68L218.68 332.28L242.37 304.21L255.53 284.91L263.42 267.37L240.61 272.63L223.07 287.54L236.23 284.04L252.02 267.37L258.16 251.58L241.49 247.19L224.82 253.33L211.67 262.98L227.46 254.21L242.37 241.93L243.25 231.4L252.02 224.39L260.79 215.61L251.14 220.88L243.25 239.3L254.65 239.3L271.32 232.28L256.4 246.32L266.93 238.42L269.56 226.14L258.16 226.14L245 232.28L252.89 223.51L240.61 227.02" id="a6TutF2gr"></path><path d="M87.98 583.16L81.84 591.05L92.37 586.67L94.12 576.14L83.6 574.39L73.95 577.89L69.56 587.54L61.67 593.68L71.32 590.18L65.18 598.07L66.93 586.67L59.04 592.81L62.54 602.46L63.42 612.98L61.67 623.51L59.04 633.16L58.16 622.63L59.04 612.11L58.16 622.63L61.67 608.6L62.54 597.19L66.05 586.67L66.93 597.19L65.18 607.72L62.54 617.37L71.32 610.35L73.95 600.7L70.44 612.98L80.96 610.35L87.11 602.46L77.46 610.35L67.81 622.63L77.46 618.25L85.35 611.23L90.61 601.58L95 591.93L85.35 597.19L76.58 602.46L83.6 593.68L91.49 587.54L85.35 596.32L95 593.68L99.39 584.04L95.88 593.68L103.77 587.54L103.77 577.02L101.14 567.37L100.26 555.09L96.75 566.49L95 577.89L102.02 570L90.61 573.51L98.51 566.49L88.86 569.12L84.47 578.77L91.49 570.88L96.75 562.11L85.35 567.37L79.21 577.89L89.74 569.12L79.21 571.75L73.07 580.53L84.47 574.39L76.58 582.28L72.19 592.81L82.72 586.67L73.07 589.3L82.72 591.93L89.74 584.04L83.6 592.81L77.46 601.58L71.32 612.98L82.72 612.98L89.74 603.33L80.96 611.23L73.07 619.12L72.19 605.09L76.58 594.56L80.96 584.91L85.35 574.39L89.74 584.04L86.23 594.56L94.12 587.54L97.63 577.89L91.49 585.79L97.63 576.14L99.39 564.74L97.63 553.33L87.98 557.72L82.72 567.37L79.21 577.89L73.07 586.67L63.42 590.18L60.79 579.65L59.91 591.05L62.54 601.58L64.3 612.98L63.42 623.51L72.19 616.49L68.68 626.14L58.16 630.53L48.51 626.14L52.89 616.49L58.16 606.84L60.79 595.44L66.93 603.33L76.58 600.7L66.93 605.09L73.95 593.68L79.21 582.28L72.19 593.68L68.68 603.33L64.3 613.86L73.95 606.84L81.84 598.07L89.74 590.18L90.61 577.89L92.37 566.49L95 556.84" id="c1BJmztVB2"></path><path d="M210.79 173.51L206.4 183.16L202.02 193.68L196.75 202.46L190.61 210.35L185.35 219.12L180.09 227.89L173.95 235.79L170.44 245.44L163.42 254.21L159.04 264.74L152.89 273.51L150.26 283.16L146.75 293.68L142.37 303.33L138.86 312.98L133.6 321.75L128.33 330.53L123.07 340.18L119.56 349.82L113.42 361.23L109.04 370.88L102.89 378.77L99.39 388.42L99.39 399.82L106.4 391.93L108.16 381.4L110.79 371.75L114.3 362.11L119.56 351.58L123.95 341.93L127.46 332.28L133.6 323.51L138.86 313.86L144.12 304.21L148.51 294.56L154.65 285.79L158.16 276.14L162.54 266.49L167.81 257.72L172.19 247.19L180.09 238.42L185.35 228.77L191.49 219.12L194.12 209.47L197.63 199.82L202.89 191.05L206.4 181.4L213.42 173.51L222.19 180.53L211.67 183.16L220.44 188.42L209.91 189.3L217.81 196.32L207.28 199.82L198.51 193.68L206.4 187.54L206.4 198.07" id="b3z79QcOx"></path><path d="M287.11 71.75L275.7 77.89L286.23 77.89L293.25 70L286.23 60.35L275.7 59.47L286.23 60.35L280.09 52.46L268.68 55.96L278.33 53.33L269.56 47.19L259.04 48.07L268.68 51.58L264.3 62.98L266.05 73.51L269.56 84.04L277.46 91.05L287.98 91.05L298.51 82.28L298.51 71.75L286.23 62.98L275.7 59.47L263.42 60.35L252.89 68.25L245 81.4L241.49 91.93L244.12 103.33L257.28 104.21L267.81 96.32L276.58 85.79L276.58 72.63L269.56 63.86L259.91 60.35L249.39 64.74L259.91 62.11L252.02 68.25L258.16 59.47L259.91 48.95L254.65 59.47L252.89 70L250.26 79.65L247.63 90.18L245 101.58L240.61 112.11L235.35 121.75L233.6 109.47L235.35 98.95L232.72 110.35L230.09 121.75L228.33 133.16L226.58 143.68L231.84 134.91L234.47 125.26L229.21 134.91L225.7 145.44L237.98 146.32L245.88 139.3L236.23 135.79L230.96 144.56L240.61 148.07L254.65 143.68L245 146.32L250.26 155.96L261.67 155.09L268.68 146.32L262.54 154.21L273.07 156.84L276.58 147.19L266.93 144.56L258.16 150.7L262.54 160.35L273.07 161.23L272.19 148.07L264.3 141.05L254.65 137.54L244.12 136.67L247.63 146.32L257.28 150.7L267.81 154.21L278.33 156.84L287.98 161.23L299.39 166.49L309.04 170L318.68 175.26L330.09 177.02L340.61 178.77L351.14 178.77L360.79 182.28L370.44 184.91L380.96 183.16L384.47 173.51L387.98 163.86L393.25 154.21L398.51 144.56L406.4 136.67L415.18 130.53L423.07 124.39L429.21 115.61L430.09 105.09L424.82 95.44L417.81 87.54L409.04 82.28L399.39 78.77L387.98 76.14L377.46 73.51L366.93 71.75L356.4 70.88L346.75 68.25L336.23 66.49L325.7 62.11L316.05 57.72L307.28 52.46L297.63 48.07L287.11 46.32L276.58 48.95L271.32 57.72L266.93 68.25L266.05 79.65L261.67 89.3L256.4 98.07L249.39 106.84L259.91 100.7L263.42 83.16L267.81 73.51L273.07 64.74L297.63 62.11L308.16 65.61L317.81 69.12L328.33 71.75L337.98 74.39L350.26 77.02L360.79 79.65L372.19 82.28L381.84 84.91L391.49 88.42L402.89 92.81L412.54 97.19L410.79 84.91L402.89 77.89L392.37 76.14L381.84 76.14L371.32 76.14L361.67 73.51L348.51 72.63L336.23 70L325.7 68.25L312.54 65.61L302.02 62.98L292.37 57.72L283.6 52.46L273.07 48.07L281.84 41.93L296.75 45.44L309.04 47.19L320.44 48.95L331.84 48.95L341.49 52.46L351.14 55.96L360.79 59.47L370.44 64.74L379.21 70L390.61 71.75L400.26 74.39L410.79 76.14L420.44 80.53L426.58 88.42L435.35 96.32L425.7 101.58L418.68 93.68L411.67 84.91L400.26 79.65L389.74 76.14L380.09 73.51L366.05 70L356.4 66.49L346.75 59.47L337.11 52.46L327.46 48.07L316.05 48.95L324.82 55.96L335.35 58.6L347.63 59.47L358.16 59.47L367.81 62.11L359.04 68.25L347.63 70L337.11 65.61L327.46 61.23L315.18 55.96L303.77 55.09L292.37 53.33L282.72 49.82L272.19 45.44L264.3 51.58L260.79 61.23L259.04 72.63L257.28 84.04L252.89 93.68L247.63 103.33L248.51 92.81L251.14 81.4L245 91.05L242.37 101.58L240.61 112.11L236.23 121.75L230.09 129.65L224.82 139.3L224.82 149.82L235.35 153.33L245.88 150.7L255.53 144.56L257.28 134.04L252.02 124.39L245 115.61L245.88 104.21L239.74 115.61L238.86 126.14L241.49 135.79L252.89 142.81L262.54 148.07L272.19 150.7L273.95 161.23L283.6 164.74L294.12 165.61L302.89 170.88L313.42 172.63L323.95 174.39L334.47 177.02L342.37 184.91L352.89 188.42L362.54 184.91L370.44 191.05L380.96 190.18L387.11 181.4L392.37 172.63L396.75 162.98L401.14 152.46L405.53 142.81L414.3 136.67L409.91 146.32L403.77 154.21L395.88 160.35L398.51 141.93L409.91 122.63L414.3 112.98L418.68 103.33L424.82 112.11L418.68 120.88L421.32 110.35L423.07 99.82L418.68 90.18L408.16 88.42L402.02 97.19L402.89 107.72L403.77 119.12L410.79 110.35L412.54 98.95L407.28 90.18L397.63 86.67L387.11 84.91L376.58 84.91L363.42 84.04L352.02 82.28L341.49 80.53L330.09 77.02L316.93 70.88L307.28 68.25L295 68.25L284.47 76.14L281.84 85.79L293.25 85.79L303.77 82.28L313.42 76.14L310.79 66.49L299.39 64.74L289.74 67.37L280.09 70.88L272.19 80.53L272.19 91.05L282.72 93.68L299.39 91.05L312.54 83.16L318.68 72.63L304.65 58.6L293.25 55.96L280.96 55.96L269.56 60.35L270.44 98.07L284.47 95.44L298.51 89.3L308.16 83.16L315.18 74.39L306.4 65.61L294.12 65.61L279.21 72.63L270.44 82.28L266.93 91.93L269.56 102.46L277.46 109.47L287.98 110.35L295 101.58L292.37 91.93L281.84 89.3L272.19 92.81L263.42 99.82L257.28 108.6L257.28 119.12L266.93 125.26L285.35 120.88L292.37 112.11L294.12 101.58L284.47 94.56L273.07 93.68L259.91 97.19L252.89 105.96L251.14 116.49L252.02 127.02L261.67 132.28L273.07 132.28L280.96 126.14L283.6 116.49L275.7 109.47L259.04 108.6L244.12 113.86L238.86 122.63L239.74 133.16L249.39 139.3L262.54 137.54L273.07 133.16L279.21 125.26L278.33 114.74L265.18 111.23L252.89 113.86L248.51 124.39L257.28 132.28L268.68 132.28L278.33 127.89L280.96 117.37L270.44 112.98L259.04 114.74L251.14 123.51L249.39 134.91L254.65 143.68L267.81 144.56L278.33 141.05L285.35 133.16L285.35 122.63L276.58 113.86L259.04 113.86L249.39 123.51L254.65 135.79L267.81 136.67L276.58 128.77L277.46 118.25L265.18 111.23L252.89 111.23L241.49 111.23L235.35 119.12L239.74 132.28L252.02 139.3L264.3 140.18L277.46 132.28L273.95 121.75L263.42 121.75L253.77 127.02L248.51 138.42L255.53 150.7L266.93 153.33L280.09 151.58L292.37 141.05L298.51 129.65L288.86 127.02L277.46 133.16L279.21 143.68L290.61 144.56L301.14 141.93L292.37 134.04L286.23 142.81L296.75 150.7L311.67 148.95L317.81 140.18L308.16 136.67L297.63 137.54L287.98 144.56L286.23 155.09L302.89 165.61L320.44 155.96L292.37 153.33L300.26 161.23L312.54 162.11L324.82 154.21L321.32 143.68L309.91 144.56L304.65 154.21L308.16 165.61L319.56 170L330.09 168.25L344.12 165.61L345 155.09L333.6 156.84L328.33 166.49L334.47 177.02L346.75 177.02L353.77 168.25L348.51 156.84L334.47 150.7L323.07 149.82L312.54 155.96L315.18 166.49L326.58 172.63L340.61 173.51L350.26 167.37L348.51 156.84L337.11 151.58L326.58 154.21L326.58 165.61L339.74 170.88L352.02 168.25L359.04 158.6L348.51 153.33L338.86 159.47L335.35 169.12L345.88 175.26L356.4 176.14L363.42 168.25L352.02 167.37L349.39 179.65L359.91 183.16L372.19 179.65L379.21 171.75L370.44 166.49L376.58 176.14L388.86 169.12L391.49 158.6L388.86 148.07L374.82 148.95L366.93 157.72L366.93 168.25L375.7 176.14L385.35 170L384.47 159.47L373.07 154.21L363.42 156.84L356.4 168.25L361.67 178.77L375.7 182.28L388.86 172.63L392.37 162.98L387.11 152.46L372.19 152.46L362.54 156.84L358.16 166.49L373.07 167.37L385.35 159.47L389.74 147.19L387.98 136.67L373.95 134.04L366.05 145.44L373.95 152.46L386.23 150.7L393.25 141.93L394.12 129.65L386.23 120L371.32 123.51L366.93 133.16L376.58 138.42L387.98 136.67L394.12 128.77L398.51 117.37L381.84 113.86L371.32 122.63L373.07 134.04L387.98 138.42L396.75 133.16L402.02 121.75L390.61 115.61L380.09 124.39L380.96 134.91L391.49 135.79L403.77 130.53L408.16 119.12L397.63 110.35L380.96 115.61L374.82 124.39L378.33 134.91L387.98 137.54L399.39 134.91L387.11 134.91L378.33 143.68L367.81 156.84L361.67 165.61L358.16 176.14L372.19 169.12L381.84 161.23L388.86 150.7L395.88 136.67L397.63 125.26L383.6 128.77L373.95 141.05L368.68 154.21L381.84 156.84L389.74 149.82L398.51 137.54L388.86 133.16L373.95 152.46L381.84 143.68L392.37 131.4L398.51 109.47L387.11 112.98L397.63 112.98L400.26 99.82L388.86 97.19L383.6 110.35L393.25 114.74L401.14 105.09L401.14 92.81L391.49 90.18L380.96 94.56L372.19 104.21L379.21 112.11L391.49 105.96L395.88 96.32L391.49 86.67L373.95 89.3L366.05 99.82L368.68 110.35L380.09 114.74L390.61 111.23L392.37 98.07L378.33 89.3L365.18 89.3L353.77 96.32L364.3 102.46L373.95 96.32L372.19 85.79L359.91 87.54L369.56 91.05L359.04 84.04L345 86.67L339.74 95.44L352.02 98.07L360.79 91.93L352.89 84.04L339.74 87.54L346.75 96.32L354.65 90.18L349.39 81.4L337.98 79.65L327.46 84.04L320.44 92.81L332.72 91.93L335.35 80.53L324.82 75.26L310.79 76.14L304.65 84.91L316.93 84.91L324.82 76.14L317.81 68.25L307.28 67.37L296.75 75.26L299.39 88.42L312.54 86.67L309.91 77.02L296.75 83.16L288.86 97.19L290.61 107.72L312.54 103.33L320.44 92.81L320.44 81.4L309.91 77.89L299.39 77.89L287.98 81.4L280.09 89.3L279.21 99.82L302.02 94.56L309.91 85.79L307.28 76.14L292.37 80.53L281.84 97.19L292.37 105.09L303.77 97.19L309.04 85.79L294.12 94.56L284.47 107.72L280.09 120L283.6 129.65L302.89 113.86L309.91 104.21L298.51 102.46L287.11 111.23L302.02 112.11L309.04 102.46L299.39 110.35L291.49 120.88L308.16 118.25L295.88 119.12L293.25 128.77L308.16 134.04L323.07 128.77L330.09 119.12L318.68 118.25L309.91 127.02L306.4 139.3L318.68 144.56L329.21 139.3L337.11 130.53L334.47 120L323.07 112.98L302.02 118.25L294.12 127.89L299.39 137.54L316.05 137.54L326.58 132.28L330.09 121.75L323.95 111.23L311.67 107.72L300.26 108.6L287.98 121.75L287.11 134.04L300.26 140.18L310.79 138.42L321.32 134.91L331.84 127.02L332.72 115.61L321.32 115.61L307.28 125.26L306.4 136.67L326.58 137.54L333.6 129.65L330.96 119.12L321.32 115.61L309.04 127.02L311.67 140.18L346.75 140.18L331.84 148.95L348.51 147.19L358.16 138.42L346.75 131.4L338.86 138.42L348.51 147.19L356.4 140.18L349.39 131.4L338.86 130.53L327.46 140.18L330.96 151.58L345 155.96L355.53 155.96L366.93 149.82L368.68 139.3L359.91 133.16L349.39 143.68L357.28 152.46L367.81 151.58L375.7 139.3L368.68 129.65L353.77 136.67L356.4 148.07L373.07 145.44L380.09 131.4L376.58 121.75L362.54 116.49L356.4 127.02L368.68 130.53L378.33 124.39L378.33 111.23L366.05 106.84L355.53 112.11L352.02 123.51L361.67 131.4L373.07 127.89L380.96 121.75L381.84 109.47L369.56 105.96L355.53 114.74L350.26 127.89L364.3 128.77L376.58 118.25L376.58 106.84L366.93 101.58L354.65 107.72L345 123.51L359.04 126.14L369.56 119.12L367.81 108.6L357.28 103.33L346.75 104.21L333.6 111.23L327.46 119.12L340.61 121.75L352.89 118.25L356.4 108.6L342.37 99.82L323.95 109.47L319.56 120L337.11 120.88L349.39 115.61L352.89 103.33L337.11 98.07L327.46 105.09L320.44 116.49L331.84 123.51L344.12 120L352.02 111.23L350.26 100.7L337.11 91.93L326.58 91.93L316.05 98.95L314.3 109.47L333.6 110.35L343.25 104.21L339.74 93.68L323.07 92.81L309.04 101.58L306.4 112.11L321.32 112.11L336.23 105.96L337.98 94.56L327.46 92.81L314.3 98.07L304.65 112.11L314.3 119.12L337.11 116.49L346.75 112.11L340.61 103.33L326.58 105.96L332.72 98.07L315.18 97.19L323.95 106.84L313.42 117.37L298.51 128.77L290.61 135.79L302.02 130.53L321.32 121.75L330.09 115.61L310.79 106.84L295.88 105.96L283.6 95.44L279.21 80.53L265.18 76.14L257.28 87.54L250.26 98.07L246.75 110.35L244.12 126.14L238.86 136.67L228.33 134.91L221.32 142.81L211.67 140.18L223.07 137.54L232.72 143.68L222.19 142.81L237.11 142.81L251.14 142.81L262.54 143.68L275.7 142.81L290.61 138.42L302.02 131.4L313.42 120.88L323.07 123.51L332.72 127.02" id="a5pfPeBny9"></path></defs><g visibility="inherit"><g visibility="inherit"><g visibility="inherit"><g visibility="inherit"><g><use xlink:href="#cJk14Zj1I" opacity="1" fill-opacity="0" stroke="#000000" stroke-width="6" stroke-opacity="1"></use></g></g><g visibility="inherit"><g><use xlink:href="#b2okAAhU2" opacity="1" fill-opacity="0" stroke="#000000" stroke-width="6" stroke-opacity="1"></use></g></g><g visibility="inherit"><use xlink:href="#b5Avv1fF9" opacity="1" fill="#000000" fill-opacity="0"></use><g><use xlink:href="#b5Avv1fF9" opacity="1" fill-opacity="0" stroke="#000000" stroke-width="6" stroke-opacity="1"></use></g></g><g visibility="inherit"><g><use xlink:href="#f1O2lkbukx" opacity="1" fill-opacity="0" stroke="#000000" stroke-width="6" stroke-opacity="1"></use></g></g></g><g visibility="inherit"><g><use xlink:href="#a6TutF2gr" opacity="1" fill-opacity="0" stroke="#000000" stroke-width="6" stroke-opacity="1"></use></g></g><g visibility="inherit"><g><use xlink:href="#c1BJmztVB2" opacity="1" fill-opacity="0" stroke="#000000" stroke-width="6" stroke-opacity="1"></use></g></g><g visibility="inherit"><g><use xlink:href="#b3z79QcOx" opacity="1" fill-opacity="0" stroke="#000000" stroke-width="6" stroke-opacity="1"></use></g></g><g visibility="inherit"><g><use xlink:href="#a5pfPeBny9" opacity="1" fill-opacity="0" stroke="#000000" stroke-width="6" stroke-opacity="1"></use></g></g></g></g></svg>