<?xml version="1.0" encoding="UTF-8" standalone="no"?>
<!DOCTYPE svg PUBLIC "-//W3C//DTD SVG 1.1//EN" "http://www.w3.org/Graphics/SVG/1.1/DTD/svg11.dtd">
<svg version="1.1" xmlns="http://www.w3.org/2000/svg" xmlns:xlink="http://www.w3.org/1999/xlink" preserveAspectRatio="xMidYMid meet" viewBox="0 0 640 640" width="640" height="640"><defs><path d="M214.24 419.12L210.73 429.65L208.98 442.81L207.22 453.33L207.22 463.86L205.47 475.26L203.72 485.79L202.84 497.19L200.21 511.23L199.33 523.51L196.7 536.67L194.94 547.19L194.07 557.72L193.19 568.25L190.56 582.28L188.8 593.68L186.17 607.72L184.42 619.12L182.66 632.28L192.31 634.91L201.96 628.77L213.36 617.37L220.38 608.6L229.15 599.82L241.43 591.05L251.96 583.16L259.86 575.26L270.38 568.25L278.28 562.11L287.05 552.46L295.82 543.68L306.35 533.16L313.36 525.26L321.26 519.12L330.03 511.23L338.8 505.09L346.7 497.19L353.72 489.3L358.98 478.77L363.36 467.37L367.75 457.72L372.14 448.07L376.52 438.42L381.79 429.65L390.56 417.37L396.7 407.72L402.84 397.19L408.1 387.54L414.24 377.89L420.38 367.37L426.52 357.72L431.79 348.95L438.8 341.05L444.94 331.4L451.08 321.75L457.22 311.23L464.24 301.58L470.38 291.93L475.65 282.28L480.91 272.63L485.29 262.11L494.07 248.95L497.58 238.42L501.96 228.77L507.22 219.12L497.58 212.11L487.05 211.23L476.52 209.47L466 207.72L452.84 203.33L442.31 199.82L430.03 197.19L416.87 193.68L406.35 190.18L396.7 187.54L387.05 184.91L375.65 180.53L366 177.89L355.47 174.39L344.94 170.88L335.29 174.39L330.03 184.91L325.65 194.56L319.51 203.33L313.36 212.98L308.1 221.75L302.84 231.4L297.58 241.93L290.56 257.72L286.17 267.37L280.91 276.14L277.4 286.67L273.89 298.95L268.63 309.47L262.49 323.51L258.1 333.16L251.96 344.56L246.7 355.09L242.31 366.49L238.8 376.14L233.54 385.79L225.65 397.19L221.26 406.84L216.87 417.37" id="bd1buFp9X"></path><path d="M195.82 580.53L205.47 572.63L212.49 564.74L221.26 555.96L233.54 549.82L236.17 559.47L237.05 570.88L234.42 581.4L233.54 591.93" id="a223FeTAbl"></path><path d="M228.28 406.84L236.17 412.98L246.7 417.37L256.35 420.88L266.87 424.39L276.52 430.53L286.17 436.67L297.58 442.81L309.86 448.07L320.38 451.58L330.03 456.84L339.68 460.35L349.33 463.86L358.98 466.49L363.36 456.84L368.63 448.07L373.01 438.42L378.28 428.77L384.42 420L391.43 412.11L399.33 404.21L405.47 396.32L412.49 388.42L419.51 380.53L425.65 372.63L430.91 363.86L437.05 355.09L440.56 345.44L445.82 335.79L451.08 325.26L454.59 314.74L458.98 305.09L462.49 294.56L467.75 285.79L473.01 277.02L478.28 268.25L483.54 259.47L488.8 250.7L494.94 242.81L498.45 233.16L501.96 223.51L495.82 213.86L486.17 211.23L476.52 208.6L466.87 205.09L456.35 202.46L446.7 198.95L436.17 197.19L426.52 194.56L416.87 191.05L406.35 189.3L396.7 185.79L386.17 184.04L375.65 183.16L364.24 181.4L353.72 182.28L347.58 191.05L343.19 200.7L338.8 210.35L335.29 220L330.03 234.04L323.89 244.56L320.38 254.21L316 263.86L312.49 274.39L307.22 284.04L302.84 294.56L295.82 304.21L289.68 312.11L283.54 321.75L278.28 330.53L272.14 339.3L267.75 348.95L262.49 359.47L258.98 370L254.59 379.65L248.45 388.42L242.31 397.19L237.05 405.96L227.4 402.46" id="b1iEus28PH"></path><path d="M344.94 148.95L355.47 150.7L366 152.46L376.52 155.96L386.17 159.47L397.58 162.11L407.22 164.74L416.87 168.25L427.4 171.75L438.8 176.14L452.84 181.4L463.36 184.04L475.65 186.67L485.29 190.18L494.94 193.68L504.59 197.19L514.24 199.82L518.63 190.18L524.77 179.65L531.79 170.88L537.05 162.11L543.19 149.82L549.33 141.93L555.47 132.28L559.86 122.63L565.12 112.98L565.12 102.46L565.12 91.93L558.98 83.16L550.21 77.89L540.56 72.63L530.91 69.12L520.38 66.49L510.73 63.86L501.08 60.35L491.43 57.72L481.79 55.09L471.26 50.7L458.1 45.44L444.94 42.81L434.42 41.93L423.01 40.18L412.49 39.3L401.08 38.42L390.56 41.93L384.42 49.82L381.79 59.47L380.03 70.88L376.52 81.4L370.38 91.05L363.36 99.82L358.1 108.6L357.22 119.12L356.35 129.65L351.96 139.3" id="b5FDlAdMMu"></path><path d="M363.36 189.3L351.96 191.05L358.1 181.4L367.75 178.77L360.73 187.54L371.26 191.05L381.79 194.56L371.26 195.44L360.73 198.95L371.26 197.19L383.54 197.19L369.51 201.58L357.22 204.21L345.82 205.96L355.47 198.95L365.12 193.68L352.84 196.32L365.12 195.44L356.35 201.58L367.75 199.82L356.35 205.96L347.58 212.11L353.72 200.7L359.86 191.93L349.33 195.44L342.31 205.96L340.56 217.37L351.08 214.74L342.31 223.51L336.17 232.28L327.4 246.32L320.38 256.84L330.91 249.82L339.68 237.54L346.7 228.77L352.84 219.12L358.98 208.6L351.96 220L345.82 228.77L342.31 238.42L351.08 228.77L356.35 218.25L363.36 205.09L352.84 212.11L344.07 221.75L336.17 234.04L328.28 244.56L320.38 255.09L314.24 262.98L324.77 253.33L335.29 241.93L349.33 226.14L364.24 207.72L372.14 195.44L366.87 204.21L358.1 215.61L351.96 226.14L344.94 239.3L337.05 251.58L331.79 262.98L325.65 277.89L335.29 267.37L344.94 255.96L352.84 244.56L360.73 233.16L364.24 222.63L355.47 229.65L350.21 239.3L342.31 249.82L334.42 262.11L326.52 274.39L318.63 286.67L312.49 295.44L307.22 305.96L312.49 294.56L322.14 280.53L330.91 269.12L339.68 257.72L346.7 248.07L336.17 256.84L328.28 267.37L323.01 276.14L317.75 284.91L323.01 276.14L330.91 265.61L337.05 256.84L341.43 245.44L331.79 251.58L325.65 259.47L319.51 267.37L328.28 259.47L324.77 269.12L318.63 277.02L312.49 286.67L311.61 298.07L306.35 307.72L297.58 317.37L289.68 325.26L299.33 316.49L307.22 308.6L297.58 317.37L289.68 325.26L297.58 312.11L304.59 302.46L307.22 291.93L299.33 298.95L296.7 308.6L291.43 317.37L301.96 315.61L296.7 327.89L288.8 334.91L296.7 327.89L304.59 321.75L297.58 333.16L285.29 343.68L277.4 351.58L287.93 344.56L276.52 354.21L259.86 366.49L269.51 355.96L294.07 324.39L286.17 330.53L275.65 339.3L283.54 330.53L291.43 324.39L286.17 336.67L280.91 345.44L274.77 354.21L266 364.74L279.15 367.37L276.52 379.65L266 392.81L277.4 387.54L286.17 382.28L276.52 388.42L266.87 393.68L269.51 383.16L277.4 377.02L285.29 368.25L273.89 374.39L262.49 379.65L268.63 367.37L258.1 375.26L268.63 377.02L264.24 388.42L254.59 397.19L246.7 404.21L259.86 398.07L251.08 405.96L253.72 396.32L244.07 401.58L255.47 395.44L254.59 406.84L269.51 398.95L266 408.6L276.52 403.33L268.63 412.98L280.03 411.23L273.01 422.63L288.8 421.75L284.42 431.4L294.94 424.39L291.43 434.04L303.72 428.77L315.12 425.26L309.86 435.79L301.96 443.68L312.49 440.18L323.01 436.67L322.14 447.19L333.54 441.93L343.19 438.42L337.93 448.95L351.08 447.19L362.49 441.05L356.35 451.58L364.24 444.56L353.72 455.09L356.35 445.44L348.45 439.3L337.93 444.56L351.96 434.04L360.73 428.77L352.84 435.79L343.19 441.93L356.35 434.91L365.12 429.65L357.22 438.42L370.38 431.4L357.22 439.3L365.12 431.4L378.28 423.51L383.54 414.74L392.31 406.84L401.96 399.82L393.19 405.96L400.21 395.44L384.42 405.09L375.65 410.35L384.42 402.46L395.82 393.68L406.35 384.91L412.49 376.14L417.75 366.49L409.86 372.63L396.7 384.04L388.8 391.05L394.94 382.28L404.59 371.75L412.49 363.86L417.75 355.09L406.35 366.49L418.63 351.58L427.4 336.67L419.51 344.56L430.91 327.89L441.43 314.74L449.33 305.09L438.8 318.25L432.66 327.89L442.31 319.12L458.1 302.46L430.91 327.89L442.31 313.86L452.84 302.46L461.61 291.93L466 280.53L457.22 286.67L465.12 272.63L472.14 263.86L463.36 270L458.1 278.77L468.63 264.74L476.52 257.72L467.75 265.61L475.65 253.33L480.91 244.56L485.29 234.91L493.19 227.89L485.29 235.79L490.56 226.14L479.15 227.02L485.29 214.74L474.77 221.75L460.73 219.12L464.24 208.6L453.72 212.11L439.68 210.35L427.4 207.72L418.63 202.46L404.59 203.33L394.07 202.46L383.54 200.7L389.68 190.18L398.45 196.32L411.61 200.7L417.75 208.6L435.29 210.35L448.45 212.11L458.98 212.11L449.33 205.09L425.65 201.58L414.24 200.7L402.84 197.19L392.31 195.44L380.91 193.68L370.38 191.93L379.15 199.82L395.82 199.82L384.42 203.33L374.77 206.84L358.98 213.86L368.63 205.96L378.28 201.58L388.8 197.19L379.15 208.6L369.51 215.61L383.54 205.96L393.19 202.46L377.4 212.11L368.63 217.37L360.73 225.26L371.26 220.88L390.56 214.74L377.4 217.37L362.49 222.63L353.72 227.89L366.87 220L385.29 212.11L395.82 207.72L382.66 211.23L366 218.25L349.33 227.02L335.29 237.54L353.72 234.04L364.24 228.77L377.4 223.51L389.68 218.25L401.08 211.23L410.73 205.09L420.38 201.58L413.36 211.23L403.72 216.49L392.31 221.75L383.54 227.02L373.89 231.4L365.12 237.54L356.35 244.56L347.58 250.7L338.8 255.96L353.72 251.58L379.15 239.3L391.43 231.4L409.86 217.37L419.51 212.98L430.03 207.72L426.52 217.37L414.24 225.26L404.59 229.65L394.07 232.28L383.54 236.67L373.89 241.05L363.36 245.44L353.72 250.7L366 252.46L378.28 248.07L391.43 240.18L402.84 230.53L411.61 221.75L422.14 215.61L431.79 212.11L442.31 211.23L440.56 222.63L429.15 227.02L414.24 231.4L401.08 235.79L388.8 241.05L376.52 245.44L359.86 250.7L350.21 253.33L341.43 258.6L355.47 261.23L371.26 254.21L380.91 248.07L389.68 241.93L401.08 234.91L409.86 229.65L420.38 225.26L430.03 219.12L440.56 215.61L435.29 227.89L423.89 231.4L406.35 238.42L395.82 241.05L384.42 244.56L372.14 249.82L356.35 256.84L344.07 262.98L329.15 270.88L340.56 270L351.08 266.49L366.87 259.47L378.28 253.33L387.93 245.44L398.45 238.42L408.1 231.4L416.87 226.14L426.52 222.63L437.93 219.12L450.21 218.25L460.73 217.37L456.35 227.89L443.19 232.28L433.54 235.79L422.14 238.42L406.35 243.68L393.19 248.95L381.79 254.21L369.51 259.47L358.98 262.98L344.94 268.25L331.79 273.51L321.26 277.89L337.05 284.91L347.58 284.04L360.73 279.65L377.4 270.88L394.07 261.23L402.84 255.96L412.49 249.82L421.26 244.56L432.66 240.18L445.82 235.79L457.22 229.65L467.75 225.26L479.15 221.75L464.24 237.54L453.72 243.68L440.56 250.7L429.15 255.96L415.12 262.98L401.08 264.74L390.56 265.61L373.89 268.25L354.59 271.75L343.19 274.39L333.54 278.77L325.65 285.79L329.15 296.32L340.56 294.56L358.98 290.18L373.89 284.91L382.66 278.77L392.31 272.63L401.96 267.37L411.61 262.11L423.89 255.96L437.05 248.07L450.21 241.93L458.98 236.67L468.63 234.04L486.17 226.14L480.03 236.67L466 242.81L448.45 248.07L437.05 251.58L426.52 257.72L408.98 268.25L397.58 273.51L388.8 278.77L401.96 273.51L422.14 257.72L436.17 247.19L449.33 236.67L457.22 230.53L444.07 231.4L434.42 234.04L423.01 237.54L397.58 249.82L388.8 255.09L374.77 262.98L392.31 257.72L404.59 253.33L423.01 244.56L432.66 239.3L445.82 234.04L434.42 250.7L425.65 258.6L413.36 270L405.47 280.53L415.12 277.89L433.54 269.12L451.96 257.72L464.24 250.7L471.26 241.93L455.47 251.58L440.56 266.49L451.08 270L461.61 265.61L472.14 260.35L480.03 254.21L470.38 248.95L457.22 254.21L446.7 260.35L437.05 270L472.14 255.09L470.38 242.81L458.98 241.05L447.58 245.44L437.05 259.47L453.72 262.11L462.49 255.96L466.87 244.56L459.86 235.79L449.33 234.91L441.43 244.56L451.08 248.07L464.24 243.68L471.26 234.04L458.1 223.51L446.7 224.39L432.66 234.91L423.89 247.19L421.26 256.84L425.65 273.51L440.56 276.14L451.96 269.12L457.22 260.35L448.45 249.82L432.66 249.82L421.26 253.33L407.22 262.11L386.17 277.89L380.91 287.54L391.43 293.68L402.84 289.3L413.36 282.28L420.38 273.51L417.75 263.86L408.1 260.35L394.94 263.86L385.29 268.25L377.4 277.02L376.52 287.54L394.07 284.91L403.72 276.14L398.45 263.86L381.79 260.35L369.51 267.37L344.94 286.67L335.29 298.95L351.08 303.33L367.75 288.42L367.75 274.39L352.84 269.12L330.91 280.53L323.01 293.68L335.29 298.07L348.45 289.3L349.33 277.02L336.17 280.53L329.15 288.42L322.14 302.46L331.79 309.47L345.82 297.19L346.7 284.04L333.54 277.89L316.87 282.28L308.1 292.81L311.61 304.21L329.15 300.7L338.8 294.56L327.4 293.68L316.87 303.33L311.61 312.11L328.28 312.98L339.68 303.33L327.4 296.32L315.12 305.09L307.22 315.61L313.36 326.14L320.38 318.25L297.58 351.58L309.86 347.19L317.75 341.05L323.89 333.16L327.4 322.63L317.75 314.74L308.98 320L300.21 326.14L309.86 337.54L322.14 330.53L330.91 320.88L332.66 308.6L316.87 311.23L306.35 325.26L316.87 327.89L331.79 316.49L337.05 305.09L336.17 291.05L319.51 298.07L306.35 320L308.98 330.53L327.4 323.51L337.05 315.61L334.42 304.21L317.75 309.47L299.33 333.16L296.7 345.44L310.73 340.18L304.59 331.4L294.07 341.05L284.42 357.72L296.7 357.72L306.35 349.82L308.98 339.3L294.07 342.81L281.79 355.96L294.07 360.35L305.47 353.33L287.05 358.6L280.91 373.51L294.94 372.63L301.08 356.84L283.54 357.72L273.01 370.88L280.91 377.89L294.94 370L300.21 361.23L283.54 364.74L271.26 380.53L284.42 383.16L297.58 370.88L298.45 360.35L286.17 350.7L274.77 355.09L269.51 364.74L266.87 378.77L271.26 389.3L293.19 384.91L301.08 377.89L288.8 378.77L282.66 386.67L275.65 398.07L280.03 407.72L297.58 399.82L298.45 387.54L287.93 384.04L275.65 387.54L266 396.32L263.36 405.96L287.05 391.93L271.26 387.54L261.61 397.19L257.22 408.6L269.51 405.09L275.65 397.19L273.89 386.67L262.49 391.93L256.35 400.7L268.63 400.7L275.65 389.3L264.24 379.65L253.72 391.93L262.49 397.19L273.01 387.54L270.38 375.26L257.22 376.14L249.33 384.04L246.7 394.56L258.1 395.44L268.63 389.3L260.73 397.19L253.72 406.84L258.1 397.19L248.45 404.21L257.22 398.95L245.82 402.46L256.35 399.82L245.82 405.96L246.7 395.44L237.05 402.46L242.31 412.11L252.84 410.35L260.73 416.49L271.26 412.11L266 420.88L290.56 425.26L282.66 431.4L293.19 432.28L299.33 441.93L312.49 437.54L318.63 446.32L332.66 441.93L344.94 442.81L335.29 449.82L345.82 452.46L357.22 455.96L353.72 446.32L342.31 448.95L333.54 455.96L327.4 448.07L332.66 457.72L344.94 463.86L356.35 464.74L364.24 454.21L358.98 445.44L343.19 444.56L355.47 442.81L363.36 430.53L356.35 422.63L348.45 435.79L362.49 430.53L373.01 414.74L361.61 416.49L359.86 430.53L374.77 422.63L380.03 408.6L379.15 396.32L367.75 398.95L363.36 408.6L369.51 416.49L384.42 409.47L390.56 396.32L383.54 387.54L377.4 397.19L393.19 393.68L406.35 378.77L412.49 366.49L405.47 375.26L416 376.14L416 363.86L404.59 363.86L395.82 369.12L408.98 371.75L416.87 363.86L421.26 350.7L429.15 344.56L431.79 334.91L419.51 343.68L437.05 339.3L442.31 327.02L430.03 327.02L443.19 327.02L448.45 318.25L455.47 305.96L443.19 303.33L458.1 297.19L470.38 278.77L453.72 279.65L463.36 277.02L449.33 274.39L441.43 280.53L437.93 291.05L448.45 291.05L454.59 283.16L437.93 281.4L430.03 288.42L439.68 296.32L448.45 291.05L446.7 279.65L432.66 284.04L427.4 297.19L445.82 298.95L438.8 291.05L430.91 300.7L444.07 306.84L454.59 296.32L445.82 284.91L431.79 289.3L426.52 299.82L444.07 291.93L449.33 281.4L439.68 278.77L427.4 280.53L417.75 287.54L412.49 298.95L423.89 296.32L434.42 290.18L430.91 276.14L418.63 277.89L405.47 287.54L400.21 297.19L419.51 292.81L423.89 282.28L410.73 280.53L380.03 297.19L394.07 297.19L405.47 284.91L371.26 307.72L384.42 304.21L394.94 294.56L385.29 289.3L363.36 295.44L352.84 300.7L343.19 310.35L361.61 304.21L374.77 294.56L379.15 284.04L362.49 288.42L353.72 294.56L343.19 304.21L355.47 305.09L345.82 310.35L337.93 327.89L353.72 328.77L366 320.88L370.38 309.47L351.96 313.86L341.43 323.51L328.28 337.54L320.38 346.32L338.8 333.16L350.21 320.88L352.84 310.35L335.29 318.25L325.65 330.53L320.38 340.18L338.8 337.54L352.84 321.75L359.86 308.6L352.84 299.82L339.68 305.96L331.79 314.74L323.01 325.26L310.73 352.46L333.54 342.81L326.52 334.91L313.36 347.19L306.35 361.23L320.38 362.98L331.79 349.82L313.36 355.09L303.72 368.25L291.43 395.44L305.47 390.18L312.49 381.4L318.63 370.88L307.22 368.25L289.68 394.56L293.19 404.21L302.84 398.07L309.86 390.18L297.58 390.18L289.68 398.07L290.56 408.6L300.21 404.21L284.42 408.6L303.72 389.3L294.07 385.79L285.29 400.7L292.31 410.35L308.1 398.95L294.94 403.33L290.56 413.86L305.47 412.11L294.07 414.74L301.08 423.51L313.36 412.11L311.61 400.7L293.19 404.21L288.8 417.37L305.47 412.98L305.47 396.32L290.56 398.95L287.93 408.6L303.72 413.86L313.36 405.09L298.45 405.09L291.43 413.86L294.94 423.51L316 425.26L325.65 411.23L310.73 414.74L305.47 423.51L312.49 432.28L325.65 428.77L334.42 420L318.63 421.75L310.73 432.28L321.26 440.18L331.79 435.79L338.8 427.89L331.79 417.37L318.63 425.26L327.4 431.4L336.17 424.39L322.14 430.53L330.03 436.67L342.31 427.89L350.21 412.98L337.93 418.25L342.31 429.65L352.84 424.39L361.61 416.49L366.87 407.72L347.58 416.49L351.08 427.89L361.61 422.63L370.38 410.35L374.77 398.07L364.24 391.93L354.59 396.32L346.7 405.96L358.98 405.09L369.51 398.07L372.14 387.54L354.59 383.16L344.94 391.93L343.19 404.21L359.86 404.21L371.26 393.68L358.98 385.79L348.45 390.18L333.54 404.21L352.84 403.33L358.1 390.18L346.7 386.67L327.4 395.44L323.01 406.84L345.82 398.95L352.84 386.67L333.54 386.67L321.26 398.95L323.89 414.74L350.21 398.95L357.22 388.42L317.75 398.95L337.93 396.32L351.96 387.54L357.22 377.89L335.29 381.4L317.75 396.32L312.49 408.6L323.01 404.21L345.82 388.42L354.59 377.02L331.79 379.65L316.87 394.56L345.82 378.77L357.22 364.74L340.56 363.86L326.52 373.51L315.12 388.42L327.4 381.4L340.56 370L351.96 355.96L341.43 349.82L323.89 358.6L310.73 371.75L310.73 384.04L321.26 380.53L351.08 358.6L354.59 347.19L338.8 352.46L316.87 370L306.35 385.79L335.29 372.63L350.21 358.6L356.35 346.32L337.93 351.58L317.75 371.75L312.49 382.28L330.91 372.63L355.47 348.95L367.75 333.16L375.65 318.25L351.96 326.14L335.29 340.18L329.15 348.95L344.94 338.42L366 325.26L372.14 316.49L359.86 317.37L345.82 332.28L336.17 348.07L350.21 348.07L366 336.67L375.65 326.14L379.15 315.61L358.98 320L346.7 333.16L339.68 348.95L364.24 337.54L386.17 318.25L394.94 306.84L403.72 292.81L380.03 306.84L364.24 325.26L355.47 338.42L374.77 327.89L399.33 307.72L406.35 292.81L393.19 298.95L376.52 315.61L361.61 334.91L358.1 348.07L385.29 332.28L403.72 317.37L408.98 303.33L398.45 299.82L385.29 308.6L361.61 338.42L355.47 356.84L366.87 353.33L393.19 333.16L409.86 316.49L417.75 305.96L401.96 308.6L381.79 332.28L371.26 349.82L370.38 361.23L396.7 342.81L416 321.75L410.73 311.23L393.19 324.39L377.4 341.93L367.75 354.21L365.12 370.88L394.07 351.58L411.61 330.53L404.59 321.75L394.07 328.77L380.03 345.44L366.87 363.86L354.59 382.28L348.45 393.68L359.86 384.91L377.4 368.25L386.17 358.6L391.43 348.07L380.91 348.07L370.38 359.47L361.61 375.26L365.12 385.79L375.65 380.53L394.07 361.23L399.33 350.7L402.84 338.42L387.93 345.44L380.91 354.21L372.14 368.25L373.01 380.53L398.45 360.35L407.22 348.07L387.05 367.37L380.91 378.77L401.08 371.75L410.73 355.96L397.58 352.46L383.54 365.61L376.52 381.4L387.05 383.16L402.84 368.25L409.86 360.35L400.21 357.72L391.43 369.12L385.29 380.53L401.08 371.75L417.75 354.21L423.01 342.81L400.21 355.96L422.14 341.93L428.28 333.16L431.79 323.51L417.75 332.28L405.47 348.95L429.15 333.16L437.93 317.37L418.63 323.51L422.14 333.16L436.17 321.75L446.7 305.96L432.66 302.46L419.51 313.86L436.17 305.96L412.49 313.86L431.79 298.95L404.59 302.46L431.79 300.7L418.63 304.21L423.01 324.39L436.17 309.47L439.68 299.82L416 295.44L402.84 303.33L391.43 317.37L419.51 309.47L434.42 304.21L419.51 314.74L414.24 328.77L424.77 325.26L435.29 316.49L443.19 297.19L437.05 282.28L415.12 281.4L399.33 287.54L383.54 312.11L421.26 298.07L437.05 282.28L408.1 298.95L389.68 321.75L384.42 337.54L386.17 348.07L411.61 339.3L427.4 325.26L412.49 324.39L396.7 338.42L388.8 350.7L400.21 339.3L412.49 321.75L416.87 309.47L398.45 314.74L387.05 328.77L394.94 321.75L376.52 329.65L368.63 345.44L355.47 364.74L329.15 387.54L285.29 420L266 434.91L291.43 412.11L309.86 391.93L322.14 377.02L331.79 362.98L357.22 334.04L371.26 319.12L380.03 310.35L371.26 322.63L354.59 342.81L330.91 370.88L343.19 362.98L360.73 340.18L378.28 314.74L384.42 298.95L368.63 305.96L351.96 323.51L336.17 343.68L350.21 332.28L373.89 304.21L387.05 284.91L394.94 267.37L372.14 272.63L354.59 287.54L367.75 284.04L383.54 267.37L389.68 251.58L373.01 247.19L356.35 253.33L343.19 262.98L358.98 254.21L373.89 241.93L374.77 231.4L383.54 224.39L392.31 215.61L382.66 220.88L374.77 239.3L386.17 239.3L402.84 232.28L387.93 246.32L398.45 238.42L401.08 226.14L389.68 226.14L376.52 232.28L384.42 223.51L372.14 227.02" id="c4wPjrmC4"></path><path d="M219.51 583.16L213.36 591.05L223.89 586.67L225.65 576.14L215.12 574.39L205.47 577.89L201.08 587.54L193.19 593.68L202.84 590.18L196.7 598.07L198.45 586.67L190.56 592.81L194.07 602.46L194.94 612.98L193.19 623.51L190.56 633.16L189.68 622.63L190.56 612.11L189.68 622.63L193.19 608.6L194.07 597.19L197.58 586.67L198.45 597.19L196.7 607.72L194.07 617.37L202.84 610.35L205.47 600.7L201.96 612.98L212.49 610.35L218.63 602.46L208.98 610.35L199.33 622.63L208.98 618.25L216.87 611.23L222.14 601.58L226.52 591.93L216.87 597.19L208.1 602.46L215.12 593.68L223.01 587.54L216.87 596.32L226.52 593.68L230.91 584.04L227.4 593.68L235.29 587.54L235.29 577.02L232.66 567.37L231.79 555.09L228.28 566.49L226.52 577.89L233.54 570L222.14 573.51L230.03 566.49L220.38 569.12L216 578.77L223.01 570.88L228.28 562.11L216.87 567.37L210.73 577.89L221.26 569.12L210.73 571.75L204.59 580.53L216 574.39L208.1 582.28L203.72 592.81L214.24 586.67L204.59 589.3L214.24 591.93L221.26 584.04L215.12 592.81L208.98 601.58L202.84 612.98L214.24 612.98L221.26 603.33L212.49 611.23L204.59 619.12L203.72 605.09L208.1 594.56L212.49 584.91L216.87 574.39L221.26 584.04L217.75 594.56L225.65 587.54L229.15 577.89L223.01 585.79L229.15 576.14L230.91 564.74L229.15 553.33L219.51 557.72L214.24 567.37L210.73 577.89L204.59 586.67L194.94 590.18L192.31 579.65L191.43 591.05L194.07 601.58L195.82 612.98L194.94 623.51L203.72 616.49L200.21 626.14L189.68 630.53L180.03 626.14L184.42 616.49L189.68 606.84L192.31 595.44L198.45 603.33L208.1 600.7L198.45 605.09L205.47 593.68L210.73 582.28L203.72 593.68L200.21 603.33L195.82 613.86L205.47 606.84L213.36 598.07L221.26 590.18L222.14 577.89L223.89 566.49L226.52 556.84" id="af1YqAzj7"></path><path d="M342.31 173.51L337.93 183.16L333.54 193.68L328.28 202.46L322.14 210.35L316.87 219.12L311.61 227.89L305.47 235.79L301.96 245.44L294.94 254.21L290.56 264.74L284.42 273.51L281.79 283.16L278.28 293.68L273.89 303.33L270.38 312.98L265.12 321.75L259.86 330.53L254.59 340.18L251.08 349.82L244.94 361.23L240.56 370.88L234.42 378.77L230.91 388.42L230.91 399.82L237.93 391.93L239.68 381.4L242.31 371.75L245.82 362.11L251.08 351.58L255.47 341.93L258.98 332.28L265.12 323.51L270.38 313.86L275.65 304.21L280.03 294.56L286.17 285.79L289.68 276.14L294.07 266.49L299.33 257.72L303.72 247.19L311.61 238.42L316.87 228.77L323.01 219.12L325.65 209.47L329.15 199.82L334.42 191.05L337.93 181.4L344.94 173.51L353.72 180.53L343.19 183.16L351.96 188.42L341.43 189.3L349.33 196.32L338.8 199.82L330.03 193.68L337.93 187.54L337.93 198.07" id="b3ORsPEEcS"></path><path d="M418.63 71.75L407.22 77.89L417.75 77.89L424.77 70L417.75 60.35L407.22 59.47L417.75 60.35L411.61 52.46L400.21 55.96L409.86 53.33L401.08 47.19L390.56 48.07L400.21 51.58L395.82 62.98L397.58 73.51L401.08 84.04L408.98 91.05L419.51 91.05L430.03 82.28L430.03 71.75L417.75 62.98L407.22 59.47L394.94 60.35L384.42 68.25L376.52 81.4L373.01 91.93L375.65 103.33L388.8 104.21L399.33 96.32L408.1 85.79L408.1 72.63L401.08 63.86L391.43 60.35L380.91 64.74L391.43 62.11L383.54 68.25L389.68 59.47L391.43 48.95L386.17 59.47L384.42 70L381.79 79.65L379.15 90.18L376.52 101.58L372.14 112.11L366.87 121.75L365.12 109.47L366.87 98.95L364.24 110.35L361.61 121.75L359.86 133.16L358.1 143.68L363.36 134.91L366 125.26L360.73 134.91L357.22 145.44L369.51 146.32L377.4 139.3L367.75 135.79L362.49 144.56L372.14 148.07L386.17 143.68L376.52 146.32L381.79 155.96L393.19 155.09L400.21 146.32L394.07 154.21L404.59 156.84L408.1 147.19L398.45 144.56L389.68 150.7L394.07 160.35L404.59 161.23L403.72 148.07L395.82 141.05L386.17 137.54L375.65 136.67L379.15 146.32L388.8 150.7L399.33 154.21L409.86 156.84L419.51 161.23L430.91 166.49L440.56 170L450.21 175.26L461.61 177.02L472.14 178.77L482.66 178.77L492.31 182.28L501.96 184.91L512.49 183.16L516 173.51L519.51 163.86L524.77 154.21L530.03 144.56L537.93 136.67L546.7 130.53L554.59 124.39L560.73 115.61L561.61 105.09L556.35 95.44L549.33 87.54L540.56 82.28L530.91 78.77L519.51 76.14L508.98 73.51L498.45 71.75L487.93 70.88L478.28 68.25L467.75 66.49L457.22 62.11L447.58 57.72L438.8 52.46L429.15 48.07L418.63 46.32L408.1 48.95L402.84 57.72L398.45 68.25L397.58 79.65L393.19 89.3L387.93 98.07L380.91 106.84L391.43 100.7L394.94 83.16L399.33 73.51L404.59 64.74L429.15 62.11L439.68 65.61L449.33 69.12L459.86 71.75L469.51 74.39L481.79 77.02L492.31 79.65L503.72 82.28L513.36 84.91L523.01 88.42L534.42 92.81L544.07 97.19L542.31 84.91L534.42 77.89L523.89 76.14L513.36 76.14L502.84 76.14L493.19 73.51L480.03 72.63L467.75 70L457.22 68.25L444.07 65.61L433.54 62.98L423.89 57.72L415.12 52.46L404.59 48.07L413.36 41.93L428.28 45.44L440.56 47.19L451.96 48.95L463.36 48.95L473.01 52.46L482.66 55.96L492.31 59.47L501.96 64.74L510.73 70L522.14 71.75L531.79 74.39L542.31 76.14L551.96 80.53L558.1 88.42L566.87 96.32L557.22 101.58L550.21 93.68L543.19 84.91L531.79 79.65L521.26 76.14L511.61 73.51L497.58 70L487.93 66.49L478.28 59.47L468.63 52.46L458.98 48.07L447.58 48.95L456.35 55.96L466.87 58.6L479.15 59.47L489.68 59.47L499.33 62.11L490.56 68.25L479.15 70L468.63 65.61L458.98 61.23L446.7 55.96L435.29 55.09L423.89 53.33L414.24 49.82L403.72 45.44L395.82 51.58L392.31 61.23L390.56 72.63L388.8 84.04L384.42 93.68L379.15 103.33L380.03 92.81L382.66 81.4L376.52 91.05L373.89 101.58L372.14 112.11L367.75 121.75L361.61 129.65L356.35 139.3L356.35 149.82L366.87 153.33L377.4 150.7L387.05 144.56L388.8 134.04L383.54 124.39L376.52 115.61L377.4 104.21L371.26 115.61L370.38 126.14L373.01 135.79L384.42 142.81L394.07 148.07L403.72 150.7L405.47 161.23L415.12 164.74L425.65 165.61L434.42 170.88L444.94 172.63L455.47 174.39L466 177.02L473.89 184.91L484.42 188.42L494.07 184.91L501.96 191.05L512.49 190.18L518.63 181.4L523.89 172.63L528.28 162.98L532.66 152.46L537.05 142.81L545.82 136.67L541.43 146.32L535.29 154.21L527.4 160.35L530.03 141.93L541.43 122.63L545.82 112.98L550.21 103.33L556.35 112.11L550.21 120.88L552.84 110.35L554.59 99.82L550.21 90.18L539.68 88.42L533.54 97.19L534.42 107.72L535.29 119.12L542.31 110.35L544.07 98.95L538.8 90.18L529.15 86.67L518.63 84.91L508.1 84.91L494.94 84.04L483.54 82.28L473.01 80.53L461.61 77.02L448.45 70.88L438.8 68.25L426.52 68.25L416 76.14L413.36 85.79L424.77 85.79L435.29 82.28L444.94 76.14L442.31 66.49L430.91 64.74L421.26 67.37L411.61 70.88L403.72 80.53L403.72 91.05L414.24 93.68L430.91 91.05L444.07 83.16L450.21 72.63L436.17 58.6L424.77 55.96L412.49 55.96L401.08 60.35L401.96 98.07L416 95.44L430.03 89.3L439.68 83.16L446.7 74.39L437.93 65.61L425.65 65.61L410.73 72.63L401.96 82.28L398.45 91.93L401.08 102.46L408.98 109.47L419.51 110.35L426.52 101.58L423.89 91.93L413.36 89.3L403.72 92.81L394.94 99.82L388.8 108.6L388.8 119.12L398.45 125.26L416.87 120.88L423.89 112.11L425.65 101.58L416 94.56L404.59 93.68L391.43 97.19L384.42 105.96L382.66 116.49L383.54 127.02L393.19 132.28L404.59 132.28L412.49 126.14L415.12 116.49L407.22 109.47L390.56 108.6L375.65 113.86L370.38 122.63L371.26 133.16L380.91 139.3L394.07 137.54L404.59 133.16L410.73 125.26L409.86 114.74L396.7 111.23L384.42 113.86L380.03 124.39L388.8 132.28L400.21 132.28L409.86 127.89L412.49 117.37L401.96 112.98L390.56 114.74L382.66 123.51L380.91 134.91L386.17 143.68L399.33 144.56L409.86 141.05L416.87 133.16L416.87 122.63L408.1 113.86L390.56 113.86L380.91 123.51L386.17 135.79L399.33 136.67L408.1 128.77L408.98 118.25L396.7 111.23L384.42 111.23L373.01 111.23L366.87 119.12L371.26 132.28L383.54 139.3L395.82 140.18L408.98 132.28L405.47 121.75L394.94 121.75L385.29 127.02L380.03 138.42L387.05 150.7L398.45 153.33L411.61 151.58L423.89 141.05L430.03 129.65L420.38 127.02L408.98 133.16L410.73 143.68L422.14 144.56L432.66 141.93L423.89 134.04L417.75 142.81L428.28 150.7L443.19 148.95L449.33 140.18L439.68 136.67L429.15 137.54L419.51 144.56L417.75 155.09L434.42 165.61L451.96 155.96L423.89 153.33L431.79 161.23L444.07 162.11L456.35 154.21L452.84 143.68L441.43 144.56L436.17 154.21L439.68 165.61L451.08 170L461.61 168.25L475.65 165.61L476.52 155.09L465.12 156.84L459.86 166.49L466 177.02L478.28 177.02L485.29 168.25L480.03 156.84L466 150.7L454.59 149.82L444.07 155.96L446.7 166.49L458.1 172.63L472.14 173.51L481.79 167.37L480.03 156.84L468.63 151.58L458.1 154.21L458.1 165.61L471.26 170.88L483.54 168.25L490.56 158.6L480.03 153.33L470.38 159.47L466.87 169.12L477.4 175.26L487.93 176.14L494.94 168.25L483.54 167.37L480.91 179.65L491.43 183.16L503.72 179.65L510.73 171.75L501.96 166.49L508.1 176.14L520.38 169.12L523.01 158.6L520.38 148.07L506.35 148.95L498.45 157.72L498.45 168.25L507.22 176.14L516.87 170L516 159.47L504.59 154.21L494.94 156.84L487.93 168.25L493.19 178.77L507.22 182.28L520.38 172.63L523.89 162.98L518.63 152.46L503.72 152.46L494.07 156.84L489.68 166.49L504.59 167.37L516.87 159.47L521.26 147.19L519.51 136.67L505.47 134.04L497.58 145.44L505.47 152.46L517.75 150.7L524.77 141.93L525.65 129.65L517.75 120L502.84 123.51L498.45 133.16L508.1 138.42L519.51 136.67L525.65 128.77L530.03 117.37L513.36 113.86L502.84 122.63L504.59 134.04L519.51 138.42L528.28 133.16L533.54 121.75L522.14 115.61L511.61 124.39L512.49 134.91L523.01 135.79L535.29 130.53L539.68 119.12L529.15 110.35L512.49 115.61L506.35 124.39L509.86 134.91L519.51 137.54L530.91 134.91L518.63 134.91L509.86 143.68L499.33 156.84L493.19 165.61L489.68 176.14L503.72 169.12L513.36 161.23L520.38 150.7L527.4 136.67L529.15 125.26L515.12 128.77L505.47 141.05L500.21 154.21L513.36 156.84L521.26 149.82L530.03 137.54L520.38 133.16L505.47 152.46L513.36 143.68L523.89 131.4L530.03 109.47L518.63 112.98L529.15 112.98L531.79 99.82L520.38 97.19L515.12 110.35L524.77 114.74L532.66 105.09L532.66 92.81L523.01 90.18L512.49 94.56L503.72 104.21L510.73 112.11L523.01 105.96L527.4 96.32L523.01 86.67L505.47 89.3L497.58 99.82L500.21 110.35L511.61 114.74L522.14 111.23L523.89 98.07L509.86 89.3L496.7 89.3L485.29 96.32L495.82 102.46L505.47 96.32L503.72 85.79L491.43 87.54L501.08 91.05L490.56 84.04L476.52 86.67L471.26 95.44L483.54 98.07L492.31 91.93L484.42 84.04L471.26 87.54L478.28 96.32L486.17 90.18L480.91 81.4L469.51 79.65L458.98 84.04L451.96 92.81L464.24 91.93L466.87 80.53L456.35 75.26L442.31 76.14L436.17 84.91L448.45 84.91L456.35 76.14L449.33 68.25L438.8 67.37L428.28 75.26L430.91 88.42L444.07 86.67L441.43 77.02L428.28 83.16L420.38 97.19L422.14 107.72L444.07 103.33L451.96 92.81L451.96 81.4L441.43 77.89L430.91 77.89L419.51 81.4L411.61 89.3L410.73 99.82L433.54 94.56L441.43 85.79L438.8 76.14L423.89 80.53L413.36 97.19L423.89 105.09L435.29 97.19L440.56 85.79L425.65 94.56L416 107.72L411.61 120L415.12 129.65L434.42 113.86L441.43 104.21L430.03 102.46L418.63 111.23L433.54 112.11L440.56 102.46L430.91 110.35L423.01 120.88L439.68 118.25L427.4 119.12L424.77 128.77L439.68 134.04L454.59 128.77L461.61 119.12L450.21 118.25L441.43 127.02L437.93 139.3L450.21 144.56L460.73 139.3L468.63 130.53L466 120L454.59 112.98L433.54 118.25L425.65 127.89L430.91 137.54L447.58 137.54L458.1 132.28L461.61 121.75L455.47 111.23L443.19 107.72L431.79 108.6L419.51 121.75L418.63 134.04L431.79 140.18L442.31 138.42L452.84 134.91L463.36 127.02L464.24 115.61L452.84 115.61L438.8 125.26L437.93 136.67L458.1 137.54L465.12 129.65L462.49 119.12L452.84 115.61L440.56 127.02L443.19 140.18L478.28 140.18L463.36 148.95L480.03 147.19L489.68 138.42L478.28 131.4L470.38 138.42L480.03 147.19L487.93 140.18L480.91 131.4L470.38 130.53L458.98 140.18L462.49 151.58L476.52 155.96L487.05 155.96L498.45 149.82L500.21 139.3L491.43 133.16L480.91 143.68L488.8 152.46L499.33 151.58L507.22 139.3L500.21 129.65L485.29 136.67L487.93 148.07L504.59 145.44L511.61 131.4L508.1 121.75L494.07 116.49L487.93 127.02L500.21 130.53L509.86 124.39L509.86 111.23L497.58 106.84L487.05 112.11L483.54 123.51L493.19 131.4L504.59 127.89L512.49 121.75L513.36 109.47L501.08 105.96L487.05 114.74L481.79 127.89L495.82 128.77L508.1 118.25L508.1 106.84L498.45 101.58L486.17 107.72L476.52 123.51L490.56 126.14L501.08 119.12L499.33 108.6L488.8 103.33L478.28 104.21L465.12 111.23L458.98 119.12L472.14 121.75L484.42 118.25L487.93 108.6L473.89 99.82L455.47 109.47L451.08 120L468.63 120.88L480.91 115.61L484.42 103.33L468.63 98.07L458.98 105.09L451.96 116.49L463.36 123.51L475.65 120L483.54 111.23L481.79 100.7L468.63 91.93L458.1 91.93L447.58 98.95L445.82 109.47L465.12 110.35L474.77 104.21L471.26 93.68L454.59 92.81L440.56 101.58L437.93 112.11L452.84 112.11L467.75 105.96L469.51 94.56L458.98 92.81L445.82 98.07L436.17 112.11L445.82 119.12L468.63 116.49L478.28 112.11L472.14 103.33L458.1 105.96L464.24 98.07L446.7 97.19L455.47 106.84L444.94 117.37L430.03 128.77L422.14 135.79L433.54 130.53L452.84 121.75L461.61 115.61L442.31 106.84L427.4 105.96L415.12 95.44L410.73 80.53L396.7 76.14L388.8 87.54L381.79 98.07L378.28 110.35L375.65 126.14L370.38 136.67L359.86 134.91L352.84 142.81L343.19 140.18L354.59 137.54L364.24 143.68L353.72 142.81L368.63 142.81L382.66 142.81L394.07 143.68L407.22 142.81L422.14 138.42L433.54 131.4L444.94 120.88L454.59 123.51L464.24 127.02" id="d1fE52hNdO"></path><path d="M592.84 565.79L582.58 561.12L567.65 548.07L556.46 540.6L546.2 532.21L536.87 525.68L528.48 517.28L520.08 507.96L511.69 497.7L504.22 489.3L493.96 477.17L487.43 467.85L479.97 457.59L472.51 450.12L463.18 441.73L455.72 432.4L442.66 419.34L433.33 410.01L424.94 403.48L418.41 395.09L406.28 379.23L398.82 366.17L393.22 356.84L381.1 342.85L371.77 332.59L363.37 323.26L353.11 313.94L341.92 300.88L333.53 290.62L326.06 282.22L319.53 273.83L310.21 259.84L300.88 247.71L290.62 233.72L280.36 219.73L267.3 202L254.24 186.15L245.84 177.75L236.52 167.49L227.19 158.16L219.73 150.7L205.73 138.57L192.67 127.38L183.35 119.92L173.09 113.39L161.89 104.99L149.77 94.73L142.3 87.27L132.04 79.81L122.72 76.08L112.46 70.48L103.13 65.82L93.8 61.15L83.54 55.56L74.21 50.89L63.95 45.29" id="f5zi2ARrPM"></path></defs><g visibility="inherit"><g visibility="inherit"><g visibility="inherit"><g visibility="inherit"><g visibility="inherit"><g><use xlink:href="#bd1buFp9X" opacity="1" fill-opacity="0" stroke="#000000" stroke-width="6" stroke-opacity="1"></use></g></g><g visibility="inherit"><g><use xlink:href="#a223FeTAbl" opacity="1" fill-opacity="0" stroke="#000000" stroke-width="6" stroke-opacity="1"></use></g></g><g visibility="inherit"><use xlink:href="#b1iEus28PH" opacity="1" fill="#000000" fill-opacity="0"></use><g><use xlink:href="#b1iEus28PH" opacity="1" fill-opacity="0" stroke="#000000" stroke-width="6" stroke-opacity="1"></use></g></g><g visibility="inherit"><g><use xlink:href="#b5FDlAdMMu" opacity="1" fill-opacity="0" stroke="#000000" stroke-width="6" stroke-opacity="1"></use></g></g></g><g visibility="inherit"><g><use xlink:href="#c4wPjrmC4" opacity="1" fill-opacity="0" stroke="#000000" stroke-width="6" stroke-opacity="1"></use></g></g><g visibility="inherit"><g><use xlink:href="#af1YqAzj7" opacity="1" fill-opacity="0" stroke="#000000" stroke-width="6" stroke-opacity="1"></use></g></g><g visibility="inherit"><g><use xlink:href="#b3ORsPEEcS" opacity="1" fill-opacity="0" stroke="#000000" stroke-width="6" stroke-opacity="1"></use></g></g><g visibility="inherit"><g><use xlink:href="#d1fE52hNdO" opacity="1" fill-opacity="0" stroke="#000000" stroke-width="6" stroke-opacity="1"></use></g></g></g><g visibility="inherit"><g><use xlink:href="#f5zi2ARrPM" opacity="1" fill-opacity="0" stroke="#000000" stroke-width="60" stroke-opacity="1"></use></g></g></g></g></svg>