<?xml version="1.0" encoding="UTF-8" standalone="no"?>
<!-- Created with Inkscape (http://www.inkscape.org/) -->

<svg
   xmlns:dc="http://purl.org/dc/elements/1.1/"
   xmlns:cc="http://creativecommons.org/ns#"
   xmlns:rdf="http://www.w3.org/1999/02/22-rdf-syntax-ns#"
   xmlns:svg="http://www.w3.org/2000/svg"
   xmlns="http://www.w3.org/2000/svg"
   xmlns:sodipodi="http://sodipodi.sourceforge.net/DTD/sodipodi-0.dtd"
   xmlns:inkscape="http://www.inkscape.org/namespaces/inkscape"
   width="200"
   height="179.362"
   viewBox="0 0 200.00001 179.36199"
   id="svg2"
   version="1.1"
   inkscape:version="0.91 r"
   sodipodi:docname="drawing-medium.svg">
  <defs
     id="defs4">
    <clipPath
       clipPathUnits="userSpaceOnUse"
       id="clipPath4261">
      <rect
         style="fill:#999999;fill-opacity:1;fill-rule:nonzero;stroke:none;stroke-width:22.95400047;stroke-linejoin:round;stroke-miterlimit:4;stroke-dasharray:none;stroke-opacity:1"
         id="rect4263"
         width="88.435028"
         height="143.10039"
         x="135.19194"
         y="38.001968" />
    </clipPath>
    <clipPath
       clipPathUnits="userSpaceOnUse"
       id="clipPath4267">
      <rect
         style="fill:#999999;fill-opacity:1;fill-rule:nonzero;stroke:none;stroke-width:22.95400047;stroke-linejoin:round;stroke-miterlimit:4;stroke-dasharray:none;stroke-opacity:1"
         id="rect4269"
         width="73.080711"
         height="112.54429"
         x="217.78052"
         y="184.16339" />
    </clipPath>
    <clipPath
       clipPathUnits="userSpaceOnUse"
       id="clipPath4309">
      <rect
         style="fill:#999999;fill-opacity:1;fill-rule:nonzero;stroke:none;stroke-width:22.95400047;stroke-linejoin:round;stroke-miterlimit:4;stroke-dasharray:none;stroke-opacity:1"
         id="rect4311"
         width="13.211707"
         height="15.425219"
         x="474.05396"
         y="143.66931" />
    </clipPath>
    <clipPath
       clipPathUnits="userSpaceOnUse"
       id="clipPath4321">
      <rect
         style="fill:#999999;fill-opacity:1;fill-rule:nonzero;stroke:none;stroke-width:22.95400047;stroke-linejoin:round;stroke-miterlimit:4;stroke-dasharray:none;stroke-opacity:1"
         id="rect4323"
         width="9.6186342"
         height="39.520039"
         x="488.45932"
         y="213.24094" />
    </clipPath>
    <clipPath
       clipPathUnits="userSpaceOnUse"
       id="clipPath4331">
      <rect
         style="fill:#999999;fill-opacity:1;fill-rule:nonzero;stroke:none;stroke-width:22.95400047;stroke-linejoin:round;stroke-miterlimit:4;stroke-dasharray:none;stroke-opacity:1"
         id="rect4333"
         width="10.245936"
         height="18.191765"
         x="512.50592"
         y="264.67972" />
    </clipPath>
    <clipPath
       clipPathUnits="userSpaceOnUse"
       id="clipPath4694-1">
      <rect
         style="fill:none;fill-opacity:1;fill-rule:nonzero;stroke:#000000;stroke-width:2;stroke-linejoin:round;stroke-miterlimit:4;stroke-dasharray:none;stroke-opacity:1"
         id="rect4696-9"
         width="134.4888"
         height="200.46445"
         x="10.906033"
         y="46.762753" />
    </clipPath>
    <clipPath
       clipPathUnits="userSpaceOnUse"
       id="clipPath4778">
      <rect
         style="fill:none;fill-opacity:1;fill-rule:nonzero;stroke:#000000;stroke-width:2.27138782;stroke-linejoin:round;stroke-miterlimit:4;stroke-dasharray:none;stroke-opacity:1"
         id="rect4780"
         width="78.899384"
         height="205.58833"
         x="76.008698"
         y="37.455727" />
    </clipPath>
    <clipPath
       clipPathUnits="userSpaceOnUse"
       id="clipPath4790">
      <path
         style="fill:none;fill-rule:evenodd;stroke:#000000;stroke-width:0.99514848px;stroke-linecap:butt;stroke-linejoin:miter;stroke-opacity:1"
         d="m 113.29328,68.01403 c 0.21398,0.10596 0.50374,-0.10595 0.71772,0 0.15131,0.0749 0.20755,0.28046 0.35886,0.35539 0.10699,0.053 0.25187,-0.053 0.35886,0 0.15131,0.0749 0.20755,0.28046 0.35886,0.35539 0.21398,0.10595 0.54855,-0.16754 0.71772,0 0.0846,0.0838 -0.0846,0.27161 0,0.35538 0.0846,0.0838 0.24538,-0.0374 0.35886,0 0.25375,0.0838 0.47848,0.23693 0.71772,0.35539 0.23924,0.11846 0.49517,0.20845 0.71772,0.35538 0.14076,0.0929 0.20755,0.28046 0.35886,0.35539 0.22555,0.11168 1.20989,-0.11169 1.43544,0 0.30262,0.14985 0.4151,0.56093 0.71772,0.71077 0.10699,0.053 0.25187,-0.053 0.35886,0 0.30262,0.14985 0.41511,0.56093 0.71772,0.71078 0.10699,0.053 0.25187,-0.053 0.35886,0 0.30262,0.14984 0.41511,0.56092 0.71772,0.71077 0.10699,0.053 0.25187,-0.053 0.35886,0 0.30262,0.14984 0.41511,0.56093 0.71772,0.71077 0.107,0.053 0.27428,-0.0838 0.35886,0 0.18914,0.18731 0.16973,0.52347 0.35886,0.71077 0.16917,0.16754 0.50374,-0.10595 0.71772,0 0.30262,0.14985 0.43621,0.52492 0.71772,0.71078 0.22256,0.14693 0.49517,0.20845 0.71773,0.35538 0.14075,0.0929 0.20755,0.28047 0.35886,0.35539 0.10699,0.053 0.24537,-0.0374 0.35886,0 0.25375,0.0838 0.47848,0.23692 0.71772,0.35539 0.23924,0.11846 0.52858,0.16808 0.71772,0.35538 0.0846,0.0838 -0.0846,0.27163 0,0.35539 0.18913,0.18731 0.49516,0.20845 0.71772,0.35539 0.14075,0.0929 0.23924,0.23692 0.35886,0.35538 0.11962,0.11846 0.2832,0.20554 0.35886,0.35539 0.0535,0.10595 -0.0846,0.27162 0,0.35539 0.0846,0.0838 0.24538,-0.0374 0.35886,0 0.25375,0.0838 0.52858,0.16808 0.71772,0.35538 0.0846,0.0838 -0.0535,0.24943 0,0.35539 0.0756,0.14984 0.2832,0.20554 0.35886,0.35538 0.0535,0.10596 -0.0535,0.24944 0,0.35539 0.0756,0.14985 0.2832,0.20554 0.35886,0.35539 0.0535,0.10595 -0.0846,0.27162 0,0.35538 0.18913,0.18731 0.52858,0.16809 0.71772,0.35539 0.0846,0.0838 -0.0846,0.27163 0,0.35539 0.18913,0.18731 0.52858,0.16808 0.71772,0.35538 0.0846,0.0838 -0.0378,0.24301 0,0.35539 0.0846,0.2513 0.21049,0.49038 0.35886,0.71077 0.21778,0.32352 0.91754,0.75117 1.07658,1.06616 0.0535,0.10597 -0.0846,0.27163 0,0.35539 0.18914,0.18731 0.52858,0.16809 0.71772,0.35539 0.0846,0.0838 -0.0846,0.27162 0,0.35539 0.18914,0.1873 0.52858,0.16808 0.71772,0.35539 0.0846,0.0838 -0.0846,0.27161 0,0.35538 0.18914,0.1873 0.52858,0.16808 0.71772,0.35539 0.18914,0.1873 0.21049,0.49037 0.35886,0.71077 0.35204,0.52294 1.08341,0.8986 1.43544,1.42155 0.41236,0.61254 0.35886,0.53719 0.35886,1.06616 0,0.11846 -0.0535,0.24943 0,0.35538 0.0757,0.14985 0.30537,0.19645 0.35886,0.35539 0.0814,0.24177 -0.0951,1.58849 0,1.77693 0.0757,0.14985 0.30537,0.19645 0.35886,0.35539 0.0757,0.22476 -0.10699,0.49886 0,0.71077 0.0535,0.10596 0.30537,-0.10595 0.35886,0 0.10699,0.21191 -0.058,0.48092 0,0.71077 0.19453,0.77057 0.88206,1.00637 1.07658,1.77694 0.0893,0.3538 -0.11146,1.91155 0,2.13232 0.15131,0.29969 0.56641,0.41108 0.71772,0.71077 0.10699,0.21191 -0.058,0.48092 0,0.71077 0.2602,1.03071 0.27998,0.4159 0.71772,1.06616 0.81328,1.20811 0.0481,0.1906 0.35886,1.42155 -0.21629,0.64323 0.58134,0.66096 0.71772,1.06616 0.22697,0.31891 -0.11348,0.72901 0,1.06615 0.0846,0.25131 0.23924,0.47385 0.35886,0.71078 l 0.71772,1.42155 c 0.11962,0.23693 0.27428,0.45947 0.35886,0.71078 0.0378,0.11238 -0.0535,0.24942 0,0.35538 0.54719,1.08377 0.2845,-0.64998 0.71772,1.06616 0.058,0.22984 -0.058,0.48092 0,0.71077 0.0649,0.25698 0.27428,0.45947 0.35886,0.71078 0.15597,0.46336 0.2029,0.95817 0.35886,1.42154 0.0846,0.2513 0.29399,0.4538 0.35887,0.71078 0.058,0.22984 -0.058,0.48091 0,0.71077 0.0649,0.25698 0.25952,0.46482 0.35886,0.71077 0.14048,0.34782 0.23924,0.71077 0.35886,1.06616 0.23924,0.71077 0.50988,1.41193 0.71772,2.13232 0.13549,0.46964 0.20289,0.95817 0.35886,1.42154 0.39047,1.1601 0.4688,0.2979 0.71772,1.77694 0.059,0.35055 -0.11349,0.72901 0,1.06616 0.13638,0.40521 0.55754,0.66958 0.71772,1.06616 0.0889,0.21997 -0.0469,0.47845 0,0.71077 0.0742,0.36734 0.29667,0.69665 0.35886,1.06616 0.13578,0.80682 -0.13579,1.68089 0,2.4877 0.044,0.26129 0.29398,0.4538 0.35886,0.71078 0.058,0.22985 -0.0393,0.47707 0,0.71078 l 0.35886,1.42154 c 0,0.35539 -0.059,0.71561 0,1.06616 0.0622,0.36951 0.30536,0.69532 0.35886,1.06616 0.0677,0.46909 -0.0677,0.95246 0,1.42155 0.0535,0.37084 0.25494,0.70596 0.35886,1.06616 0.13549,0.46964 0.23924,0.94769 0.35886,1.42154 0.11962,0.47385 0.29768,0.93689 0.35886,1.42155 0.0593,0.47019 -0.0593,0.95136 0,1.42154 0.0612,0.48467 0.29768,0.93689 0.35886,1.42155 0.0593,0.47019 -0.0593,0.95136 0,1.42154 0.12235,0.96933 0.60879,1.87221 0.71772,2.8431 0.0925,0.82416 0,1.65847 0,2.4877 l 0,4.62003 0,14.92623 0,14.92624 0,4.97541 0,1.42155 c 0,0.59231 0.0661,1.18824 0,1.77693 -0.0545,0.48545 -0.30979,0.93555 -0.35886,1.42156 -0.26317,2.60616 0.2193,1.52026 0,3.90925 -0.0659,0.71761 -0.21616,1.42573 -0.35886,2.13232 -0.0967,0.47894 -0.35886,0.93311 -0.35886,1.42154 0,0.48844 0.30978,0.93554 0.35886,1.42155 0.0714,0.70724 0,1.42154 0,2.13232 l 0,4.9754 0,3.55388 c 0,0.71077 0.12839,1.433 0,2.13232 -0.11524,0.62764 -0.56149,1.15804 -0.71772,1.77693 -0.087,0.34477 0.0507,0.71434 0,1.06616 -0.0697,0.48352 -0.25187,0.94474 -0.35886,1.42154 -0.13232,0.58966 -0.22655,1.18728 -0.35886,1.77694 -0.10699,0.4768 -0.28911,0.93802 -0.35886,1.42154 -0.0508,0.35181 0.11348,0.72902 0,1.06616 -0.13639,0.4052 -0.47848,0.71077 -0.71772,1.06616 -0.23924,0.59231 -0.56149,1.15804 -0.71772,1.77693 -0.087,0.34478 0.0507,0.71435 0,1.06616 -0.0697,0.48353 -0.27778,0.93977 -0.35886,1.42155 -0.0393,0.2337 0,0.47385 0,0.71077 -0.11962,0.71077 -0.18239,1.43326 -0.35886,2.13232 -0.0649,0.25699 -0.27428,0.45948 -0.35886,0.71077 -0.15597,0.46337 -0.22337,0.95192 -0.35886,1.42156 -0.10392,0.36019 -0.29668,0.69664 -0.35886,1.06616 -0.059,0.35054 0,0.71077 0,1.06616 0,0.47384 0.0787,0.95414 0,1.42154 -0.044,0.26129 -0.27428,0.45947 -0.35886,0.71077 -0.15597,0.46337 -0.26214,0.9426 -0.35886,1.42155 -0.0235,0.11616 0.0535,0.24943 0,0.35539 -0.19289,0.38202 -0.49583,0.69991 -0.71773,1.06616 -0.13761,0.22714 -0.23924,0.47384 -0.35886,0.71077 -0.23924,0.35538 -0.49582,0.69991 -0.71772,1.06616 -0.27523,0.45428 -0.42098,0.98074 -0.71772,1.42154 -0.33176,0.49284 -0.69368,0.96653 -1.07658,1.42155 -0.21659,0.2574 -0.47848,0.47385 -0.71772,0.71077 -0.23924,0.23693 -0.44705,0.50974 -0.71772,0.71077 -0.21398,0.15894 -0.52858,0.16809 -0.71772,0.35539 -0.30497,0.30202 -0.44829,0.73264 -0.71772,1.06616 -0.21136,0.26164 -0.54365,0.42346 -0.71772,0.71077 -0.19462,0.32123 -0.26711,0.70274 -0.35886,1.06616 -0.029,0.11493 0.0663,0.25682 0,0.35539 -4.00818,5.95408 0.60077,-1.26713 -2.51202,2.84309 -0.0718,0.0948 0.0747,0.26289 0,0.35539 -0.42271,0.52328 -1.06009,0.86397 -1.43544,1.42155 -0.13271,0.19714 0.13271,0.51364 0,0.71078 -0.14837,0.22039 -0.51224,0.1858 -0.71772,0.35538 -0.51984,0.429 -0.90705,1.00292 -1.43544,1.42155 -0.0934,0.074 -0.24538,-0.0374 -0.35886,0 -0.50751,0.16752 -0.95696,0.47385 -1.43544,0.71077 -0.23924,0.11846 -0.45823,0.29113 -0.71772,0.35539 -0.2321,0.0574 -0.49076,-0.075 -0.71772,0 -0.50751,0.16753 -0.92794,0.54324 -1.43544,0.71077 -0.22697,0.0749 -0.47848,0 -0.71772,0 l -0.71772,0 c -0.47848,0 -0.97125,-0.11493 -1.43544,0 -0.51899,0.12848 -0.92794,0.54324 -1.43545,0.71077 -0.15477,0.0511 -2.3717,0 -2.51202,0 l -3.22974,0 c -0.23924,0 -0.48173,0.0389 -0.71772,0 -0.48649,-0.0803 -0.96121,-0.22121 -1.43544,-0.35538 -0.36372,-0.10292 -0.70123,-0.30893 -1.07658,-0.35539 -0.59348,-0.0735 -1.21406,0.14366 -1.7943,0 -0.41842,-0.1036 -0.70211,-0.49886 -1.07658,-0.71077 -0.46447,-0.26285 -0.93455,-0.52476 -1.43544,-0.71078 -0.0727,-0.027 -2.83406,-0.69254 -2.87088,-0.71077 -0.53496,-0.26489 -0.92826,-0.75224 -1.43544,-1.06616 -0.45365,-0.28078 -0.95696,-0.47385 -1.43544,-0.71077 -2.05931,-1.01969 -0.97672,-0.43821 -3.22975,-1.77694 -0.5981,-0.35539 -1.24372,-0.64208 -1.7943,-1.06616 -0.8012,-0.61712 -1.43544,-1.42155 -2.15316,-2.13232 -0.47848,-0.47385 -0.98985,-0.91723 -1.43544,-1.42155 -0.31715,-0.35894 -1.47905,-1.94136 -1.7943,-2.4877 -0.26541,-0.45998 -0.43419,-0.9723 -0.71772,-1.42155 -0.31699,-0.50228 -0.75959,-0.91926 -1.07658,-1.42154 -0.56705,-0.89851 -0.79349,-1.99545 -1.43544,-2.84309 -0.40601,-0.5361 -1.02944,-0.88545 -1.43544,-1.42155 -0.32098,-0.42383 -0.45792,-0.95844 -0.71772,-1.42155 -2.99444,-4.94242 0.64761,1.28269 -1.7943,-3.55386 -0.31193,-0.61783 -0.74258,-1.17053 -1.07658,-1.77694 -0.38425,-0.69763 -0.67226,-1.4459 -1.07658,-2.13232 -0.43464,-0.73788 -0.95696,-1.42155 -1.43544,-2.13232 -0.35886,-0.82923 -0.64788,-1.69166 -1.07659,-2.4877 -0.53105,-0.9861 -1.31707,-1.83037 -1.7943,-2.84309 -0.36826,-0.78152 -0.39429,-1.68698 -0.71772,-2.48771 -0.39735,-0.98377 -1.0066,-1.87237 -1.43544,-2.84309 -0.40965,-0.92729 -0.68744,-1.90719 -1.07658,-2.84309 -0.44857,-1.07885 -1.02177,-2.10606 -1.43544,-3.19849 -0.30577,-0.80751 -0.35278,-1.70466 -0.71772,-2.48771 -0.36148,-0.77561 -1.0008,-1.39444 -1.43544,-2.13231 -0.40432,-0.68641 -0.71772,-1.42155 -1.07658,-2.13232 -0.35886,-0.71077 -0.78852,-1.39062 -1.07658,-2.13232 -0.31262,-0.80493 -0.42011,-1.67721 -0.71772,-2.48771 -0.18282,-0.49788 -0.51904,-0.92966 -0.71772,-1.42154 -0.28097,-0.69563 -0.44614,-1.43304 -0.71772,-2.13232 -0.32703,-0.84205 -0.74955,-1.64566 -1.07658,-2.4877 -0.27159,-0.69929 -0.46327,-1.42676 -0.71772,-2.13232 -0.34375,-0.95319 -0.75339,-1.8829 -1.07658,-2.8431 -0.27539,-0.81816 -0.35279,-1.70466 -0.71772,-2.48771 -0.36148,-0.77562 -1.09565,-1.34714 -1.43544,-2.13232 -0.38857,-0.89787 -0.44674,-1.90381 -0.71772,-2.84309 -0.20784,-0.72039 -0.47848,-1.42154 -0.71772,-2.13232 -0.23924,-0.71077 -0.46327,-1.42674 -0.71772,-2.13232 -0.34375,-0.95317 -0.75339,-1.88289 -1.07659,-2.84309 -0.93935,-2.79079 -0.43034,-2.03208 -1.43544,-4.62003 -0.32703,-0.84204 -0.78849,-1.63182 -1.07658,-2.48771 -0.19288,-0.57303 -0.19837,-1.19416 -0.35886,-1.77693 -0.19906,-0.72281 -0.53423,-1.40546 -0.71772,-2.13232 -0.17647,-0.69905 -0.23924,-1.42154 -0.35886,-2.13231 -0.11723,-0.69661 -0.50276,-3.12872 -0.71772,-3.90925 -0.19906,-0.72283 -0.56935,-1.39765 -0.71772,-2.13232 -0.0938,-0.46465 0.0938,-0.9569 0,-1.42155 -0.14837,-0.73468 -0.53423,-1.40547 -0.71772,-2.13232 -0.17647,-0.69906 -0.23924,-1.42154 -0.35886,-2.13233 -0.11962,-0.71077 -0.28646,-1.41531 -0.35886,-2.13231 -0.0476,-0.4715 0.0938,-0.9569 0,-1.42155 -0.14837,-0.73467 -0.59334,-1.39329 -0.71772,-2.13232 -0.11799,-0.7011 0.0596,-1.424 0,-2.13232 0.17075,-1.25902 -0.59634,-2.35177 -0.71772,-3.55386 -0.0714,-0.70725 0.055,-1.42365 0,-2.13232 -0.0431,-0.55473 -0.57996,-3.9379 -0.71772,-4.62002 -0.0967,-0.47895 -0.29769,-0.9369 -0.35886,-1.42155 -0.0593,-0.47019 0,-0.94771 0,-1.42155 l 0,-6.04157 c 0,-0.71078 0.0793,-1.4259 0,-2.13232 -0.0418,-0.37232 -0.31709,-0.69384 -0.35886,-1.06616 -0.0793,-0.70643 0,-1.42155 0,-2.13232 l 0,-1.77693 c 0,-0.71077 0.10913,-1.42982 0,-2.13232 -0.13242,-0.85239 -0.56194,-1.6392 -0.71772,-2.48771 -0.0856,-0.46621 0.0938,-0.9569 0,-1.42154 -0.14837,-0.73468 -0.56935,-1.39765 -0.71772,-2.13233 -0.0938,-0.46464 0.0476,-0.95004 0,-1.42154 -0.0724,-0.71701 -0.26861,-1.41731 -0.35886,-2.13232 -0.0297,-0.2351 0,-0.47385 0,-0.71078 l 0,-2.84309 0,-1.42154 c 0,-0.23693 -0.0393,-0.47708 0,-0.71078 0.0811,-0.48179 0.27778,-0.93976 0.35886,-1.42154 0.0393,-0.23371 -0.0393,-0.47708 0,-0.71077 0.0811,-0.4818 0.27778,-0.93977 0.35886,-1.42155 0.0393,-0.23371 -0.10699,-0.49886 0,-0.71077 0.15131,-0.29969 0.56641,-0.41109 0.71772,-0.71078 0.21398,-0.42382 -0.21398,-0.99772 0,-1.42154 0.35886,-0.71077 0.71772,-0.53308 1.07658,-1.06616 0.29674,-0.44081 0.39675,-0.99773 0.71772,-1.42155 0.203,-0.26805 0.47848,-0.47384 0.71772,-0.71077 l 0.71772,-0.71078 c 0.47848,-0.47385 0.90705,-1.00292 1.43544,-1.42155 2.72245,-2.15688 -0.50006,0.51037 2.15316,-1.06616 0.29012,-0.17238 0.44705,-0.50972 0.71772,-0.71077 0.21399,-0.15893 0.48836,-0.2191 0.71772,-0.35539 0.36984,-0.21975 0.70675,-0.49102 1.07658,-0.71077 0.22937,-0.13628 0.49517,-0.20845 0.71772,-0.35539 0.14076,-0.0929 0.21811,-0.26245 0.35886,-0.35538 0.94069,-0.62105 0.62713,-0.13283 1.79431,-0.71077 0.1513,-0.0749 0.20755,-0.28046 0.35886,-0.35539 0.10699,-0.053 0.25933,0.0658 0.35886,0 1.55217,-1.53715 -0.0951,-0.0557 1.43544,-1.06616 0.14075,-0.0929 0.20755,-0.28046 0.35886,-0.35539 0.10699,-0.053 0.23924,0 0.35886,0 0.35886,-0.23692 0.73979,-0.44395 1.07658,-0.71077 0.26419,-0.20931 0.40358,-0.58633 0.71772,-0.71077 0.33319,-0.13199 0.73613,0.11238 1.07658,0 0.11348,-0.0374 -0.10699,-0.30241 0,-0.35539 0.44114,-0.21843 0.9943,-0.13695 1.43544,-0.35539 0.10699,-0.053 -0.0995,-0.28967 0,-0.35538 0.31474,-0.2078 0.73824,-0.18786 1.07658,-0.35539 0.30262,-0.14984 0.43621,-0.52492 0.71772,-0.71077 0.66251,-0.4374 1.49065,-0.62877 2.15316,-1.06616 0.14076,-0.0929 0.20755,-0.28047 0.35886,-0.35539 0.33834,-0.16753 0.73824,-0.18785 1.07658,-0.35538 0.30262,-0.14985 0.43621,-0.52492 0.71772,-0.71078 0.83808,-0.55331 2.0328,-0.86823 2.87088,-1.42154 0.14076,-0.0929 0.21811,-0.26246 0.35886,-0.35539 0.44511,-0.29387 0.99033,-0.4169 1.43544,-0.71077 0.14076,-0.0929 0.20756,-0.28047 0.35886,-0.35539 0.107,-0.053 0.24538,0.0374 0.35886,0 0.25376,-0.0838 0.45823,-0.29114 0.71772,-0.35538 0.3166,-0.0783 1.12803,0.10147 1.43545,0 2.03318,-1.00676 -0.53496,0.13244 1.43544,-0.35539 0.23277,-0.0576 1.92447,-0.91517 2.15316,-1.06616 12.06477,-7.59294 27.27337,3.55387 12.56011,-7.89145 5.18556,4.45166 7.52102,8.28209 12.20124,10.73454 z"
         id="path4792"
         inkscape:connector-curvature="0"
         sodipodi:nodetypes="ccccccccscccccccccccccccccccccscccccccccccccccccccccscscccccccccscscccsscscccccccsccscccccccccccsscccccsccccsccccscscscccsscscccccccccscccsccscccccssccccsccscscccssccsscccscsccssssccsssscsssccccssssssssssssscccscsssssscccssccscccccssccssscccccscsccccsssssssscccccccccccccsccccsccscsccccccccccc" />
    </clipPath>
    <clipPath
       clipPathUnits="userSpaceOnUse"
       id="clipPath4796">
      <path
         style="fill:none;fill-rule:evenodd;stroke:#000000;stroke-width:1px;stroke-linecap:butt;stroke-linejoin:miter;stroke-opacity:1"
         d="m 103.91798,114.85515 c -0.5981,0.47848 -1.19621,0.95696 -1.79431,1.43544 0,0.11962 0.0846,0.27428 0,0.35886 -0.18913,0.18914 -0.49516,0.21049 -0.71772,0.35886 -0.14075,0.0938 -0.23924,0.23924 -0.35886,0.35886 -0.11962,0.11962 -0.2832,0.20755 -0.35886,0.35886 -0.0535,0.10699 0.0535,0.25187 0,0.35886 -0.0756,0.15131 -0.2832,0.20755 -0.35886,0.35886 -0.0535,0.10699 0.0535,0.25187 0,0.35886 -0.0756,0.15131 -0.2832,0.20755 -0.35886,0.35886 -0.0535,0.10699 0,0.23924 0,0.35886 0,0.23924 0,0.47848 0,0.71772 0,0.47848 0,0.95696 0,1.43544 0,0.47848 0,0.95696 0,1.43544 0,0.11962 0,0.23924 0,0.35886 0,0.11962 0.11962,0.35887 0,0.35887 -0.11962,0 0,-0.47849 0,-0.35887 0,0.35887 -0.087,0.72844 0,1.07659 0.041,0.16411 0.28321,0.20755 0.35886,0.35886 0.0799,0.15968 -0.0547,1.2713 0,1.43544 0.0535,0.16048 0.28321,0.20755 0.35886,0.35886 0.0535,0.10699 -0.0378,0.24538 0,0.35886 0.0846,0.25375 0.29399,0.45822 0.35886,0.71772 0.058,0.23209 0,0.47848 0,0.71772 0,0.47848 0,0.95696 0,1.43544 0,1.55506 0,3.11012 0,4.66518 0,0.22936 -0.0517,2.04964 0,2.15316 0.15131,0.30262 0.53005,0.43621 0.71772,0.71772 0.0982,0.14733 -0.0978,1.23976 0,1.43544 0.0757,0.15131 0.28321,0.20755 0.35886,0.35886 0.11908,0.23815 -0.11601,1.80511 0,2.15316 1.0166,2.03319 -0.13373,-0.53495 0.35886,1.43544 0.0649,0.2595 0.29399,0.45823 0.35886,0.71772 0.0706,0.28229 0,1.77998 0,2.15317 0,0.11962 -0.0535,0.25186 0,0.35886 0.0757,0.1513 0.28321,0.20755 0.35887,0.35886 0.0546,0.10921 0,0.91496 0,1.07658 0,0.95696 0,1.91392 0,2.87088 0,0.23924 0,0.47848 0,0.71772 0,0.11962 -0.0378,0.24538 0,0.35886 0.0846,0.25375 0.29398,0.45823 0.35886,0.71772 0.0437,0.17483 -0.0949,1.24568 0,1.43544 0.0756,0.15131 0.2832,0.20755 0.35886,0.35886 0.0535,0.10699 -0.0378,0.24538 0,0.35886 0.0846,0.25375 0.27427,0.46397 0.35886,0.71772 0.0756,0.22696 -0.107,0.50374 0,0.71772 0.0756,0.15131 0.2832,0.20755 0.35886,0.35886 0.10699,0.21398 -0.0757,0.49076 0,0.71772 0.0846,0.25375 0.27427,0.46397 0.35886,0.71772 0.10247,0.30742 -0.0791,1.11885 0,1.43544 0.0649,0.25949 0.29398,0.45823 0.35886,0.71772 0.0157,0.0628 0.0157,1.73156 0,1.7943 -0.0649,0.2595 -0.21049,0.49517 -0.35886,0.71772 -0.0938,0.14076 -0.31783,0.19475 -0.35886,0.35886 -0.087,0.34815 0.13327,0.74339 0,1.07658 -0.12566,0.31414 -0.56642,0.41511 -0.71772,0.71772 -0.107,0.21399 0.058,0.48563 0,0.71772 -0.12975,0.51899 -0.51905,0.93875 -0.71772,1.43545 -0.28098,0.70243 -0.37939,1.47648 -0.71773,2.15316 -0.38576,0.77152 -1.09564,1.36031 -1.43544,2.15316 -0.1821,0.72841 -0.40882,1.79126 -0.71772,2.51202 -0.21073,0.4917 -0.54855,0.92793 -0.71772,1.43544 -0.0756,0.22696 0.0888,0.49559 0,0.71772 -0.16018,0.40045 -0.54782,0.68016 -0.71772,1.07658 -0.38856,0.90666 -0.37136,1.94728 -0.71772,2.87088 -0.18783,0.5009 -0.52988,0.93455 -0.71772,1.43544 -0.34635,0.92361 -0.37137,1.94728 -0.71772,2.87088 -0.37567,1.0018 -1.05977,1.86909 -1.43544,2.87089 -0.17317,0.4618 -0.18568,0.97363 -0.35886,1.43544 -0.18783,0.50089 -0.54855,0.92793 -0.71772,1.43544 -1.48102,4.44305 0.91938,-0.9023 -1.07658,3.5886 -0.0128,0.0288 -1.43221,2.8612 -1.43544,2.87088 -0.38576,1.15729 -0.33196,2.43131 -0.71772,3.5886 -0.16917,0.50751 -0.564,0.92305 -0.71772,1.43544 -0.20908,0.69694 -0.2287,1.43728 -0.35886,2.15316 -0.10911,0.60011 -0.19837,1.20585 -0.35886,1.7943 -0.19906,0.72989 -0.56935,1.41131 -0.71772,2.15316 -0.0938,0.46919 0.0528,0.95989 0,1.43545 -0.0674,0.60621 -0.28321,1.18906 -0.35886,1.7943 -0.0445,0.35609 0.0507,0.72132 0,1.07658 -0.0697,0.48825 -0.29769,0.94604 -0.35886,1.43544 -0.0593,0.47478 0,0.95696 0,1.43544 0,1.07658 0,2.15316 0,3.22974 0,1.1962 0,2.3924 0,3.5886 0,0.47848 -0.0593,0.96066 0,1.43544 0.0612,0.4894 0.28911,0.94719 0.35886,1.43544 0.0507,0.35526 -0.0507,0.72133 0,1.07658 0.0697,0.48825 0.23924,0.95696 0.35886,1.43544 0.11962,0.47848 0.22336,0.96122 0.35886,1.43544 0.10392,0.36372 0.26711,0.70961 0.35886,1.07659 0.14793,0.59173 0.2832,1.18906 0.35886,1.7943 0.0445,0.35609 -0.11348,0.73613 0,1.07658 0.13639,0.40916 0.52484,0.69081 0.71772,1.07658 0.88989,0.33866 0.20289,0.96754 0.35886,1.43544 0.36882,1.10646 0.7742,0.83067 1.43544,2.15316 0.10699,0.21398 -0.058,0.48562 0,0.71772 0.0649,0.25949 0.25952,0.46937 0.35886,0.71772 0.14049,0.35122 0.13899,0.76877 0.35886,1.07658 2.50449,3.50629 0.57308,-0.25311 2.15316,2.51202 2.80374,4.90654 -1.63644,-2.27523 1.7943,2.87088 0.14837,0.22256 0.19838,0.50374 0.35886,0.71772 0.203,0.27067 0.54365,0.4276 0.71772,0.71772 0.19462,0.32437 0.1167,0.78599 0.35886,1.07658 0.3829,0.45948 1.04621,0.62247 1.43544,1.07658 0.34815,0.40617 0.44249,0.97672 0.71772,1.43545 0.087,0.14506 0.23924,0.23924 0.35886,0.35886 0.35886,0.35886 0.75169,0.6867 1.07658,1.07658 0.27611,0.33133 0.4483,0.73979 0.71772,1.07658 0.21136,0.26419 0.53005,0.4362 0.71773,0.71772 0.29674,0.44511 0.33944,1.05717 0.71772,1.43544 0.37827,0.37827 0.99033,0.42098 1.43544,0.71772 0.28151,0.18767 0.40358,0.59206 0.71772,0.71772 0.33319,0.13328 0.71772,0 1.07658,0 0.35886,0.11962 0.73824,0.18969 1.07658,0.35886 0.5489,0.27445 1.73598,1.12502 2.51202,1.43544 2.15223,0.86089 4.20272,0.71772 6.45948,0.71772 0.71772,0 1.44938,0.14076 2.15316,0 0.52457,-0.10491 0.95696,-0.47848 1.43544,-0.71772 0.71772,-0.35886 1.41245,-0.76795 2.15316,-1.07658 3.06228,-1.27595 1.19251,-0.10428 3.58861,-1.43544 0.60972,-0.33874 1.1962,-0.71772 1.7943,-1.07658 0.5981,-0.35886 1.22288,-0.67659 1.7943,-1.07658 0.62748,-0.43924 1.1481,-1.02423 1.7943,-1.43544 2.60679,-1.65887 1.57183,-0.36048 3.5886,-2.15317 0.63219,-0.56194 1.16559,-1.22846 1.7943,-1.7943 2.2451,-2.02058 1.32125,-0.75033 3.22974,-2.87088 0.62499,-0.69443 1.163,-1.46446 1.7943,-2.15316 0.68587,-0.74822 1.4673,-1.40494 2.15317,-2.15316 0.6313,-0.68869 1.1962,-1.43544 1.7943,-2.15316 0.5981,-0.71772 1.21709,-1.41853 1.7943,-2.15316 0.73904,-0.9406 1.41412,-1.93029 2.15316,-2.87088 3.07599,-3.9149 0.50675,-0.3643 3.94746,-4.66519 0.74726,-0.93407 1.38737,-1.95193 2.15316,-2.87088 0.4332,-0.51983 1.00225,-0.9156 1.43544,-1.43544 0.76579,-0.91894 1.41412,-1.93028 2.15316,-2.87088 0.57721,-0.73463 1.24181,-1.39977 1.7943,-2.15316 0.76516,-1.0434 1.43544,-2.15316 2.15316,-3.22974 1.02884,-1.54325 2.32916,-3.44801 3.22975,-5.02404 0.39812,-0.69671 0.69614,-1.44664 1.07658,-2.15316 0.45722,-0.84914 1.00414,-1.64943 1.43544,-2.51203 2.49845,-4.9969 -0.20497,-0.0259 1.7943,-5.02404 0.39735,-0.99339 1.05977,-1.86909 1.43544,-2.87088 0.34635,-0.92361 0.44673,-1.92242 0.71772,-2.87088 0.73557,-2.57451 0.91766,-2.08996 1.43544,-5.02404 0.18824,-1.06673 0.15924,-2.16509 0.35886,-3.22974 0.16049,-0.85594 0.53525,-1.66051 0.71772,-2.51203 0.17723,-0.82706 0.19298,-1.6826 0.35886,-2.51202 0.19345,-0.96725 0.57822,-1.89438 0.71772,-2.87088 0.1015,-0.71051 -0.0511,-1.43726 0,-2.15316 0.0687,-0.96196 0.29471,-1.90861 0.35886,-2.87088 0.0557,-0.83549 -0.0597,-1.67681 0,-2.51202 0.0603,-0.84369 0.3061,-1.66783 0.35886,-2.51202 0.0672,-1.07449 0,-2.15316 0,-3.22974 0,-3.11013 0,-6.22025 0,-9.33037 0,-4.42594 0,-8.85188 0,-13.27783 0,-1.67468 0,-3.34936 0,-5.02404 0,-0.71772 0.0511,-1.43726 0,-2.15316 -0.337,-4.71797 -0.21119,-1.05597 -1.07658,-5.3829 -6.8e-4,-0.003 -0.7157,-5.7276 -0.71772,-5.74176 -0.1029,-0.72031 -0.17138,-1.45011 -0.35886,-2.15317 -0.2924,-1.09649 -0.85402,-2.11696 -1.07658,-3.22974 -0.14076,-0.70378 0.0596,-1.43792 0,-2.15316 -0.0604,-0.72511 -0.23924,-1.43544 -0.35886,-2.15316 -0.11962,-0.71772 -0.18239,-1.44726 -0.35886,-2.15316 -0.18349,-0.73396 -0.60268,-1.40541 -0.71772,-2.15316 -0.12732,-0.8276 0.12732,-1.68442 0,-2.51202 -0.11504,-0.74775 -0.51866,-1.42328 -0.71772,-2.15316 -0.32098,-1.17691 -0.42186,-2.40514 -0.71772,-3.58861 -0.21121,-0.84484 -0.46162,-1.67968 -0.71772,-2.51202 -0.44498,-1.44617 -0.91836,-2.88433 -1.43544,-4.30632 -0.42243,-1.16166 -1.36006,-3.2931 -1.7943,-4.30632 -0.35886,-0.83734 -0.61756,-1.72512 -1.07658,-2.51202 -0.38594,-0.66161 -1.02423,-1.14811 -1.43545,-1.7943 -1.39754,-2.19614 -0.85862,-2.29188 -2.15316,-4.66518 -0.2864,-0.52507 -0.76886,-0.92258 -1.07658,-1.43545 -0.41285,-0.68808 -0.69233,-1.4487 -1.07658,-2.15316 -0.334,-0.61233 -0.74258,-1.18197 -1.07658,-1.7943 -0.38425,-0.70445 -0.66373,-1.46508 -1.07658,-2.15316 -0.96194,-1.60324 -1.88172,-2.10578 -3.22974,-3.5886 -1.54261,-1.69687 -2.76371,-3.68603 -4.30632,-5.3829 -0.68277,-0.75105 -1.43544,-1.43544 -2.15316,-2.15316 -0.71772,-0.71772 -1.40212,-1.4704 -2.15316,-2.15316 -1.25799,-1.14363 -2.68378,-2.09243 -3.94747,-3.22975 -1.00593,-0.90534 -1.81409,-2.02545 -2.87088,-2.87088 -0.67357,-0.53885 -1.45555,-0.92809 -2.15316,-1.43544 -0.023,-0.0167 -3.57835,-2.86436 -3.5886,-2.87088 -0.67698,-0.43081 -1.46508,-0.66373 -2.15316,-1.07658 -1.02573,-0.61544 -1.80097,-1.6182 -2.87088,-2.15316 -0.67668,-0.33834 -1.45073,-0.43675 -2.15316,-0.71772 -0.4967,-0.19868 -0.93875,-0.51904 -1.43544,-0.71772 -0.70244,-0.28098 -1.50443,-0.32848 -2.15316,-0.71772 -0.58025,-0.34815 -0.89411,-1.02944 -1.43545,-1.43544 -0.42796,-0.32098 -0.95696,-0.47848 -1.43544,-0.71772 -0.47848,-0.23924 -0.93874,-0.51905 -1.43544,-0.71772 -0.70243,-0.28098 -1.47648,-0.37939 -2.15316,-0.71772 -0.30262,-0.15131 -0.39674,-0.61073 -0.71772,-0.71772 -0.45392,-0.15131 -0.96347,0.0787 -1.43544,0 -0.26384,-0.044 -0.45823,-0.29399 -0.71772,-0.35886 -0.56292,-0.14073 -1.23138,0.14073 -1.7943,0 -0.25949,-0.0649 -0.45823,-0.29399 -0.71772,-0.35886 -0.2321,-0.058 -0.47848,0 -0.71772,0 -0.71772,0 -1.43544,0 -2.15316,0 -0.47848,0 -0.95696,0 -1.43544,0 -0.23924,0 -0.48563,-0.058 -0.71772,0 -0.2595,0.0649 -0.45823,0.29398 -0.71772,0.35886 -0.2321,0.058 -0.49076,-0.0757 -0.71772,0 -0.16049,0.0535 -0.2018,0.29603 -0.35886,0.35886 -0.45793,0.18317 -0.94895,0.27777 -1.43544,0.35886 -0.23599,0.0393 -0.4956,-0.0889 -0.71772,0 -0.40045,0.16018 -0.66742,0.58133 -1.07659,0.71772 -0.34044,0.11348 -0.74338,-0.13328 -1.07658,0 -0.31413,0.12565 -0.4151,0.56641 -0.71772,0.71772 -0.21398,0.10699 -0.49075,-0.0757 -0.71772,0 -0.5075,0.16917 -0.92793,0.54855 -1.43544,0.71772 -0.22696,0.0756 -0.51257,-0.12309 -0.71772,0 -0.43518,0.26111 -0.65431,0.79506 -1.07658,1.07658 -0.62948,0.41965 -1.47649,0.37938 -2.15316,0.71772 -0.38576,0.19288 -0.69082,0.52484 -1.07658,0.71772 -1.16718,0.58359 -0.85361,0.0906 -1.7943,0.71772 -0.14076,0.0938 -0.20755,0.2832 -0.35886,0.35886 -0.10699,0.0535 -0.25933,-0.0664 -0.35886,0 -0.28151,0.18767 -0.44705,0.51472 -0.71772,0.71772 -0.21398,0.16049 -0.49517,0.21049 -0.71772,0.35886 -0.14076,0.0938 -0.22353,0.25736 -0.35886,0.35886 -0.34504,0.25878 -0.77161,0.41275 -1.07658,0.71772 -0.8716,0.8716 0.10671,0.52696 -0.71772,1.07658 -0.22256,0.14837 -0.50374,0.19837 -0.71772,0.35886 -0.86647,0.64985 -0.72919,0.91149 -1.43544,1.7943 -0.20592,0.2574 -1.91802,1.9964 -2.15316,2.15316 -0.0995,0.0664 -0.23924,0 -0.35886,0 -0.23924,0.23924 -0.53005,0.43621 -0.71773,0.71772 -0.29674,0.44511 -0.42097,0.99033 -0.71772,1.43544 -0.18767,0.28152 -0.51471,0.44705 -0.71772,0.71772 -0.16048,0.21399 -0.19837,0.50374 -0.35886,0.71772 -0.26664,0.35553 -1.9489,1.94891 -2.15316,2.15317 -0.11962,0.11962 -0.25736,0.22352 -0.35886,0.35886 -0.23924,0.35886 -0.47848,0.71772 -0.71772,1.07658 0,0.11962 0.0535,0.25186 0,0.35886 -0.19288,0.38576 -0.45894,0.73154 -0.71772,1.07658 -0.1015,0.13533 -0.30536,0.19837 -0.35886,0.35886 -0.0756,0.22696 0.058,0.48562 0,0.71772 -0.0649,0.25949 -0.27427,0.46396 -0.35886,0.71772 -0.15596,0.46789 -0.13829,0.9943 -0.35886,1.43544 -1.38472,1.38472 -0.3657,0.0274 -0.71772,1.43544 -0.35847,1.43386 -0.36161,0.006 -1.07658,1.43544 -0.10699,0.21398 0.0757,0.49076 0,0.71772 -0.0535,0.16049 -0.23924,0.23924 -0.35886,0.35886 -0.11962,0.23924 -0.3064,0.45544 -0.35886,0.71772 -0.0704,0.35189 0,0.71772 0,1.07658 0,0.5 0,1.5443 0,1.7943 0,0.23924 0.13271,0.51866 0,0.71772 -0.14837,0.22256 -0.52858,0.16973 -0.71772,0.35886 -0.0846,0.0846 0,0.23924 0,0.35886 0,0.23924 0,0.47848 0,0.71772 0,1.55506 0,3.11012 0,4.66518 0,0.95697 0,1.91393 0,2.87089 0,0.2938 -0.0775,1.56179 0,1.7943 0.0846,0.25375 0.29399,0.45823 0.35886,0.71772 0.0651,0.26052 -0.0879,2.06524 0,2.15316 0.16917,0.16917 0.54855,-0.16917 0.71772,0 0.16917,0.16917 -0.058,0.48562 0,0.71772 0.11962,0.23924 0.23924,0.47848 0.35886,0.71772 0.11962,0 0.30537,-0.10699 0.35886,0 0.10699,0.21398 -0.0757,0.49076 0,0.71772 0.10699,0.32097 0.56641,0.4151 0.71772,0.71772 0.0535,0.10699 -0.0846,0.27428 0,0.35886 0.18914,0.18914 0.52859,0.16972 0.71772,0.35886 0.0846,0.0846 -0.0846,0.27428 0,0.35886 0.18914,0.18914 0.52859,0.16972 0.71772,0.35886 0.0846,0.0846 -0.0663,0.25933 0,0.35886 0.18768,0.28151 0.47848,0.47848 0.71772,0.71772 0.23924,0.23924 0.44705,0.51472 0.71772,0.71772 0.21399,0.16049 0.49517,0.21049 0.71772,0.35886 0.28152,0.18768 0.41511,0.56641 0.71772,0.71772 0.10699,0.0535 0.25187,-0.0535 0.35886,0 0.15131,0.0757 0.20755,0.28321 0.35886,0.35886 0.107,0.0535 0.25933,-0.0664 0.35886,0 0.28152,0.18768 0.43621,0.53005 0.71772,0.71772 0.1589,0.10593 1.59268,-0.10081 1.79431,0 0.30261,0.15131 0.4151,0.56641 0.71772,0.71772 0.42796,0.21399 1.03732,-0.26541 1.43544,0 0.22255,0.14837 0.16972,0.52859 0.35886,0.71772 0.16916,0.16917 0.49075,-0.0756 0.71772,0 0.5075,0.16917 0.92793,0.54856 1.43544,0.71772 0.22696,0.0757 0.50373,-0.10699 0.71772,0 0.15131,0.0757 0.20755,0.28321 0.35886,0.35886 0.10699,0.0535 0.25187,-0.0535 0.35886,0 0.15131,0.0757 0.20755,0.28321 0.35886,0.35886 0.10699,0.0535 0.23924,0 0.35886,0 0.23924,0 0.49076,-0.0756 0.71772,0 0.32097,0.107 0.39674,0.61073 0.71772,0.71772 0.22696,0.0757 0.48562,-0.058 0.71772,0 0.25949,0.0649 0.46397,0.27428 0.71772,0.35886 0.11348,0.0378 0.25187,-0.0535 0.35886,0 0.30262,0.15131 0.4151,0.56642 0.71772,0.71772 0.10699,0.0535 0.25187,-0.0535 0.35886,0 0.30262,0.15131 0.4151,0.56642 0.71772,0.71772 0.10699,0.0535 0.25933,-0.0663 0.35886,0 0.28151,0.18768 0.4151,0.56642 0.71772,0.71773 0.21398,0.10699 0.54855,-0.16917 0.71772,0 0.16917,0.16916 -0.16917,0.54855 0,0.71772 0.16917,0.16916 0.50374,-0.107 0.71772,0 0.30262,0.1513 0.47848,0.47848 0.71772,0.71772 0.35886,0.35886 0.71772,0.71772 1.07658,1.07658 0.11962,0.11962 0.21811,0.26502 0.35886,0.35886 0.22256,0.14837 0.52859,0.16972 0.71772,0.35886 0.0846,0.0846 -0.0535,0.25187 0,0.35886 0.17657,0.35313 1.25888,1.08231 1.43544,1.43544 0.0535,0.10699 -0.0378,0.24538 0,0.35886 0.16917,0.5075 0.54856,0.92793 0.71772,1.43544 0.0378,0.11348 -0.0535,0.25187 0,0.35886 0.15131,0.30262 0.56642,0.4151 0.71772,0.71772 0.0535,0.10699 -0.0535,0.25187 0,0.35886 0.0757,0.15131 0.26503,0.2181 0.35886,0.35886 0.0446,0.0668 0.69473,1.41244 0.71773,1.43544 0.0846,0.0846 0.30536,-0.10699 0.35886,0 0.22056,0.44114 0.23924,0.95696 0.35886,1.43544 z"
         id="path4798"
         inkscape:connector-curvature="0" />
    </clipPath>
    <clipPath
       clipPathUnits="userSpaceOnUse"
       id="clipPath4802">
      <path
         style="fill:none;fill-rule:evenodd;stroke:#000000;stroke-width:1px;stroke-linecap:butt;stroke-linejoin:miter;stroke-opacity:1"
         d="m 118.27239,66.76789 c 0.5981,0.11962 1.1962,0.23924 1.7943,0.35886 0.11962,0.11962 0.20755,0.2832 0.35886,0.35886 0.10699,0.0535 0.24538,-0.0378 0.35886,0 0.25375,0.0846 0.46397,0.27427 0.71772,0.35886 0.14245,0.0475 1.43544,-0.0459 1.43544,0 0,0.11962 -0.44344,-0.0846 -0.35886,0 0.85043,0.85042 0.88115,0.71772 1.7943,0.71772 0.11962,0 0.24538,-0.0378 0.35886,0 0.25375,0.0846 0.46397,0.27427 0.71772,0.35886 0.11348,0.0378 0.24538,-0.0378 0.35886,0 0.25375,0.0846 0.47848,0.23924 0.71772,0.35886 0.23924,0.11962 0.49517,0.21049 0.71772,0.35886 0.14076,0.0938 0.20755,0.2832 0.35886,0.35886 0.10699,0.0535 0.25187,-0.0535 0.35886,0 0.15131,0.0756 0.21811,0.26502 0.35886,0.35886 0.44511,0.29674 0.99033,0.42098 1.43544,0.71772 0.14076,0.0938 0.20755,0.2832 0.35886,0.35886 0.10699,0.0535 0.25933,-0.0663 0.35886,0 0.28152,0.18767 0.47848,0.47848 0.71772,0.71772 0.11962,0.11962 0.20755,0.2832 0.35886,0.35886 0.10699,0.0535 0.27428,-0.0846 0.35886,0 0.0846,0.0846 -0.10699,0.30536 0,0.35886 0.21399,0.10699 0.49076,-0.0757 0.71772,0 0.2723,0.0908 1.10563,1.27053 1.43544,1.43544 0.107,0.0535 0.23924,0 0.35886,0 0.23924,0.11962 0.49517,0.21049 0.71773,0.35886 0.28151,0.18768 0.39674,0.61073 0.71772,0.71772 0.22696,0.0756 0.50373,-0.10699 0.71772,0 0.10699,0.0535 -0.0535,0.25187 0,0.35886 0.0756,0.15131 0.23924,0.23924 0.35886,0.35886 0.11962,0.11962 0.2181,0.26502 0.35886,0.35886 0.22255,0.14837 0.52858,0.16973 0.71772,0.35886 0.18913,0.18914 0.23924,0.47848 0.35886,0.71772 0.23924,0.11962 0.52858,0.16973 0.71772,0.35886 0.0846,0.0846 -0.10699,0.30537 0,0.35886 0.21398,0.10699 0.54855,-0.16917 0.71772,0 0.16917,0.16917 -0.13271,0.51866 0,0.71772 0.14837,0.22256 0.52858,0.16973 0.71772,0.35886 0.0846,0.0846 -0.10699,0.30537 0,0.35886 0.21398,0.10699 0.50374,-0.10699 0.71772,0 1.84951,0.92476 0.34747,0.33609 0.71772,1.07658 0.15131,0.30262 0.56641,0.41511 0.71772,0.71772 0.0535,0.10699 -0.0535,0.25187 0,0.35886 0.15131,0.30262 0.61073,0.39675 0.71772,0.71772 0.0756,0.22697 -0.16917,0.54856 0,0.71772 0.16917,0.16917 0.54855,-0.16916 0.71772,0 0.16917,0.16917 0,0.47848 0,0.71772 0.23924,0 0.54855,-0.16916 0.71772,0 0.16917,0.16917 -0.0756,0.49076 0,0.71772 0.0535,0.16049 0.26502,0.21811 0.35886,0.35886 0.14837,0.22256 0.16972,0.52859 0.35886,0.71773 0.18914,0.18913 0.52858,0.16972 0.71772,0.35886 0.0846,0.0846 0,0.23924 0,0.35886 0,0.23924 -0.10699,0.50373 0,0.71772 0.15131,0.30261 0.51472,0.44705 0.71772,0.71772 0.16049,0.21398 0.21049,0.49516 0.35886,0.71772 0.0938,0.14075 0.28321,0.20755 0.35886,0.35886 0.0535,0.10699 -0.0378,0.24538 0,0.35886 0.0846,0.25375 0.23924,0.47848 0.35886,0.71772 0.11962,0.23924 0.21049,0.49516 0.35886,0.71772 0.0938,0.14075 0.28321,0.20755 0.35886,0.35886 0.0535,0.10699 -0.0663,0.25933 0,0.35886 0.18768,0.28151 0.53005,0.43621 0.71772,0.71772 0.0664,0.0995 -0.0378,0.24538 0,0.35886 0.0846,0.25375 0.23924,0.47848 0.35886,0.71772 0.11962,0.23924 0.16973,0.52858 0.35886,0.71772 0.0846,0.0846 0.27428,-0.0846 0.35886,0 0.18914,0.18914 0.23924,0.47848 0.35886,0.71772 0.11962,0.23924 0.27428,0.46397 0.35886,0.71772 0.0378,0.11348 -0.0846,0.27428 0,0.35886 0.18914,0.18914 0.49517,0.21049 0.71772,0.35886 0.14076,0.0938 0.23924,0.23924 0.35886,0.35886 0.11962,0.11962 0.28321,0.20755 0.35886,0.35886 0.0535,0.10699 -0.0535,0.25187 0,0.35886 0.0757,0.15131 0.28321,0.20755 0.35886,0.35886 0.0535,0.10699 0,0.23924 0,0.35886 0,0.23924 -0.10699,0.50374 0,0.71772 0.0535,0.10699 0.27428,-0.0846 0.35886,0 0.18914,0.18914 0.21049,0.49517 0.35886,0.71772 0.18768,0.28151 0.61073,0.39675 0.71772,0.71772 0.0757,0.22697 0,0.47848 0,0.71772 0,0.11962 -0.0535,0.25187 0,0.35886 0.0757,0.15131 0.28321,0.20755 0.35886,0.35886 0.0535,0.10699 -0.0535,0.25187 0,0.35886 0.0757,0.15131 0.28321,0.20755 0.35886,0.35886 0.0535,0.10699 -0.0535,0.25187 0,0.35886 0.0757,0.15131 0.28321,0.20755 0.35886,0.35886 0.0535,0.10699 0,0.23924 0,0.35886 0.11963,0.23924 0.21049,0.49517 0.35887,0.71772 0.0938,0.14076 0.2832,0.20756 0.35886,0.35886 0.0535,0.107 0,0.23924 0,0.35886 0.11962,0.23924 0.21049,0.49517 0.35886,0.71772 0.18767,0.28152 0.56641,0.41511 0.71772,0.71772 0.0535,0.107 -0.0378,0.24538 0,0.35887 0.0846,0.25375 0.27427,0.46396 0.35886,0.71772 0.0756,0.22696 -0.107,0.50373 0,0.71772 0.0756,0.1513 0.2832,0.20755 0.35886,0.35886 0.10699,0.21398 -0.13271,0.51866 0,0.71772 0.18767,0.28151 0.56641,0.4151 0.71772,0.71772 0.11277,0.22555 -0.11278,1.20989 0,1.43544 0.0756,0.15131 0.2832,0.20755 0.35886,0.35886 0.0535,0.10699 -0.0535,0.25187 0,0.35886 0.0756,0.15131 0.2832,0.20755 0.35886,0.35886 0.0535,0.10699 0,0.23924 0,0.35886 0,0.5981 0,1.1962 0,1.7943 0,0.23924 -0.058,0.48562 0,0.71772 0.43323,1.73292 0.17053,-0.0178 0.71772,1.07658 0.0649,0.12978 0,1.5447 0,1.7943 0,1.55506 0,3.11012 0,4.66518 0,0.23924 0.10699,0.50374 0,0.71772 -0.15131,0.30262 -0.56641,0.41511 -0.71772,0.71772 -0.083,0.16591 0.089,1.70526 0,1.7943 -0.16917,0.16917 -0.54856,-0.16916 -0.71772,0 -0.0231,0.0231 0,1.9791 0,2.15317 0,0.23924 0.16916,0.54855 0,0.71772 -0.16917,0.16916 -0.54856,-0.16917 -0.71772,0 -0.11572,0.11571 0.0997,1.13634 0,1.43544 -0.107,0.32097 -0.61073,0.39674 -0.71772,0.71772 -0.0757,0.22696 0,0.47848 0,0.71772 0,0.11962 0.0535,0.25187 0,0.35886 -0.0757,0.15131 -0.30537,0.19837 -0.35886,0.35886 0,1.63363 0.16916,0.0205 -0.35886,1.07658 -0.0535,0.10699 0,0.23924 0,0.35886 0,0.23924 0.058,0.48562 0,0.71772 0.21629,0.64951 -0.58134,0.66742 -0.71772,1.07658 -0.0757,0.22696 0.058,0.48562 0,0.71772 -0.0649,0.25949 -0.29399,0.45823 -0.35887,0.71772 -0.058,0.2321 0.107,0.50374 0,0.71772 -0.0535,0.10699 -0.27427,-0.0846 -0.35886,0 -0.67772,0.67773 -0.16935,0.6774 -0.35886,1.43544 -0.12974,0.51899 -0.54855,0.92794 -0.71772,1.43544 -0.0378,0.11348 0.0378,0.24538 0,0.35886 -0.0846,0.25375 -0.23924,0.47848 -0.35886,0.71772 -0.11962,0.23924 -0.21049,0.49517 -0.35886,0.71772 -0.0938,0.14076 -0.30536,0.19838 -0.35886,0.35886 -0.39873,1.1962 0.5981,0.29905 0,1.7943 -0.12565,0.31414 -0.56641,0.41511 -0.71772,0.71772 -0.10699,0.21399 0.058,0.48563 0,0.71772 -0.11962,0.23924 -0.23924,0.47848 -0.35886,0.71772 -0.11962,0.23924 -0.29398,0.45823 -0.35886,0.71772 -0.058,0.2321 0.058,0.48563 0,0.71773 -0.17816,0.71265 -0.89841,1.4405 -1.07658,2.15316 -0.058,0.23209 0,0.47848 0,0.71772 -0.11962,0.23924 -0.27427,0.46396 -0.35886,0.71772 -0.0378,0.11348 0.0535,0.25187 0,0.35886 -0.0756,0.15131 -0.30536,0.19837 -0.35886,0.35886 -0.0756,0.22696 0.0757,0.49075 0,0.71772 -0.0535,0.16048 -0.30536,0.19837 -0.35886,0.35886 -0.15131,0.45392 0.11605,0.97124 0,1.43544 -0.0649,0.25949 -0.29399,0.45823 -0.35886,0.71772 -0.058,0.2321 0.058,0.48562 0,0.71772 -0.43323,1.73291 -0.17054,-0.0178 -0.71772,1.07658 -0.19104,0.38209 0.19105,0.33563 0,0.71772 -0.0756,0.15131 -0.2832,0.20755 -0.35886,0.35886 -0.0535,0.10699 0.0378,0.24538 0,0.35886 -0.0846,0.25375 -0.29399,0.45823 -0.35886,0.71772 -0.0682,0.2729 0,1.4938 0,1.7943 0,0.11962 0.0378,0.24538 0,0.35886 -0.0846,0.25375 -0.21049,0.49517 -0.35886,0.71772 -0.0938,0.14076 -0.30536,0.19837 -0.35886,0.35886 -0.0756,0.22697 0,0.47848 0,0.71772 0,0.37567 0.073,1.86134 0,2.15316 -0.0649,0.2595 -0.29399,0.45823 -0.35886,0.71772 -0.058,0.2321 0.0757,0.49076 0,0.71772 -0.0535,0.16049 -0.28321,0.20756 -0.35886,0.35886 -0.0546,0.10911 0,1.18764 0,1.43544 0,0.95697 0,1.91393 0,2.87089 0,0.95696 0,1.91392 0,2.87088 0,0.23924 0,0.47848 0,0.71772 0,0.23924 -0.058,0.48562 0,0.71772 0.0649,0.25949 0.27428,0.46397 0.35886,0.71772 0.0664,0.19932 0,2.38867 0,2.51202 0,0.11962 -0.0378,0.24538 0,0.35886 0.47848,1.43544 0.34435,-0.0726 0.71772,1.7943 0.0938,0.46919 -0.11605,0.97125 0,1.43544 0.83301,1.66603 0.0305,-0.20656 0.35886,1.43544 -0.0824,0.72064 0.56149,1.16936 0.71772,1.7943 0.058,0.2321 -0.058,0.48563 0,0.71772 0.0649,0.2595 0.29399,0.45823 0.35886,0.71772 0.0682,0.2729 0,1.4938 0,1.7943 0,1.64562 -0.0756,-0.37827 0.35886,1.79431 0.081,0.40472 0,1.32466 0,1.7943 0,0.23924 -0.058,0.48562 0,0.71772 0.12975,0.51898 0.58798,0.91645 0.71772,1.43544 0.058,0.23209 -0.0393,0.48173 0,0.71772 0.0811,0.48649 0.26214,0.95181 0.35886,1.43544 0.17943,0.89715 -0.35886,-0.35886 0,1.07658 0.12975,0.51898 0.58798,0.91646 0.71772,1.43544 0.058,0.2321 0,0.47848 0,0.71772 0,0.5981 0,1.1962 0,1.7943 0,0.11962 -0.0378,0.24538 0,0.35886 0.0846,0.25375 0.29399,0.45823 0.35886,0.71772 0.0706,0.28229 0,1.77997 0,2.15316 0,0.23924 -0.058,0.48563 0,0.71772 0.0649,0.2595 0.27428,0.46397 0.35886,0.71772 0.0378,0.11348 0,0.23924 0,0.35886 0,0.23924 0,0.47848 0,0.71772 0,0.83734 0,1.67468 0,2.51202 0,2.73762 -0.16048,-0.28308 0.35886,1.79431 0.058,0.23209 0,0.47848 0,0.71772 0,0.35886 0,0.71772 0,1.07658 0,0.27443 -0.035,2.06575 0,2.15316 0.12566,0.31414 0.56641,0.4151 0.71772,0.71772 0.17943,0.35886 -0.0897,0.71772 0,1.07658 -0.6099,0.97135 0.54856,0.92793 0.71772,1.43544 0.15131,0.45393 -0.0787,0.96347 0,1.43544 -0.33464,0.79827 0.54958,1.48059 0.71772,2.15316 0.058,0.2321 -0.058,0.48562 0,0.71772 0.12975,0.51899 0.51905,0.93875 0.71772,1.43544 0.14049,0.35122 0.21838,0.72537 0.35886,1.07658 0.0993,0.24835 0.29399,0.45823 0.35886,0.71772 0.058,0.2321 -0.058,0.48563 0,0.71772 0.0649,0.2595 0.30641,0.45544 0.35887,0.71772 0.0704,0.35189 -0.0704,0.72469 0,1.07658 0.0525,0.26229 0.27427,0.46397 0.35886,0.71772 0.0378,0.11349 -0.0378,0.24538 0,0.35886 0.0846,0.25376 0.29398,0.45823 0.35886,0.71772 0.0706,0.28229 0,1.77998 0,2.15317 0,0.23924 0,0.47848 0,0.71772 0,0.11962 -0.0535,0.25186 0,0.35886 0.19288,0.38576 0.52483,0.69081 0.71772,1.07658 0.0546,0.1091 0,1.18764 0,1.43544 0,0.83734 0,1.67468 0,2.51202 0,0.0853 0.0402,1.35501 0,1.43544 -0.0757,0.15131 -0.28321,0.20755 -0.35886,0.35886 -0.0535,0.10699 0,0.23924 0,0.35886 0,0.11962 0,0.23924 0,0.35886 0,0.6204 0.0375,0.84089 -0.35886,1.43544 -0.18768,0.28151 -0.56642,0.4151 -0.71772,0.71772 -0.0535,0.10699 0.0663,0.25933 0,0.35886 -0.07,0.105 -1.19014,1.27191 -1.43545,1.43544 -0.44511,0.29674 -0.99032,0.42098 -1.43544,0.71772 -0.14075,0.0938 -0.20755,0.28321 -0.35886,0.35886 -0.10699,0.0535 -0.23924,0 -0.35886,0 -0.23924,0.11962 -0.49516,0.21049 -0.71772,0.35886 -1.02688,0.68459 0.54964,0.0672 -1.07658,0.71772 -0.48554,0.73949 -1.21565,0.16598 -1.7943,0.35886 -0.16049,0.0535 -0.2181,0.26503 -0.35886,0.35886 -0.22255,0.14837 -0.47848,0.23924 -0.71772,0.35886 -0.47848,0.23924 -0.92793,0.54856 -1.43544,0.71772 -0.22696,0.0757 -0.48562,-0.058 -0.71772,0 -0.51898,0.12975 -0.91646,0.58798 -1.43544,0.71772 -0.2321,0.058 -0.49076,-0.0756 -0.71772,0 -0.16049,0.0535 -0.23924,0.23924 -0.35886,0.35886 -0.5981,0.11962 -1.21566,0.16598 -1.7943,0.35886 -0.16049,0.0535 -0.21811,0.26503 -0.35886,0.35886 -0.22256,0.14837 -0.47848,0.23924 -0.71772,0.35886 -0.23924,0.11962 -0.46397,0.27428 -0.71772,0.35886 -0.22697,0.0757 -0.49076,-0.0756 -0.71772,0 -0.50751,0.16917 -0.91646,0.58798 -1.43544,0.71773 -0.2321,0.058 -0.48563,-0.058 -0.71772,0 -0.2595,0.0649 -0.45823,0.29398 -0.71772,0.35886 -0.2321,0.058 -0.48563,-0.058 -0.71772,0 -0.2595,0.0649 -0.45389,0.31488 -0.71773,0.35886 -0.47197,0.0787 -0.96347,-0.0787 -1.43544,0 -0.26384,0.044 -0.45822,0.29398 -0.71772,0.35886 -0.23209,0.058 -0.47848,0 -0.71772,0 -0.23924,0.11962 -0.45822,0.29398 -0.71772,0.35886 -0.34814,0.087 -0.71772,0 -1.07658,0 -1.1962,0 -2.3924,0 -3.5886,0 -1.1962,0 -2.3924,0 -3.5886,0 -0.47848,0 -0.96177,0.0677 -1.43544,0 -0.48825,-0.0697 -0.94895,-0.27778 -1.43544,-0.35886 -0.23599,-0.0393 -0.48563,0.058 -0.71772,0 -0.25949,-0.0649 -0.46397,-0.27428 -0.71772,-0.35886 -0.4679,-0.15597 -0.96755,-0.2029 -1.43544,-0.35886 -0.25376,-0.0846 -0.45823,-0.29399 -0.71772,-0.35886 -0.2321,-0.058 -0.48563,0.058 -0.71772,0 -0.51899,-0.12975 -0.92794,-0.54856 -1.43544,-0.71773 -0.4679,-0.15596 -0.94605,-0.29768 -1.43545,-0.35886 -0.47478,-0.0593 -0.99118,0.17771 -1.43544,0 -0.24834,-0.0993 -0.1295,-0.5801 -0.35886,-0.71772 -0.42292,-0.25375 -0.96121,-0.22336 -1.43544,-0.35886 -0.36371,-0.10392 -0.72239,-0.22604 -1.07658,-0.35886 -1.21344,-0.45504 -1.73052,-0.75076 -2.87088,-1.07658 -0.47423,-0.13549 -0.97364,-0.18568 -1.43544,-0.35886 -0.5009,-0.18783 -0.93454,-0.52988 -1.43544,-0.71772 -0.92361,-0.34635 -1.93509,-0.40579 -2.87088,-0.71772 -0.25375,-0.0846 -0.47848,-0.23924 -0.71772,-0.35886 -0.47848,-0.23924 -0.97672,-0.44248 -1.43544,-0.71772 -0.14506,-0.087 -0.22353,-0.25736 -0.35886,-0.35886 -0.34504,-0.25878 -0.77161,-0.41275 -1.07658,-0.71772 -0.18914,-0.18913 -0.21049,-0.49516 -0.35886,-0.71772 -0.81559,-1.22338 -0.0351,1.33009 -1.07658,-1.7943 -0.0757,-0.22696 0.0756,-0.49076 0,-0.71772 -0.33834,-1.01501 -1.14152,-1.84213 -1.43544,-2.87088 -0.0986,-0.34505 0.087,-0.72844 0,-1.07658 -0.15624,-0.62494 -0.54076,-1.17491 -0.71773,-1.7943 -0.0657,-0.23004 0,-0.47848 0,-0.71772 0,-0.5981 0.1173,-1.20782 0,-1.7943 -0.0525,-0.26229 -0.31488,-0.45388 -0.35886,-0.71772 0,-3.75239 0.21399,0.13821 -0.35886,-2.15317 -0.058,-0.23209 0,-0.47848 0,-0.71772 0,-0.47848 0,-0.95696 0,-1.43544 0,-0.23924 0.0393,-0.48173 0,-0.71772 -0.0811,-0.48649 -0.29768,-0.94604 -0.35886,-1.43544 -0.0593,-0.47478 0,-0.95696 0,-1.43544 0,-1.55506 0,-3.11012 0,-4.66518 0,-0.83734 0,-1.67468 0,-2.51202 0,-0.35886 -0.0508,-0.72133 0,-1.07658 0.0697,-0.48825 0.29769,-0.94605 0.35886,-1.43544 0.0593,-0.47479 0,-0.95696 0,-1.43544 0,-1.55506 0,-3.11012 0,-4.66519 0,-0.47848 -0.0593,-0.96065 0,-1.43544 0.0612,-0.48939 0.29769,-0.94604 0.35886,-1.43544 0.0593,-0.47478 -0.0787,-0.96347 0,-1.43544 0.044,-0.26384 0.31489,-0.45388 0.35886,-0.71772 0.16195,-0.97167 -0.16213,-2.25692 0,-3.22974 0.12438,-0.74625 0.56935,-1.41131 0.71773,-2.15316 0.16662,-0.83315 -0.25257,-2.11319 0,-2.87088 0.10699,-0.32098 0.56641,-0.4151 0.71772,-0.71772 0.10699,-0.21399 0,-0.47848 0,-0.71772 0,-0.5981 0,-1.1962 0,-1.7943 0,-0.23924 -0.107,-0.50374 0,-0.71772 0.1513,-0.30262 0.59206,-0.40359 0.71772,-0.71772 0.38278,-0.95696 -0.1276,-0.79747 0,-1.43544 -0.30635,-0.91146 0.53423,-1.41921 0.71772,-2.15317 0.058,-0.23209 -0.058,-0.48562 0,-0.71772 0.0649,-0.25949 0.23924,-0.47848 0.35886,-0.71772 0.23924,-0.47848 0.54855,-0.92793 0.71772,-1.43544 0.0378,-0.11348 0,-0.23924 0,-0.35886 0,-0.35886 -0.0704,-0.72469 0,-1.07658 0.0524,-0.26228 0.27427,-0.46397 0.35886,-0.71772 0.0378,-0.11348 -0.029,-0.24281 0,-0.35886 0.0917,-0.36698 0.29667,-0.70345 0.35886,-1.07658 0.059,-0.35398 0,-0.71772 0,-1.07658 0,-0.23924 -0.10699,-0.50374 0,-0.71772 0.15131,-0.30262 0.53004,-0.43621 0.71772,-0.71772 0.0867,-0.1301 -0.0551,-1.1597 0,-1.43544 0.0967,-0.48363 0.27777,-0.94895 0.35886,-1.43544 0.0393,-0.23599 -0.058,-0.48562 0,-0.71772 0.0649,-0.25949 0.29398,-0.45823 0.35886,-0.71772 0.1222,-0.48882 -0.14472,-1.71902 0,-2.15316 0.0535,-0.16049 0.23924,-0.23924 0.35886,-0.35886 0.11962,-0.23924 0.29398,-0.45823 0.35886,-0.71772 0.0709,-0.2838 -0.10663,-1.99322 0,-2.15316 2.38038,-2.38038 -0.33834,0.67667 0.71772,-1.43545 0.15131,-0.30261 0.56641,-0.4151 0.71772,-0.71772 0.21398,-0.42796 -0.21398,-1.00747 0,-1.43544 0.15131,-0.30261 0.56641,-0.4151 0.71772,-0.71772 0.35886,-0.71772 -0.17943,-0.53829 0,-1.07658 0.0846,-0.25375 0.29399,-0.45823 0.35886,-0.71772 0.058,-0.23209 -0.0757,-0.49075 0,-0.71772 0.0535,-0.16049 0.28321,-0.20755 0.35886,-0.35886 0.0535,-0.10699 0,-0.23924 0,-0.35886 0,-0.23924 0,-0.47848 0,-0.71772 0,-0.47655 0.0799,-2.19243 0,-2.51202 -0.041,-0.16412 -0.28321,-0.20755 -0.35886,-0.35886 -0.0535,-0.10699 0.0378,-0.24538 0,-0.35886 -0.86646,-2.59937 0.10346,0.56578 -0.71772,-1.07658 -0.0535,-0.10699 0,-0.23924 0,-0.35886 0,-0.23924 0.0756,-0.49076 0,-0.71772 -0.0535,-0.16049 -0.28321,-0.20755 -0.35886,-0.35886 -0.0535,-0.10699 0.0378,-0.24538 0,-0.35886 -0.86646,-2.59938 0.10346,0.56578 -0.71772,-1.07658 -0.0535,-0.10699 0.0535,-0.25187 0,-0.35886 -0.0757,-0.15131 -0.28321,-0.20755 -0.35886,-0.35886 -0.11656,-0.23313 0.11381,-1.56667 0,-1.7943 -1.19019,-1.19019 0.16917,0.33833 -0.35886,-0.71772 -0.0757,-0.15131 -0.28321,-0.20756 -0.35886,-0.35886 -0.0973,-0.19468 0.0982,-1.33725 0,-1.43544 -0.18914,-0.18914 -0.52859,-0.16973 -0.71772,-0.35886 -0.0846,-0.0846 0,-0.23924 0,-0.35886 0,-0.71773 0,-1.43545 0,-2.15317 0,-0.95696 0.11962,0.11962 -0.35886,-0.35886 -0.0846,-0.0846 0,-0.23924 0,-0.35886 0,-0.83734 0,-1.67468 0,-2.51202 0,-0.11962 -0.0535,-0.25187 0,-0.35886 0.0756,-0.15131 0.30536,-0.19837 0.35886,-0.35886 0.11348,-0.34044 0,-0.71772 0,-1.07658 0,-0.11962 -0.11962,-0.35886 0,-0.35886 0.11962,0 0,0.23924 0,0.35886 0,-0.23924 -0.13271,-0.51866 0,-0.71772 0.14837,-0.22255 0.52858,-0.16972 0.71772,-0.35886 0.0846,-0.0846 0,-0.23924 0,-0.35886 0,-0.11962 0,-0.23924 0,-0.35886 0,-0.83734 0,-1.67468 0,-2.51202 0,-0.23924 -0.0757,-0.49076 0,-0.71772 0.0535,-0.16049 0.2832,-0.20755 0.35886,-0.35886 0.0546,-0.10921 0,-0.91497 0,-1.07658 0,-0.83734 0,-1.67468 0,-2.51202 0,-0.23924 -0.058,-0.48563 0,-0.71772 0.0649,-0.2595 0.27427,-0.46397 0.35886,-0.71772 0.10615,-0.31847 -0.1175,-1.55932 0,-1.7943 0.0756,-0.15131 0.23924,-0.23924 0.35886,-0.35886 0,-0.23924 -0.0757,-0.49076 0,-0.71772 0.0535,-0.16049 0.30536,-0.19838 0.35886,-0.35886 0.0756,-0.22697 0,-0.47848 0,-0.71773 0,-0.11962 -0.0535,-0.25186 0,-0.35886 0.0756,-0.1513 0.30536,-0.19837 0.35886,-0.35886 0.0756,-0.22696 -0.0757,-0.49075 0,-0.71772 0.0535,-0.16048 0.2832,-0.20755 0.35886,-0.35886 0.0535,-0.10699 -0.0378,-0.24537 0,-0.35886 0.0846,-0.25375 0.27427,-0.46396 0.35886,-0.71772 0.0757,-0.22696 -0.10699,-0.50373 0,-0.71772 0.0757,-0.15131 0.2832,-0.20755 0.35886,-0.35886 0.10699,-0.21398 -0.10699,-0.50373 0,-0.71772 0.0756,-0.15131 0.28321,-0.20755 0.35886,-0.35886 0.0535,-0.10699 -0.0846,-0.27427 0,-0.35886 0.18914,-0.18913 0.52858,-0.16972 0.71772,-0.35886 0.0846,-0.0846 -0.0846,-0.27427 0,-0.35886 0.18914,-0.18913 0.52858,-0.16972 0.71772,-0.35886 0.0846,-0.0846 -0.0535,-0.25187 0,-0.35886 0.0742,-0.14848 0.92447,-0.97517 1.07658,-1.07658 0.22256,-0.14837 0.49517,-0.21049 0.71772,-0.35886 0.14076,-0.0938 0.19837,-0.30536 0.35886,-0.35886 0.22696,-0.0756 0.48562,0.058 0.71772,0 0.25949,-0.0649 0.45823,-0.29399 0.71772,-0.35886 0.32039,-0.0801 1.37891,0 1.7943,0 0.18766,0 1.34108,-0.0472 1.43544,0 0.15131,0.0757 0.20755,0.28321 0.35886,0.35886 0.10699,0.0535 0.25933,-0.0664 0.35886,0 0.26541,0.17694 1.14024,1.28784 1.43544,1.43544 0.107,0.0535 0.25187,0.0535 0.35886,0 0.79346,-0.39673 0.11137,-0.22272 0.35886,-0.71772 0.0757,-0.15131 0.28321,-0.20755 0.35886,-0.35886 0.0535,-0.10699 -0.0535,-0.25187 0,-0.35886 0.0757,-0.15131 0.28321,-0.20755 0.35887,-0.35886 0.0649,-0.12978 0,-1.5447 0,-1.7943 0,-0.71772 0,-1.43544 0,-2.15316 0,-0.23924 0.058,-0.48562 0,-0.71772 -0.0649,-0.25949 -0.29399,-0.45823 -0.35887,-0.71772 -0.058,-0.2321 0.16917,-0.54855 0,-0.71772 -0.16916,-0.16917 -0.54855,0.16917 -0.71772,0 -0.16946,-0.16947 0.14865,-1.21247 0,-1.43544 -0.28151,-0.42227 -0.71772,-0.71772 -1.07658,-1.07658 -0.23924,-0.23924 -0.47848,-0.47848 -0.71772,-0.71772 -0.23924,-0.23924 -0.44705,-0.51472 -0.71772,-0.71772 -0.21398,-0.16049 -0.47848,-0.23924 -0.71772,-0.35886 -0.47848,-0.23924 -0.95696,-0.47848 -1.43544,-0.71772 -0.23924,-0.11962 -0.49516,-0.21049 -0.71772,-0.35886 -0.14075,-0.0938 -0.19837,-0.30537 -0.35886,-0.35887 -0.22696,-0.0756 -0.48562,0.058 -0.71772,0 -0.51898,-0.12974 -0.91645,-0.58797 -1.43544,-0.71772 -0.2321,-0.058 -0.47848,0 -0.71772,0 -0.71772,0 -1.43544,0 -2.15316,0 -1.91392,0 -3.82784,0 -5.74176,0 -1.1962,0 -2.3924,0 -3.58861,0 -0.12225,0 -1.24122,0.0647 -1.43544,0 -0.25375,-0.0846 -0.46396,-0.27427 -0.71772,-0.35886 -0.22696,-0.0756 -0.49075,0.0757 -0.71772,0 -0.25375,-0.0846 -0.46396,-0.27427 -0.71772,-0.35886 -0.11348,-0.0378 -0.25187,0.0535 -0.35886,0 -0.15131,-0.0756 -0.2181,-0.26502 -0.35886,-0.35886 -0.22255,-0.14837 -0.49516,-0.21049 -0.71772,-0.35886 -0.19255,-0.12837 -1.42741,-1.41938 -1.43544,-1.43544 -0.10699,-0.21398 0.10699,-0.50373 0,-0.71772 -0.0535,-0.10699 -0.27427,0.0846 -0.35886,0 -1.40053,-1.40053 0.0831,-0.19272 -0.35886,-1.07658 -0.15131,-0.30262 -0.56641,-0.4151 -0.71772,-0.71772 -0.0535,-0.10699 0.0378,-0.24538 0,-0.35886 -0.0846,-0.25375 -0.23924,-0.47848 -0.35886,-0.71772 0,-0.35886 0.0704,-0.72469 0,-1.07658 -0.0525,-0.26228 -0.29399,-0.45823 -0.35886,-0.71772 -0.11605,-0.46419 0.11605,-0.97125 0,-1.43544 -0.0649,-0.25949 -0.29399,-0.45823 -0.35886,-0.71772 -0.087,-0.34815 0,-0.71772 0,-1.07658 0,-0.71772 0,-1.43544 0,-2.15316 0,-0.95696 0,-1.91392 0,-2.87088 0,-0.23924 0,-0.47848 0,-0.71772 0,-0.23924 -0.058,-0.48563 0,-0.71772 0.0649,-0.2595 0.31489,-0.45389 0.35886,-0.71772 0.0787,-0.47197 0,-0.95696 0,-1.43544 0,-0.23925 -0.10699,-0.50374 0,-0.71773 0.15131,-0.30261 0.56641,-0.4151 0.71772,-0.71772 0.16642,-0.33283 -0.15439,-1.76719 0,-2.15316 0.16018,-0.40045 0.52484,-0.69081 0.71772,-1.07658 0.0535,-0.10699 0,-0.23924 0,-0.35886 0,-0.35886 -0.0704,-0.72469 0,-1.07658 0.0525,-0.26228 0.25952,-0.46937 0.35886,-0.71772 0.14049,-0.35121 0.21838,-0.72536 0.35886,-1.07658 0.19868,-0.49669 0.58798,-0.91645 0.71772,-1.43544 0.11422,-0.45687 -0.11651,-1.32825 0,-1.7943 0.22172,-0.88689 0.34648,-1.05181 0.71772,-1.7943 0.11962,-0.23924 0.29399,-0.45823 0.35886,-0.71772 0.058,-0.2321 -0.1327,-0.51866 0,-0.71772 0.14837,-0.22256 0.52859,-0.16973 0.71772,-0.35886 0.0846,-0.0846 -0.0378,-0.24538 0,-0.35886 0.43366,-1.30097 0.17027,-0.2554 0.71772,-1.07658 0.14837,-0.22256 0.21049,-0.49517 0.35886,-0.71772 0.0938,-0.14076 0.23924,-0.23924 0.35886,-0.35886 0.11962,-0.11962 0.20756,-0.28321 0.35886,-0.35886 0.107,-0.0535 0.24538,0.0378 0.35886,0 0.25376,-0.0846 0.45823,-0.29399 0.71772,-0.35886 0.4642,-0.11605 1.00748,0.21398 1.43545,0 0.10699,-0.0535 0,-0.23924 0,-0.35886 0.23924,-0.11962 0.45822,-0.29399 0.71772,-0.35886 0.47183,-0.11796 1.34861,0.14856 1.7943,0 0.16048,-0.0535 0.2181,-0.26503 0.35886,-0.35886 0.22255,-0.14837 0.46396,-0.27428 0.71772,-0.35886 0.11348,-0.0378 0.23924,0 0.35886,0 0.37567,0 1.86133,0.0729 2.15316,0 0.25949,-0.0649 0.47848,-0.23924 0.71772,-0.35886 0.23924,-0.11962 0.45823,-0.29399 0.71772,-0.35886 0.34814,-0.087 0.71772,0 1.07658,0 1.07658,0 2.15316,0 3.22974,0 0.23924,0 0.47848,0 0.71772,0 0.11962,0 0.24538,0.0378 0.35886,0 0.25375,-0.0846 0.45823,-0.29399 0.71772,-0.35886 0.2321,-0.058 0.47848,0 0.71772,0 0.83734,0 1.67468,0 2.51202,0 0.25656,0 1.96947,-0.0612 2.15316,0 0.16049,0.0535 0.20756,0.2832 0.35886,0.35886 0.19153,0.0958 0.5262,-0.0958 0.71772,0 0.15131,0.0756 0.19838,0.30536 0.35886,0.35886 0.16349,0.0545 2.269,0 2.51203,0 0.23924,0 0.50373,-0.107 0.71772,0 0.53495,0.26747 0.83734,1.07658 1.43544,1.07658 0.5981,0 0.8552,-0.93152 1.43544,-1.07658 0.23209,-0.058 0.10699,0.50373 0,0.71772 -0.0535,0.10699 -0.24281,-0.029 -0.35886,0 -0.36698,0.0917 -0.71772,0.23924 -1.07658,0.35886 z"
         id="path4804"
         inkscape:connector-curvature="0" />
    </clipPath>
  </defs>
  <sodipodi:namedview
     id="base"
     pagecolor="#ffffff"
     bordercolor="#666666"
     borderopacity="1.0"
     inkscape:pageopacity="0.0"
     inkscape:pageshadow="2"
     inkscape:zoom="3.64"
     inkscape:cx="100"
     inkscape:cy="117.33827"
     inkscape:document-units="px"
     inkscape:current-layer="layer2"
     showgrid="false"
     inkscape:snap-intersection-paths="true"
     showguides="true"
     fit-margin-top="0"
     fit-margin-left="0"
     fit-margin-right="0"
     fit-margin-bottom="0"
     inkscape:window-width="1397"
     inkscape:window-height="876"
     inkscape:window-x="1723"
     inkscape:window-y="24"
     inkscape:window-maximized="1"
     units="px"
     showborder="true" />
  <metadata
     id="metadata7">
    <rdf:RDF>
      <cc:Work
         rdf:about="">
        <dc:format>image/svg+xml</dc:format>
        <dc:type
           rdf:resource="http://purl.org/dc/dcmitype/StillImage" />
        <dc:title></dc:title>
      </cc:Work>
    </rdf:RDF>
  </metadata>
  <g
     inkscape:groupmode="layer"
     id="layer2"
     inkscape:label="Layer 2"
     transform="translate(-415.11047,-77.539673)">
    <text
       xml:space="preserve"
       style="font-style:normal;font-variant:normal;font-weight:normal;font-stretch:normal;font-size:133.31864929px;line-height:125%;font-family:'TeX Gyre Heros';-inkscape-font-specification:'TeX Gyre Heros';letter-spacing:0px;word-spacing:0px;display:inline;fill:#000000;fill-opacity:1;stroke:none;stroke-width:1px;stroke-linecap:butt;stroke-linejoin:miter;stroke-opacity:1"
       x="443.92352"
       y="206.33344"
       id="text4271"
       sodipodi:linespacing="125%"
       transform="scale(0.99922102,1.0007796)"><tspan
         sodipodi:role="line"
         id="tspan4273"
         x="443.92352"
         y="206.33344">J</tspan></text>
    <text
       xml:space="preserve"
       style="font-style:normal;font-variant:normal;font-weight:normal;font-stretch:normal;font-size:133.31864929px;line-height:125%;font-family:'TeX Gyre Heros';-inkscape-font-specification:'TeX Gyre Heros';letter-spacing:0px;word-spacing:0px;display:inline;fill:#000000;fill-opacity:1;stroke:none;stroke-width:1px;stroke-linecap:butt;stroke-linejoin:miter;stroke-opacity:1"
       x="485.63248"
       y="206.33344"
       id="text4275"
       sodipodi:linespacing="125%"
       transform="scale(0.99922102,1.0007796)"><tspan
         sodipodi:role="line"
         id="tspan4277"
         x="485.63248"
         y="206.33344">h</tspan></text>
    <text
       xml:space="preserve"
       style="font-style:normal;font-variant:normal;font-weight:normal;font-stretch:normal;font-size:51.76102066px;line-height:125%;font-family:'TeX Gyre Heros';-inkscape-font-specification:'TeX Gyre Heros, Normal';text-align:start;letter-spacing:0px;word-spacing:0px;writing-mode:lr-tb;text-anchor:start;display:inline;fill:#000000;fill-opacity:1;stroke:none;stroke-width:1px;stroke-linecap:butt;stroke-linejoin:miter;stroke-opacity:1"
       x="466.00723"
       y="174.96176"
       id="text4291"
       sodipodi:linespacing="125%"
       transform="matrix(2.4878896,0,0,2.8576609,-631.81131,-259.55946)"
       clip-path="url(#clipPath4309)"><tspan
         sodipodi:role="line"
         id="tspan4293"
         x="466.00723"
         y="174.96176">r</tspan></text>
    <g
       style="display:inline"
       id="g4339"
       transform="matrix(2.6642959,0,0,2.6684517,-776.10182,-423.60418)">
      <text
         clip-path="url(#clipPath4321)"
         sodipodi:linespacing="125%"
         id="text4295"
         y="249.20627"
         x="489.29572"
         style="font-style:normal;font-variant:normal;font-weight:normal;font-stretch:normal;font-size:50px;line-height:125%;font-family:'TeX Gyre Heros';-inkscape-font-specification:'TeX Gyre Heros, Normal';text-align:start;letter-spacing:0px;word-spacing:0px;writing-mode:lr-tb;text-anchor:start;fill:#000000;fill-opacity:1;stroke:none;stroke-width:1px;stroke-linecap:butt;stroke-linejoin:miter;stroke-opacity:1"
         xml:space="preserve"><tspan
           y="249.20627"
           x="489.29572"
           id="tspan4297"
           sodipodi:role="line">t</tspan></text>
      <text
         transform="translate(-16.518958,-26.346694)"
         clip-path="url(#clipPath4331)"
         sodipodi:linespacing="125%"
         id="text4325"
         y="275.55295"
         x="505.60559"
         style="font-style:normal;font-variant:normal;font-weight:normal;font-stretch:normal;font-size:50px;line-height:125%;font-family:'TeX Gyre Heros';-inkscape-font-specification:'TeX Gyre Heros, Normal';text-align:start;letter-spacing:0px;word-spacing:0px;writing-mode:lr-tb;text-anchor:start;fill:#000000;fill-opacity:1;stroke:none;stroke-width:1px;stroke-linecap:butt;stroke-linejoin:miter;stroke-opacity:1"
         xml:space="preserve"><tspan
           y="275.55295"
           x="505.60559"
           id="tspan4327"
           sodipodi:role="line">t</tspan></text>
    </g>
    <rect
       style="display:inline;fill:none;fill-opacity:1;fill-rule:nonzero;stroke:#000000;stroke-width:5.32821512;stroke-linejoin:round;stroke-miterlimit:4;stroke-dasharray:none;stroke-opacity:1"
       id="rect4345"
       width="194.70932"
       height="173.54335"
       x="417.7746"
       y="80.694221" />
  </g>
</svg>
