<?xml version="1.0" encoding="UTF-8" standalone="no"?>
<!-- Generator: Adobe Illustrator 19.2.0, SVG Export Plug-In . SVG Version: 6.00 Build 0)  -->

<svg
   xmlns:dc="http://purl.org/dc/elements/1.1/"
   xmlns:cc="http://creativecommons.org/ns#"
   xmlns:rdf="http://www.w3.org/1999/02/22-rdf-syntax-ns#"
   xmlns:svg="http://www.w3.org/2000/svg"
   xmlns="http://www.w3.org/2000/svg"
   xmlns:sodipodi="http://sodipodi.sourceforge.net/DTD/sodipodi-0.dtd"
   xmlns:inkscape="http://www.inkscape.org/namespaces/inkscape"
   version="1.1"
   id="Layer_1_copy_4"
   x="0px"
   y="0px"
   viewBox="0 0 940 1329.4"
   style="enable-background:new 0 0 940 1329.4;"
   xml:space="preserve"
   inkscape:version="0.91 r"
   sodipodi:docname="bkgrnd.design.svg"
   inkscape:export-filename="/media/sysadmin/DRV4_VOL1_2ndPt1/0Experiments/0MyContent_DRAG_AND_DROP_bkup1/src/dev/style-dist/bkgrnd.design.png"
   inkscape:export-xdpi="90"
   inkscape:export-ydpi="90"><metadata
     id="metadata63"><rdf:RDF><cc:Work
         rdf:about=""><dc:format>image/svg+xml</dc:format><dc:type
           rdf:resource="http://purl.org/dc/dcmitype/StillImage" /><dc:title /></cc:Work></rdf:RDF></metadata><defs
     id="defs61" /><sodipodi:namedview
     pagecolor="#00ccff"
     bordercolor="#666666"
     borderopacity="1"
     objecttolerance="10"
     gridtolerance="10"
     guidetolerance="10"
     inkscape:pageopacity="0"
     inkscape:pageshadow="2"
     inkscape:window-width="1397"
     inkscape:window-height="876"
     id="namedview59"
     showgrid="false"
     inkscape:zoom="0.46620328"
     inkscape:cx="470"
     inkscape:cy="700.27062"
     inkscape:window-x="1723"
     inkscape:window-y="24"
     inkscape:window-maximized="1"
     inkscape:current-layer="Layer_1_copy_4" /><path
     inkscape:connector-curvature="0"
     id="path5"
     d="m 371.2,365.5 21.3,-12.3 0.2,-0.1 0,-24.9 -21.6,-12.5 -21.1,12.2 -21.1,-12.2 -21.1,12.3 -0.2,0.1 0,24.9 21.6,12.5 21.1,-12.2 20.9,12.2 z m -20.6,-36.8 20.6,-11.9 20.6,11.9 0,23.7 -20.6,11.9 -20.6,-11.9 0,-23.7 z m -1,23.7 -20.6,11.9 -20.6,-11.9 0,-23.7 20.6,-11.9 20.6,11.9 0,23.7 z"
     style="fill:#b3b3b3" /><path
     inkscape:connector-curvature="0"
     id="path9"
     d="m 126.6,1053.5 0.2,-0.1 0,-24.9 -21.6,-12.5 -21.2,12.3 -0.2,0.1 0,24.9 21.6,12.5 21.2,-12.3 z m -41.8,-24.5 20.6,-11.9 20.6,11.9 0,23.7 -20.6,11.9 -20.6,-11.9 0,-23.7 z"
     style="fill:#b3b3b3" /><path
     inkscape:connector-curvature="0"
     id="path13"
     d="m 84,663.4 -0.2,0.1 0,24.9 21.6,12.5 21.3,-12.3 0.2,-0.1 0,-24.9 -21.6,-12.5 -21.3,12.3 z m 41.9,24.5 -20.6,11.9 -20.6,-11.9 0,-23.7 20.6,-11.9 20.6,11.9 0,23.7 z"
     style="fill:#b3b3b3" /><path
     inkscape:connector-curvature="0"
     id="path15"
     d="m 368.39917,439.53313 21.3,-12.3 0.2,-0.1 0,-24.3 20.8,-12 0.2,-0.1 0,-24.9 -21.4,-12.6 -21.1,12.2 -21,-12.2 -21.1,12.2 0,25.5 20.6,11.9 0,24.3 21.5,12.4 z m 0.5,-73.2 20.6,-11.9 20.6,11.9 0,23.7 -20.6,11.9 -10.3,-5.9 -10.3,-5.9 0,-23.8 z m 9.8,30.5 10.3,5.9 0,23.7 -20.6,11.9 -20.6,-11.9 0,-23.7 20.6,-11.9 10.3,6 z m -51.9,-6.8 0,-23.7 20.6,-11.9 20.6,11.9 0,23.7 -20.6,11.9 -20.6,-11.9 z"
     style="fill:#b3b3b3" /><path
     inkscape:connector-curvature="0"
     id="path17"
     d="m 455,364.6 0,24.9 21.6,12.5 21.3,-12.3 0.2,-0.1 0,-24.9 -21.6,-12.5 -21.3,12.3 -0.2,0.1 z m 1,0.6 20.6,-11.9 20.6,11.9 0,23.7 -20.6,11.9 -20.6,-11.9 0,-23.7 z"
     style="fill:#b3b3b3" /><path
     inkscape:connector-curvature="0"
     id="path19"
     d="m 929.7,467.8 -10.3,-5.9 0,-23.7 20.6,-11.9 0,-25.5 -10.3,-5.9 -10.3,-5.9 0,-23.7 20.6,-11.9 0,-1.2 -21.1,12.2 -21.1,-12.2 -21.3,12.3 -0.2,0.1 0,24.3 -20.8,12 -0.2,0.1 0,25 21.6,12.5 21.1,-12.2 20.6,11.9 0,23.7 -20.8,12 -0.2,0.1 0,25 21.6,12.5 21.1,-12.2 0,-25.5 -10.6,-6 z m -32.3,-42.4 -20.6,11.9 -20.6,-11.9 0,-23.7 20.6,-11.9 10.3,5.9 10.3,5.9 0,23.8 z m -9.8,-30.5 -10.3,-5.9 0,-23.7 20.6,-11.9 20.6,11.9 0,23.7 -20.6,11.9 -10.3,-6 z m 10.8,30.5 0,-23.7 20.6,-11.9 10.3,5.9 10.3,5.9 0,23.7 -20.6,11.9 -20.6,-11.8 z m 20.5,84.9 -20.6,-11.9 0,-23.7 20.6,-11.9 10.3,5.9 10.3,5.9 0,23.7 -20.6,12 z"
     style="fill:#b3b3b3" /><path
     inkscape:connector-curvature="0"
     id="path21"
     d="m 525.60743,111.90044 -0.2,0.1 0,24.9 21.6,12.5 21.3,-12.3 0.2,-0.1 0,-24.9 -21.6,-12.500003 -21.3,12.300003 z m 41.9,24.5 -20.6,11.9 -20.6,-11.9 0,-23.7 20.6,-11.9 20.6,11.9 0,23.7 z"
     style="fill:#b3b3b3" /><path
     inkscape:connector-curvature="0"
     id="path23"
     d="m 855.64764,110.22268 -0.2,0.1 0,24.3 -20.8,12 -0.2,0.1 0,25 21.6,12.5 21.1,-12.2 21.1,12.2 21.3,-12.3 0.2,-0.1 0,-24.9 -21.1,-12.2 0,-24.3 -21.6,-12.499995 -21.4,12.299995 z m 20.8,60.9 -20.6,11.9 -20.6,-11.9 0,-23.7 20.6,-11.9 10.3,5.9 10.3,5.9 0,23.8 z m 42.1,-23.7 0,23.7 -20.6,11.9 -20.6,-11.9 0,-23.7 20.6,-11.9 20.6,11.9 z m -21,-12.8 -20.6,11.9 -10.3,-5.9 -10.3,-5.9 0,-23.7 20.6,-11.899995 20.6,11.899995 0,23.6 z"
     style="fill:#b3b3b3" /><path
     inkscape:connector-curvature="0"
     id="path25"
     d="M 813.6,35.9 792.5,23.7 771.4,35.9 750.3,23.7 729,36 l -0.2,0.1 0,24.3 -20.6,11.9 -21.1,-12.2 -21.3,12.3 -0.2,0.1 0,24.9 21.1,12.2 0,23.7 -20.8,12 -0.2,0.1 0,24.9 21.6,12.5 21.3,-12.3 0.2,-0.1 0,-24.3 20.8,-12 0.2,-0.1 0,-24.3 20.6,-11.9 21.1,12.2 21.1,-12.2 20.6,11.9 0,23.7 -20.8,12 -0.2,0.1 0,24.9 21.1,12.2 0,23.7 -20.8,12 -0.2,0.1 0,24.9 21.6,12.5 21.3,-12.3 0.2,-0.1 0,-24.3 20.8,-12 0.2,-0.1 0,-24.9 -21.2,-12.1 0,-23.7 20.8,-12 0.2,-0.1 0,-24.3 20.8,-12 0.2,-0.1 0,-24.5 20.6,-11.9 20.6,11.9 0,24.3 21.6,12.4 0,-1.2 -20.6,-11.8 0,-23.7 20.6,-11.9 0,-25.5 -10.3,-5.9 -10.3,-6 0,-23.7 0.5,-0.3 -2,0 0.5,0.3 0,23.7 -20.6,11.9 -10.2,-5.9 -10.3,-6 0,-23.7 0.5,-0.3 -2,0 0.5,0.3 0,23.7 -20.6,11.9 -10.2,-5.9 -10.3,-6 0,-23.7 0.5,-0.3 -1.5,0 0,24 -20.6,11.9 z m 84.8,0.9 20.6,-11.9 10.3,5.9 10.3,5.9 0,23.7 -20.6,11.9 -20.6,-11.9 0,-23.6 z M 666.6,97 l 0,-23.7 20.6,-11.9 20.6,11.9 0,23.7 -20.6,11.9 L 666.6,97 Z m 41.2,73 -20.6,11.9 -20.6,-11.9 0,-23.7 20.6,-11.9 10.3,5.9 10.3,5.9 0,23.8 z m 21,-36.5 -20.6,11.9 -10.3,-5.9 -10.3,-5.9 0,-23.7 20.6,-11.9 10.3,5.9 10.3,5.9 0,23.7 z M 749.9,97 729.3,108.9 719,103 l -10.2,-6 0,-23.7 20.6,-11.9 10.3,5.9 10.3,5.9 0,23.8 z m -9.8,-30.5 -10.3,-5.9 0,-23.8 20.6,-11.9 20.6,11.9 0,23.7 -20.6,11.9 -10.3,-5.9 z M 792,97 771.4,108.9 750.9,97 l 0,-23.7 20.6,-11.9 10.3,5.9 10.3,5.9 0,23.8 z m -9.7,-30.5 -10.3,-6 0,-23.7 20.6,-11.9 20.6,11.9 0,23.7 -20.6,11.9 -10.3,-5.9 z M 793,97 l 0,-23.7 20.6,-11.9 10.3,5.9 10.3,5.9 0,23.8 -20.6,11.9 L 793,97 Z m 0,73 0,-23.7 20.6,-11.9 10.3,5.9 10.3,5.9 0,23.8 -20.6,11.9 L 793,170 Z m 41.2,73 -20.6,11.9 -20.6,-11.9 0,-23.7 20.6,-11.9 10.3,5.9 10.3,5.9 0,23.8 z m 21,-60.3 0,23.7 -20.6,11.9 -10.3,-5.9 -10.3,-5.9 0,-23.7 20.6,-11.9 20.6,11.8 z m 0,-49.2 -20.6,11.9 -10.3,-5.9 -10.3,-5.9 0,-23.7 20.6,-11.9 10.3,5.9 10.3,5.9 0,23.7 z m 1,-96.7 20.6,-11.9 10.3,5.9 10.3,5.9 0,23.7 -20.6,11.9 -10.3,-5.9 -10.3,-5.9 0,-23.7 z m 9.8,30.5 10.3,5.9 0,23.8 -20.6,11.9 -10.3,-5.9 -10.2,-6 0,-23.7 20.6,-11.9 10.2,5.9 z m -21,-36.5 10.3,5.9 0,23.7 -20.6,11.9 -10.3,-5.9 -10.3,-5.9 0,-23.7 20.6,-11.9 10.3,5.9 z"
     style="fill:#b3b3b3" /><path
     inkscape:connector-curvature="0"
     id="path27"
     d="m 476.3,473.9 -0.2,0.1 0,25 21.6,12.5 21.3,-12.3 0.2,-0.1 0,-24.9 -21.6,-12.5 -21.3,12.2 z m 41.9,24.5 -20.6,11.9 -20.6,-11.9 0,-23.7 20.6,-11.9 20.6,11.9 0,23.7 z"
     style="fill:#b3b3b3" /><path
     inkscape:connector-curvature="0"
     id="path29"
     d="M 21.1,602.3 42.4,590 42.6,589.9 42.6,565 21,552.5 0,564.6 l 0,25.5 21.1,12.2 z m 0,-48.7 20.6,11.9 0,23.7 -20.6,11.9 -20.6,-11.9 0,-23.7 20.6,-11.9 z"
     style="fill:#b3b3b3" /><path
     inkscape:connector-curvature="0"
     id="path31"
     d="m 493.58995,39.700437 0,23.7 -20.8,12 -0.2,0.1 0,24.900003 21.6,12.5 21.3,-12.3 0.2,-0.1 0,-24.300003 20.6,-11.9 21,12.2 21.3,-12.3 0.2,-0.1 0,-24.4 20.6,-11.9 21.1,12.2 21.3,-12.3 0.2,-0.1 0,-24.7 -1.5,0 0.5,0.3 0,23.7 -20.6,11.9 -20.5,-11.9 0,-23.7 0.5,-0.3 -2,0 0.5,0.3 0,23.7 -20.6,11.9 -10.2,-5.9 -10.3,-6 0,-23.7 0.5,-0.3 -2,0 0.5,0.3 0,23.7 -20.6,11.9 -10.2,-5.9 -10.3,-6 0,-23.7 0.5,-0.3 -2,0 0.5,0.3 0,23.7 -20.6,11.9 -20.6,-11.9 0,-23.7 0.5,-0.3 -1.5,0 0,24.6 21.1,12.2 z m 43.1,0 20.6,-11.9 10.3,5.9 10.3,5.9 0,23.7 -20.6,12 -20.6,-11.9 0,-23.7 z m -42.1,0 20.6,-11.9 10.3,5.9 10.3,5.9 0,23.7 -20.6,11.9 -10.3,-5.9 -10.3,-5.9 0,-23.7 z m 9.8,30.5 10.3,5.9 0,23.8 -20.6,11.900003 -20.6,-11.900003 0,-23.7 20.6,-11.9 10.3,5.9 z"
     style="fill:#b3b3b3" /><path
     inkscape:connector-curvature="0"
     id="path33"
     d="m 501.83798,146.95022 -0.2,0.1 0,24.9 21.6,12.5 21.3,-12.3 0.2,-0.1 0,-24.9 -21.6,-12.5 -21.3,12.3 z m 41.9,24.5 -20.6,11.9 -20.5,-11.9 0,-23.7 20.6,-11.9 20.6,11.9 0,23.7 z"
     style="fill:#b3b3b3" /><path
     inkscape:connector-curvature="0"
     id="path35"
     d="m 582.90201,172.41012 21.6386,11.69406 0.18998,0.11792 21.20637,-13.04989 -0.66807,-24.36398 20.18438,-12.42098 21.12106,11.42545 0.18998,0.11793 21.20638,-13.0499 -0.67462,-24.94704 -21.6386,-11.694056 -0.18999,-0.11792 -20.69537,12.735436 -21.12106,-11.425456 -0.18998,-0.11792 -21.20638,13.049886 0.72048,24.44915 -20.69537,12.73544 0.62221,24.86187 z m 42.13744,-1.74236 -20.18438,12.42098 -20.93107,-11.30753 -0.66152,-23.78092 20.18438,-12.42099 20.93107,11.30754 0.66152,23.78092 z m 40.54595,-73.209596 20.93107,11.307526 0.66152,23.78093 -20.18438,12.42098 -20.93107,-11.30753 -0.37334,-11.86426 -0.37335,-11.86426 20.26955,-12.473386 z m -62.32837,13.580276 20.18438,-12.420976 20.93107,11.307526 0.37334,11.86426 0.37335,11.86426 -20.18438,12.42098 -20.93107,-11.30753 -0.74669,-23.72852 z"
     style="fill:#b3b3b3" /><polygon
     id="polygon37"
     points="434.4,37.1 455.7,24.8 456,24.6 456,0 454.5,0 455,0.3 455,24 434.4,35.9 413.8,24 413.8,0.3 414.3,0 412.3,0 412.8,0.3 412.8,24 392.3,35.9 371.7,24 371.7,0.3 372.2,0 370.7,0 370.7,24.6 392.3,37.1 413.3,24.9 "
     style="fill:#b3b3b3" /><polygon
     id="polygon39"
     points="0,1028.1 0,1029.3 21.3,1017 21.6,1016.8 21.6,991.9 0,979.5 0,980.6 20.6,992.5 20.6,1016.3 "
     style="fill:#b3b3b3" /><path
     inkscape:connector-curvature="0"
     id="path43"
     d="m 899.34152,180.71132 -0.2,0.1 0,24.9 21.6,12.5 21.3,-12.3 0.2,-0.1 0,-24.9 -21.6,-12.5 -21.3,12.3 z m 41.8,24.5 -20.6,11.9 -20.6,-11.9 0,-23.7 20.6,-11.9 20.6,11.9 0,23.7 z"
     style="fill:#b3b3b3" /><path
     inkscape:connector-curvature="0"
     id="path45"
     d="m 813.1,474.1 0,24.9 21.6,12.5 21.3,-12.3 0.2,-0.1 0,-24.9 -21.6,-12.5 -21.3,12.3 -0.2,0.1 z m 1,0.5 20.6,-11.9 20.6,11.9 0,23.7 -20.6,11.9 -20.6,-11.9 0,-23.7 z"
     style="fill:#b3b3b3" /><path
     inkscape:connector-curvature="0"
     id="path49"
     d="m 834.4,291.5 -0.2,0.1 0,24.9 21.6,12.5 21.3,-12.3 0.2,-0.1 0,-24.9 -21.6,-12.5 -21.3,12.3 z m 41.9,24.4 -20.6,11.9 -20.6,-11.9 0,-23.7 20.6,-11.9 20.6,11.9 0,23.7 z"
     style="fill:#b3b3b3" /><path
     inkscape:connector-curvature="0"
     id="path51"
     d="m 729.55328,278.79432 21.6,12.5 21.3,-12.3 0.2,-0.1 0,-24.9 -21.6,-12.5 -21.3,12.3 -0.2,0.1 0,24.9 z m 1,-24.3 20.6,-11.9 20.6,11.9 0,23.7 -20.6,11.9 -20.6,-11.9 0,-23.7 z"
     style="fill:#b3b3b3" /><a
     id="a4222"
     transform="translate(43.506556,44.956774)"
     style="fill:#b3b3b3"><path
       d="m 667.35022,364.4 -0.2,0.1 0,24.9 21.6,12.5 21.3,-12.3 0.2,-0.1 0,-24.9 -21.6,-12.5 -21.3,12.3 z m 41.9,24.5 -20.6,11.9 -20.6,-11.9 0,-23.7 20.6,-11.9 20.6,11.9 0,23.7 z"
       id="path53"
       inkscape:connector-curvature="0"
       style="fill:#b3b3b3" /></a><path
     inkscape:connector-curvature="0"
     id="path55"
     d="m 877.66884,73.119962 -0.19327,0.09709 0,24.174891 20.87321,12.135987 20.5833,-11.941811 0.19327,-0.09709 0,-24.174891 -20.8732,-12.13599 -20.58331,11.941814 z m 40.49016,23.786539 -19.90685,11.553459 -19.81023,-11.553459 0,-23.009836 19.90686,-11.553462 19.90686,11.553462 0,23.009836 z"
     style="fill:#b3b3b3" /><path
     d="m 707.8,243.26687 21.6,11.77199 21.3,-11.58363 0.2,-0.0942 0,-23.44978 -21.6,-11.77198 -21.3,11.58363 -0.2,0.0942 0,23.44978 z m 1,-22.88472 20.6,-11.20692 20.6,11.20692 0,22.31967 -20.6,11.20692 -20.6,-11.20692 0,-22.31967 z"
     id="path4220"
     inkscape:connector-curvature="0"
     style="fill:#b3b3b3" /><path
     d="m 855.64764,181.28338 -0.2,0.1 0,24.3 -20.8,12 -0.2,0.1 0,25 21.6,12.5 21.1,-12.2 21.1,12.2 21.3,-12.3 0.2,-0.1 0,-24.9 -21.1,-12.2 0,-24.3 -21.6,-12.5 -21.4,12.3 z m 20.8,60.9 -20.6,11.9 -20.6,-11.9 0,-23.7 20.6,-11.9 10.3,5.9 10.3,5.9 0,23.8 z m 42.1,-23.7 0,23.7 -20.6,11.9 -20.6,-11.9 0,-23.7 20.6,-11.9 20.6,11.9 z m -21,-12.8 -20.6,11.9 -10.3,-5.9 -10.3,-5.9 0,-23.7 20.6,-11.9 20.6,11.9 0,23.6 z"
     id="path4225"
     inkscape:connector-curvature="0"
     style="fill:#b3b3b3" /><path
     d="m 897.8913,109.65061 -0.2,0.1 0,24.9 21.6,12.5 21.3,-12.3 0.2,-0.1 0,-24.9 -21.6,-12.499998 -21.3,12.299998 z m 41.8,24.5 -20.6,11.9 -20.6,-11.9 0,-23.7 20.6,-11.899998 20.6,11.899998 0,23.7 z"
     id="path4227"
     inkscape:connector-curvature="0"
     style="fill:#b3b3b3" /><path
     inkscape:connector-curvature="0"
     id="path4229"
     d="m 646.48121,182.97815 -0.2,0.1 0,24.3 -20.8,12 -0.2,0.1 0,24.3 -20.8,12 -0.2,0.1 0,25.1 21.6,12.5 21.3,-12.3 0.2,-0.1 0,-24.3 20.8,-12 0.2,-0.1 0,-24.3 20.8,-12 0.2,-0.1 0,-24.9 -21.6,-12.5 -21.3,12.1 z m -0.2,97.4 -20.6,11.9 -20.6,-11.9 0,-23.7 20.6,-11.9 10.3,5.9 10.3,5.9 0,23.8 z m 21,-36.5 -20.6,11.9 -10.3,-5.9 -10.3,-5.9 0,-23.7 20.6,-11.9 10.3,5.9 10.3,5.9 0,23.7 z m 21.1,-36.5 -20.6,11.9 -10.3,-5.9 -10.3,-5.9 0,-23.7 20.6,-11.9 20.6,11.9 0,23.6 z"
     inkscape:transform-center-x="-117.4677"
     inkscape:transform-center-y="-68.160271"
     style="fill:#b3b3b3" /><path
     inkscape:transform-center-y="-68.160271"
     inkscape:transform-center-x="-117.4677"
     d="m 526.11307,182.97815 -0.2,0.1 0,24.3 -20.8,12 -0.2,0.1 0,24.3 -20.8,12 -0.2,0.1 0,25.1 21.6,12.5 21.3,-12.3 0.2,-0.1 0,-24.3 20.8,-12 0.2,-0.1 0,-24.3 20.8,-12 0.2,-0.1 0,-24.9 -21.6,-12.5 -21.3,12.1 z m -0.2,97.4 -20.6,11.9 -20.6,-11.9 0,-23.7 20.6,-11.9 10.3,5.9 10.3,5.9 0,23.8 z m 21,-36.5 -20.6,11.9 -10.3,-5.9 -10.3,-5.9 0,-23.7 20.6,-11.9 10.3,5.9 10.3,5.9 0,23.7 z m 21.1,-36.5 -20.6,11.9 -10.3,-5.9 -10.3,-5.9 0,-23.7 20.6,-11.9 20.6,11.9 0,23.6 z"
     id="path4231"
     inkscape:connector-curvature="0"
     style="fill:#b3b3b3" /><path
     d="m 705.8878,289.18864 0,24.9 21.6,12.5 21.3,-12.3 0.2,-0.1 0,-24.9 -21.6,-12.5 -21.3,12.3 -0.2,0.1 z m 1,0.6 20.6,-11.9 20.6,11.9 0,23.7 -20.6,11.9 -20.6,-11.9 0,-23.7 z"
     id="path4233"
     inkscape:connector-curvature="0"
     style="fill:#b3b3b3" /><path
     d="m 780.84589,343.38033 -0.2,0.1 0,25 21.6,12.5 21.3,-12.3 0.2,-0.1 0,-24.9 -21.6,-12.5 -21.3,12.2 z m 41.9,24.5 -20.6,11.9 -20.6,-11.9 0,-23.7 20.6,-11.9 20.6,11.9 0,23.7 z"
     id="path4235"
     inkscape:connector-curvature="0"
     style="fill:#b3b3b3" /><path
     d="m 601.88435,407.62832 21.3,-12.3 0.2,-0.1 0,-24.3 20.8,-12 0.2,-0.1 0,-24.9 -21.4,-12.6 -21.1,12.2 -21,-12.2 -21.1,12.2 0,25.5 20.6,11.9 0,24.3 21.5,12.4 z m 0.5,-73.2 20.6,-11.9 20.6,11.9 0,23.7 -20.6,11.9 -10.3,-5.9 -10.3,-5.9 0,-23.8 z m 9.8,30.5 10.3,5.9 0,23.7 -20.6,11.9 -20.6,-11.9 0,-23.7 20.6,-11.9 10.3,6 z m -51.9,-6.8 0,-23.7 20.6,-11.9 20.6,11.9 0,23.7 -20.6,11.9 -20.6,-11.9 z"
     id="path4237"
     inkscape:connector-curvature="0"
     style="fill:#b3b3b3" /><path
     d="m 464.11359,639.66329 21.3,-12.3 0.2,-0.1 0,-24.3 20.8,-12 0.2,-0.1 0,-24.9 -21.4,-12.6 -21.1,12.2 -21,-12.2 -21.1,12.2 0,25.5 20.6,11.9 0,24.3 21.5,12.4 z m 0.5,-73.2 20.6,-11.9 20.6,11.9 0,23.7 -20.6,11.9 -10.3,-5.9 -10.3,-5.9 0,-23.8 z m 9.8,30.5 10.3,5.9 0,23.7 -20.6,11.9 -20.6,-11.9 0,-23.7 20.6,-11.9 10.3,6 z m -51.9,-6.8 0,-23.7 20.6,-11.9 20.6,11.9 0,23.7 -20.6,11.9 -20.6,-11.9 z"
     id="path4239"
     inkscape:connector-curvature="0"
     style="fill:#b3b3b3" /><path
     d="m 643.46946,434.62079 0.90378,-24.57973 0.0216,-0.22256 -21.09087,-13.23576 -22.06941,11.65123 -0.88216,24.35717 -21.54952,11.38719 -0.79747,24.41033 -0.0216,0.22256 21.09087,13.23576 22.06941,-11.65123 0.88216,-24.35717 21.44321,-11.21779 z m -42.1205,-2.11261 0.87049,-23.7742 21.02964,-11.12314 20.07444,12.59789 -0.87049,23.77419 -21.02964,11.12315 -20.07444,-12.59789 z m 19.54288,13.44491 -0.87049,23.77419 -21.02964,11.12315 -20.07444,-12.59789 0.8705,-23.7742 21.02963,-11.12314 20.07444,12.59789 z"
     id="path4241"
     inkscape:connector-curvature="0"
     style="fill:#b3b3b3" /><path
     d="m 321.5799,123.86373 0,24.9 21.6,12.5 21.3,-12.3 0.2,-0.1 0,-24.9 -21.6,-12.5 -21.3,12.3 -0.2,0.1 z m 1,0.6 20.6,-11.9 20.6,11.9 0,23.7 -20.6,11.9 -20.6,-11.9 0,-23.7 z"
     id="path4243"
     inkscape:connector-curvature="0"
     style="fill:#b3b3b3" /><path
     inkscape:connector-curvature="0"
     id="path4245"
     d="m 407.14279,186.22313 0,24.9 21.6,12.5 21.3,-12.3 0.2,-0.1 0,-24.9 -21.6,-12.5 -21.3,12.3 -0.2,0.1 z m 1,0.6 20.6,-11.9 20.6,11.9 0,23.7 -20.6,11.9 -20.6,-11.9 0,-23.7 z"
     style="fill:#b3b3b3" /><path
     inkscape:connector-curvature="0"
     id="path4247"
     d="m 237.46723,218.12793 0,24.9 21.6,12.5 21.3,-12.3 0.2,-0.1 0,-24.9 -21.6,-12.5 -21.3,12.3 -0.2,0.1 z m 1,0.6 20.6,-11.9 20.6,11.9 0,23.7 -20.6,11.9 -20.6,-11.9 0,-23.7 z"
     style="fill:#b3b3b3" /><a
     transform="translate(10.15153,187.07819)"
     id="a4249"
     style="fill:#b3b3b3"><path
       inkscape:connector-curvature="0"
       id="path4251"
       d="m 667.35022,364.4 -0.2,0.1 0,24.9 21.6,12.5 21.3,-12.3 0.2,-0.1 0,-24.9 -21.6,-12.5 -21.3,12.3 z m 41.9,24.5 -20.6,11.9 -20.6,-11.9 0,-23.7 20.6,-11.9 20.6,11.9 0,23.7 z"
       style="fill:#b3b3b3" /></a><path
     d="m 300.13929,656.99392 21.3,-12.3 0.2,-0.1 0,-24.9 -21.6,-12.5 -21.1,12.2 -21.1,-12.2 -21.1,12.3 -0.2,0.1 0,24.9 21.6,12.5 21.1,-12.2 20.9,12.2 z m -20.6,-36.8 20.6,-11.9 20.6,11.9 0,23.7 -20.6,11.9 -20.6,-11.9 0,-23.7 z m -1,23.7 -20.6,11.9 -20.6,-11.9 0,-23.7 20.6,-11.9 20.6,11.9 0,23.7 z"
     id="path4253"
     inkscape:connector-curvature="0"
     style="fill:#b3b3b3" /><path
     d="m 327.79305,767.28252 21.3,-12.3 0.2,-0.1 0,-24.3 20.8,-12 0.2,-0.1 0,-24.9 -21.4,-12.6 -21.1,12.2 -21,-12.2 -21.1,12.2 0,25.5 20.6,11.9 0,24.3 21.5,12.4 z m 0.5,-73.2 20.6,-11.9 20.6,11.9 0,23.7 -20.6,11.9 -10.3,-5.9 -10.3,-5.9 0,-23.8 z m 9.8,30.5 10.3,5.9 0,23.7 -20.6,11.9 -20.6,-11.9 0,-23.7 20.6,-11.9 10.3,6 z m -51.9,-6.8 0,-23.7 20.6,-11.9 20.6,11.9 0,23.7 -20.6,11.9 -20.6,-11.9 z"
     id="path4255"
     inkscape:connector-curvature="0"
     style="fill:#b3b3b3" /><path
     inkscape:connector-curvature="0"
     id="path4257"
     d="m 230.52881,1226.9298 21.3,-12.3 0.2,-0.1 0,-24.9 -21.6,-12.5 -21.1,12.2 -21.1,-12.2 -21.1,12.3 -0.2,0.1 0,24.9 21.6,12.5 21.1,-12.2 20.9,12.2 z m -20.6,-36.8 20.6,-11.9 20.6,11.9 0,23.7 -20.6,11.9 -20.6,-11.9 0,-23.7 z m -1,23.7 -20.6,11.9 -20.6,-11.9 0,-23.7 20.6,-11.9 20.6,11.9 0,23.7 z"
     style="fill:#b3b3b3" /><path
     inkscape:connector-curvature="0"
     id="path4259"
     d="m 188.57208,1302.4132 21.3,-12.3 0.2,-0.1 0,-24.3 20.8,-12 0.2,-0.1 0,-24.9 -21.4,-12.6 -21.1,12.2 -21,-12.2 -21.1,12.2 0,25.5 20.6,11.9 0,24.3 21.5,12.4 z m 0.5,-73.2 20.6,-11.9 20.6,11.9 0,23.7 -20.6,11.9 -10.3,-5.9 -10.3,-5.9 0,-23.8 z m 9.8,30.5 10.3,5.9 0,23.7 -20.6,11.9 -20.6,-11.9 0,-23.7 20.6,-11.9 10.3,6 z m -51.9,-6.8 0,-23.7 20.6,-11.9 20.6,11.9 0,23.7 -20.6,11.9 -20.6,-11.9 z"
     style="fill:#b3b3b3" /><polygon
     points="0,1029.3 21.3,1017 21.6,1016.8 21.6,991.9 0,979.5 0,980.6 20.6,992.5 20.6,1016.3 0,1028.1 "
     id="polygon4261"
     transform="translate(2.900437,-536.58085)"
     style="fill:#b3b3b3" /><polygon
     transform="matrix(0,-1,1,0,-906.58689,1329.8974)"
     id="polygon4263"
     points="0,980.6 20.6,992.5 20.6,1016.3 0,1028.1 0,1029.3 21.3,1017 21.6,1016.8 21.6,991.9 0,979.5 "
     style="fill:#b3b3b3" /><path
     inkscape:connector-curvature="0"
     id="path4265"
     d="m 102.71597,1187.4568 11.62871,-21.6738 0.11735,-0.1903 -13.11382,-21.1669 -24.94489,0.7499 -11.511366,21.4834 -24.361856,0.7416 -11.4587,21.5685 -0.117349,0.1903 13.11382,21.1669 24.944893,-0.7499 11.511366,-21.4834 24.191842,-0.6363 z m -36.892642,-20.4336 11.244325,-20.9651 23.778817,-0.7333 12.48183,20.1468 -11.24432,20.9651 -23.778823,0.7333 -12.481829,-20.1468 z m 11.631753,20.6735 -11.244326,20.9651 -23.77882,0.7332 -12.481829,-20.1468 11.244325,-20.9651 23.77882,-0.7332 12.48183,20.1468 z"
     style="fill:#b3b3b3" /><path
     d="m 43.937544,1273.9332 0.2,-0.1 0,-24.9 -21.6,-12.5 -21.1999997,12.3 -0.2,0.1 0,24.9 21.5999997,12.5 21.2,-12.3 z m -41.7999997,-24.5 20.5999997,-11.9 20.6,11.9 0,23.7 -20.6,11.9 -20.5999997,-11.9 0,-23.7 z"
     id="path4267"
     inkscape:connector-curvature="0"
     style="fill:#b3b3b3" /><path
     style="fill:#b3b3b3;fill-rule:evenodd;stroke:#cccacc;stroke-width:1;stroke-linecap:butt;stroke-linejoin:miter;stroke-opacity:1;stroke-miterlimit:4;stroke-dasharray:none"
     d="m 751.06879,147.269 -21.4723,-14.08398"
     id="path4182"
     inkscape:connector-curvature="0" /><path
     inkscape:connector-curvature="0"
     id="path4193"
     d="m 730.28914,183.74882 -21.4723,-14.08398"
     style="fill:#b3b3b3;fill-rule:evenodd;stroke:#cccacc;stroke-width:1;stroke-linecap:butt;stroke-linejoin:miter;stroke-miterlimit:4;stroke-dasharray:none;stroke-opacity:1" /><path
     style="fill:#b3b3b3;fill-rule:evenodd;stroke:#cccacc;stroke-width:0.86737627;stroke-linecap:butt;stroke-linejoin:miter;stroke-miterlimit:4;stroke-dasharray:none;stroke-opacity:1"
     d="M 708.161,219.82287 689.38568,207.70485"
     id="path4195"
     inkscape:connector-curvature="0" /><path
     style="fill:#b3b3b3;fill-rule:evenodd;stroke:#cccccc;stroke-width:1px;stroke-linecap:butt;stroke-linejoin:miter;stroke-opacity:1"
     d="m 771.84844,109.17298 0,26.09 -19.70716,11.46977 -1.76514,24.3174 21.01053,12.69867 21.24142,-13.39132 0,0 -20.96889,14.39602 -20.62738,-14.55586 1.41741,-23.12228 19.53336,-12.64641"
     id="path4197"
     inkscape:connector-curvature="0"
     sodipodi:nodetypes="ccccccccccc" /><path
     style="fill:#b3b3b3;fill-rule:evenodd;stroke:#cccccc;stroke-width:1px;stroke-linecap:butt;stroke-linejoin:miter;stroke-opacity:1"
     d="m 792.16632,145.88369 -19.85611,-10.85159 0.23089,0.23088"
     id="path4199"
     inkscape:connector-curvature="0" /><path
     style="fill:#b3b3b3;fill-rule:evenodd;stroke:#cccccc;stroke-width:1px;stroke-linecap:butt;stroke-linejoin:miter;stroke-opacity:1"
     d="m 730.52003,183.51794 19.62522,-12.92956"
     id="path4201"
     inkscape:connector-curvature="0" /><path
     style="fill:#b3b3b3;fill-rule:evenodd;stroke:#cccccc;stroke-width:1px;stroke-linecap:butt;stroke-linejoin:miter;stroke-opacity:1"
     d="m 729.36561,208.45352 0.92354,-24.93558"
     id="path4203"
     inkscape:connector-curvature="0" /><path
     inkscape:connector-curvature="0"
     id="path4207"
     d="m 771.86768,208.1464 -20.69722,11.62168 20.74859,-11.27909 -0.31895,-25.06618"
     style="fill:#b3b3b3;fill-rule:evenodd;stroke:#cccccc;stroke-width:1px;stroke-linecap:butt;stroke-linejoin:miter;stroke-opacity:1"
     sodipodi:nodetypes="cccc" /><path
     style="fill:#b3b3b3;fill-rule:evenodd;stroke:#cccccc;stroke-width:1px;stroke-linecap:butt;stroke-linejoin:miter;stroke-opacity:1"
     d="m 771.84844,253.70697 20.77965,-10.15894 0,0 0,0"
     id="path4209"
     inkscape:connector-curvature="0" /><path
     style="fill:#b3b3b3;fill-rule:evenodd;stroke:#cccccc;stroke-width:1px;stroke-linecap:butt;stroke-linejoin:miter;stroke-opacity:1"
     d="M 792.62809,219.07422 771.38667,207.76086"
     id="path4211"
     inkscape:connector-curvature="0" /></svg>